<svg width="0" height="0" class="hidden">
    <symbol xmlns="http://www.w3.org/2000/svg" viewBox="0 0 451.185 451.185" id="options">
        <path
            d="M58.503 284.096C26.244 284.096 0 257.851 0 225.592s26.244-58.503 58.503-58.503c32.262 0 58.507 26.244 58.507 58.503s-26.244 58.504-58.507 58.504zm0-95.522c-20.411 0-37.018 16.607-37.018 37.018s16.607 37.018 37.018 37.018c20.415 0 37.022-16.607 37.022-37.018s-16.607-37.018-37.022-37.018zm167.089 95.522c-32.259 0-58.503-26.244-58.503-58.503s26.244-58.503 58.503-58.503 58.503 26.244 58.503 58.503-26.244 58.503-58.503 58.503zm0-95.522c-20.411 0-37.018 16.607-37.018 37.018s16.607 37.018 37.018 37.018 37.018-16.607 37.018-37.018-16.606-37.018-37.018-37.018zm167.089 95.522c-32.262 0-58.507-26.244-58.507-58.503s26.244-58.503 58.507-58.503c32.259 0 58.503 26.244 58.503 58.503s-26.244 58.503-58.503 58.503zm0-95.522c-20.415 0-37.022 16.607-37.022 37.018s16.607 37.018 37.022 37.018c20.411 0 37.018-16.607 37.018-37.018s-16.606-37.018-37.018-37.018z">
        </path>
    </symbol>
    <symbol xmlns="http://www.w3.org/2000/svg" viewBox="0 0 512.001 512.001" id="share">
        <path
            d="M350.952 365.555l-116.654-70.641c9.257-25.04 9.263-52.77 0-77.827l116.654-70.641c54.036 52.677 144.892 14.024 144.892-61.088C495.845 38.291 457.555 0 410.486 0c-56.883 0-98.202 55.029-81.763 109.836L212.066 180.48c-20.605-22.727-50.347-37.023-83.367-37.023-62.056 0-112.543 50.486-112.543 112.543s50.486 112.543 112.543 112.543c33.02 0 62.762-14.297 83.367-37.022l116.657 70.644c-16.415 54.729 24.798 109.836 81.763 109.836 47.067 0 85.359-38.291 85.359-85.358 0-75.228-90.918-113.703-144.893-61.088zm59.534-322.726c23.451 0 42.53 19.078 42.53 42.528s-19.078 42.53-42.53 42.53c-23.451 0-42.528-19.078-42.528-42.53 0-23.45 19.079-42.528 42.528-42.528zM128.697 325.712c-38.439 0-69.713-31.273-69.713-69.713 0-38.441 31.273-69.713 69.713-69.713 38.441 0 69.712 31.273 69.712 69.713s-31.271 69.713-69.712 69.713zm281.789 143.459c-23.451 0-42.528-19.078-42.528-42.528 0-23.451 19.078-42.53 42.528-42.53 23.451 0 42.53 19.078 42.53 42.53 0 23.449-19.078 42.528-42.53 42.528z"
            fill="#231f20"></path>
    </symbol>
    <symbol xmlns="http://www.w3.org/2000/svg" viewBox="0 0 24 24" id="close">
        <path
            d="M12 1.5C6.202 1.5 1.5 6.202 1.5 12S6.202 22.5 12 22.5 22.5 17.798 22.5 12 17.798 1.5 12 1.5zm3.877 14.49l-1.547-.008L12 13.205 9.673 15.98l-1.55.007a.187.187 0 01-.187-.188c0-.044.016-.086.044-.122l3.05-3.633-3.05-3.63a.188.188 0 01.143-.31l1.55.008L12 10.889l2.327-2.775 1.547-.007c.103 0 .188.082.188.188a.195.195 0 01-.045.121l-3.044 3.63 3.046 3.634a.188.188 0 01-.143.31z">
        </path>
    </symbol>
    <symbol xmlns="http://www.w3.org/2000/svg" viewBox="0 0 426.667 426.667" id="plus">
        <path
            d="M405.332 192H234.668V21.332C234.668 9.559 225.109 0 213.332 0 201.559 0 192 9.559 192 21.332V192H21.332C9.559 192 0 201.559 0 213.332c0 11.777 9.559 21.336 21.332 21.336H192v170.664c0 11.777 9.559 21.336 21.332 21.336 11.777 0 21.336-9.559 21.336-21.336V234.668h170.664c11.777 0 21.336-9.559 21.336-21.336 0-11.773-9.559-21.332-21.336-21.332zm0 0">
        </path>
    </symbol>
    <symbol xmlns="http://www.w3.org/2000/svg" viewBox="0 0 512 512" id="pin">
        <path
            d="M256 0C161.896 0 85.333 76.563 85.333 170.667c0 28.25 7.063 56.26 20.49 81.104L246.667 506.5c1.875 3.396 5.448 5.5 9.333 5.5s7.458-2.104 9.333-5.5l140.896-254.813c13.375-24.76 20.438-52.771 20.438-81.021C426.667 76.563 350.104 0 256 0zm131.51 241.448L256 479.292l-131.458-237.75c-11.698-21.646-17.875-46.156-17.875-70.875 0-82.344 66.99-149.333 149.333-149.333s149.333 66.99 149.333 149.333c0 24.718-6.177 49.229-17.823 70.781z">
        </path>
        <path
            d="M256 85.333c-47.052 0-85.333 38.281-85.333 85.333C170.667 217.719 208.948 256 256 256s85.333-38.281 85.333-85.333S303.052 85.333 256 85.333zm0 149.334c-35.292 0-64-28.708-64-64s28.708-64 64-64 64 28.708 64 64c0 35.291-28.708 64-64 64z">
        </path>
    </symbol>
    <symbol xmlns="http://www.w3.org/2000/svg" viewBox="-42 0 512 512.001" id="account">
        <path
            d="M210.352 246.633c33.882 0 63.218-12.153 87.195-36.13 23.969-23.972 36.125-53.304 36.125-87.19 0-33.876-12.152-63.211-36.129-87.192C273.566 12.152 244.23 0 210.352 0c-33.887 0-63.22 12.152-87.192 36.125s-36.129 53.309-36.129 87.188c0 33.886 12.156 63.222 36.13 87.195 23.98 23.969 53.316 36.125 87.19 36.125zM144.379 57.34c18.394-18.395 39.973-27.336 65.973-27.336 25.996 0 47.578 8.941 65.976 27.336 18.395 18.398 27.34 39.98 27.34 65.972 0 26-8.945 47.579-27.34 65.977-18.398 18.399-39.98 27.34-65.976 27.34-25.993 0-47.57-8.945-65.973-27.34-18.399-18.394-27.344-39.976-27.344-65.976 0-25.993 8.945-47.575 27.344-65.973zm281.75 336.363c-.692-9.976-2.09-20.86-4.149-32.351-2.078-11.579-4.753-22.524-7.957-32.528-3.312-10.34-7.808-20.55-13.375-30.336-5.77-10.156-12.55-19-20.16-26.277-7.957-7.613-17.699-13.734-28.965-18.2-11.226-4.44-23.668-6.69-36.976-6.69-5.227 0-10.281 2.144-20.043 8.5a2711.03 2711.03 0 01-20.879 13.46c-6.707 4.274-15.793 8.278-27.016 11.903-10.949 3.543-22.066 5.34-33.043 5.34-10.968 0-22.086-1.797-33.043-5.34-11.21-3.622-20.3-7.625-26.996-11.899a2853.13 2853.13 0 01-20.898-13.469c-9.754-6.355-14.809-8.5-20.035-8.5-13.313 0-25.75 2.254-36.973 6.7-11.258 4.457-21.004 10.578-28.969 18.199-7.609 7.281-14.39 16.12-20.156 26.273-5.558 9.785-10.058 19.992-13.371 30.34-3.2 10.004-5.875 20.945-7.953 32.524-2.063 11.476-3.457 22.363-4.149 32.363C.343 403.492 0 413.668 0 423.949c0 26.727 8.496 48.363 25.25 64.32C41.797 504.017 63.688 512 90.316 512h246.532c26.62 0 48.511-7.984 65.062-23.73 16.758-15.946 25.254-37.59 25.254-64.325-.004-10.316-.351-20.492-1.035-30.242zm-44.906 72.828c-10.934 10.406-25.45 15.465-44.38 15.465H90.317c-18.933 0-33.449-5.059-44.379-15.46-10.722-10.208-15.933-24.141-15.933-42.587 0-9.594.316-19.066.95-28.16.616-8.922 1.878-18.723 3.75-29.137 1.847-10.285 4.198-19.937 6.995-28.675 2.684-8.38 6.344-16.676 10.883-24.668 4.332-7.618 9.316-14.153 14.816-19.418 5.145-4.926 11.63-8.957 19.27-11.98 7.066-2.798 15.008-4.329 23.629-4.56 1.05.56 2.922 1.626 5.953 3.602 6.168 4.02 13.277 8.606 21.137 13.625 8.86 5.649 20.273 10.75 33.91 15.152 13.941 4.508 28.16 6.797 42.273 6.797 14.114 0 28.336-2.289 42.27-6.793 13.648-4.41 25.058-9.507 33.93-15.164 8.043-5.14 14.953-9.593 21.12-13.617 3.032-1.973 4.903-3.043 5.954-3.601 8.625.23 16.566 1.761 23.636 4.558 7.637 3.024 14.122 7.059 19.266 11.98 5.5 5.262 10.484 11.798 14.816 19.423 4.543 7.988 8.208 16.289 10.887 24.66 2.801 8.75 5.156 18.398 7 28.675 1.867 10.434 3.133 20.239 3.75 29.145v.008c.637 9.058.957 18.527.961 28.148-.004 18.45-5.215 32.38-15.937 42.582zm0 0">
        </path>
    </symbol>
    <symbol xmlns="http://www.w3.org/2000/svg" viewBox="0 0 512 512" id="tick">
        <path
            d="M504.502 75.496c-9.997-9.998-26.205-9.998-36.204 0L161.594 382.203 43.702 264.311c-9.997-9.998-26.205-9.997-36.204 0-9.998 9.997-9.998 26.205 0 36.203l135.994 135.992c9.994 9.997 26.214 9.99 36.204 0L504.502 111.7c9.998-9.997 9.997-26.206 0-36.204z">
        </path>
    </symbol>
    <symbol xmlns="http://www.w3.org/2000/svg" viewBox="0 0 192.904 192.904" id="search">
        <path
            d="M190.707 180.101l-47.078-47.077c11.702-14.072 18.752-32.142 18.752-51.831C162.381 36.423 125.959 0 81.191 0 36.422 0 0 36.423 0 81.193c0 44.767 36.422 81.187 81.191 81.187 19.688 0 37.759-7.049 51.831-18.751l47.079 47.078a7.474 7.474 0 005.303 2.197 7.498 7.498 0 005.303-12.803zM15 81.193C15 44.694 44.693 15 81.191 15c36.497 0 66.189 29.694 66.189 66.193 0 36.496-29.692 66.187-66.189 66.187C44.693 147.38 15 117.689 15 81.193z">
        </path>
    </symbol>
    <symbol xmlns="http://www.w3.org/2000/svg" viewBox="0 0 512.002 512.002" id="rarr">
        <path
            d="M388.425 241.951L151.609 5.79c-7.759-7.733-20.321-7.72-28.067.04-7.74 7.759-7.72 20.328.04 28.067l222.72 222.105-222.728 222.104c-7.759 7.74-7.779 20.301-.04 28.061a19.8 19.8 0 0014.057 5.835 19.79 19.79 0 0014.017-5.795l236.817-236.155c3.737-3.718 5.834-8.778 5.834-14.05s-2.103-10.326-5.834-14.051z">
        </path>
    </symbol>
    <symbol xmlns="http://www.w3.org/2000/svg" viewBox="0 0 443.52 443.52" id="larr">
        <path
            d="M143.492 221.863L336.226 29.129c6.663-6.664 6.663-17.468 0-24.132-6.665-6.662-17.468-6.662-24.132 0l-204.8 204.8c-6.662 6.664-6.662 17.468 0 24.132l204.8 204.8c6.78 6.548 17.584 6.36 24.132-.42 6.387-6.614 6.387-17.099 0-23.712L143.492 221.863z">
        </path>
    </symbol>
    <symbol xmlns="http://www.w3.org/2000/svg" viewBox="0 0 512 512" id="subscribe">
        <path
            d="M255.871 0c-29.455 0-53.333 23.878-53.333 53.333.05 2.559.286 5.112.704 7.637a10.668 10.668 0 0010.667 9.131 10.893 10.893 0 003.008-.427 137.641 137.641 0 0178.101 0c3.031.75 6.237.168 8.811-1.6a11.393 11.393 0 004.843-7.765c.383-2.314.597-4.652.64-6.997C309.3 23.857 285.412-.012 255.957 0h-.086z"
            fill="#f57c00"></path>
        <path
            d="M319.871 426.667h-128c-5.891 0-10.667 4.776-10.667 10.667 0 41.237 33.429 74.667 74.667 74.667s74.667-33.429 74.667-74.667c0-5.892-4.775-10.667-10.667-10.667z"
            fill="#ffa000"></path>
        <path
            d="M454.719 388.459c-3.371-7.445-7.616-15.765-12.309-24.939a347.303 347.303 0 01-47.872-160.853c0-84.544-44.8-146.581-114.091-158.037a136.384 136.384 0 00-112.256 32.725 149.782 149.782 0 00-51.2 117.76 340.63 340.63 0 01-47.616 168.704c-4.587 9.045-8.768 17.28-12.096 24.619-9.614 21.203-.22 46.186 20.984 55.801a42.142 42.142 0 0017.608 3.762h320.341c23.281.07 42.211-18.747 42.28-42.028a42.156 42.156 0 00-3.753-17.513h-.02z"
            fill="#ffc107"></path>
        <path
            d="M113.642 405.333c-5.891 0-10.667-4.776-10.666-10.667 0-1.659.387-3.295 1.13-4.778l3.435-6.741a390.827 390.827 0 0052.331-180.48c0-54.123 25.152-117.333 96-117.333 5.891 0 10.667 4.776 10.667 10.667s-4.776 10.667-10.667 10.667c-69.291 0-74.667 73.472-74.667 96a408.948 408.948 0 01-54.677 190.187l-3.328 6.592a10.669 10.669 0 01-9.558 5.886z"
            fill="#ffd54f"></path>
    </symbol>


    <symbol xmlns="http://www.w3.org/2000/svg" viewBox="-31 0 512 512" id="playlist">
        <path
            d="M394.957 512H55.043C24.691 512 0 487.309 0 456.957V55.043C0 24.691 24.691 0 55.043 0h339.914C425.309 0 450 24.691 450 55.043v401.918C450 487.309 425.309 512 394.957 512zm0 0"
            fill="#fed32d"></path>
        <path d="M394.96 0H225v512h169.96c30.349 0 55.04-24.691 55.04-55.04V55.04C450 24.69 425.309 0 394.96 0zm0 0"
            fill="#fdc334"></path>
        <path
            d="M255 121.188H135c-8.285 0-15-6.715-15-15 0-8.282 6.715-15 15-15h120c8.285 0 15 6.718 15 15 0 8.285-6.715 15-15 15zm0 0"
            fill="#fe9e24"></path>
        <path d="M270 106.191c0 8.278-6.719 15-15 15h-30v-30h30c8.281 0 15 6.707 15 15zm0 0" fill="#fd7b29"></path>
        <path
            d="M255 181.313H135c-8.285 0-15-6.715-15-15 0-8.282 6.715-15 15-15h120c8.285 0 15 6.718 15 15 0 8.285-6.715 15-15 15zm0 0"
            fill="#fe9e24"></path>
        <path d="M270 166.309c0 8.293-6.719 15-15 15h-30v-30h30c8.281 0 15 6.722 15 15zm0 0" fill="#fd7b29"></path>
        <path
            d="M255 241.438H135c-8.285 0-15-6.715-15-15s6.715-15 15-15h120c8.285 0 15 6.714 15 15s-6.715 15-15 15zm0 0"
            fill="#fe9e24"></path>
        <path d="M270 226.441c0 8.278-6.719 15-15 15h-30v-30h30c8.281 0 15 6.707 15 15zm0 0" fill="#fd7b29"></path>
        <path
            d="M90 106.188c0-8.301-6.715-15.032-15-15.032s-15 6.73-15 15.031c0 8.305 6.715 15.032 15 15.032s15-6.727 15-15.031zm0 60.125c0-8.301-6.715-15.032-15-15.032s-15 6.73-15 15.031c0 8.305 6.715 15.032 15 15.032s15-6.727 15-15.031zm0 60.125c0-8.301-6.715-15.032-15-15.032s-15 6.73-15 15.031c0 8.305 6.715 15.032 15 15.032s15-6.727 15-15.031zm0 0"
            fill="#fe9e24"></path>
        <path
            d="M361.516 114.7l-39.278-21.65C312.266 87.556 300 94.782 300 106.189v165.375h-74.938C184.02 271.563 150 304.84 150 346.75c0 41.39 33.672 75.063 75.063 75.063h29.875c41.257 0 75.062-33.516 75.062-75.125V131.585l17.035 9.39C355.031 145.38 360 153.806 360 162.958v63.48c0 8.286 6.715 15 15 15s15-6.714 15-15v-63.48c0-20.082-10.914-38.574-28.484-48.258zm0 0"
            fill="#db166c"></path>
        <path
            d="M390 162.96v63.481c0 8.278-6.719 15-15 15s-15-6.722-15-15v-63.48c0-9.16-4.969-17.582-12.96-21.992l-17.04-9.39V346.75c0 41.39-33.672 75.059-75.059 75.059H225v-150.25h75V106.19c0-11.402 12.238-18.648 22.238-13.14l39.282 21.648c17.57 9.68 28.48 28.172 28.48 48.262zm0 0"
            fill="#bf0c4c"></path>
    </symbol>
    <symbol xmlns="http://www.w3.org/2000/svg" viewBox="0 0 511.147 511.147" id="youtube">
        <path
            d="M506.027 147.2c0-1.707-5.12-39.253-21.333-57.173-19.627-21.333-40.96-23.893-52.053-24.747h-3.413c-69.12-5.12-172.373-5.973-174.08-5.973-.853 0-104.96.853-173.227 7.68h-2.56C67.413 67.84 46.08 70.4 27.307 91.733 10.24 109.653 5.12 148.053 5.12 149.76c0 0-5.12 43.52-5.12 87.04v40.107c0 42.667 5.12 86.187 5.12 87.04 0 1.707 5.12 39.253 21.333 57.173 17.92 20.48 39.253 23.04 52.907 24.747 2.56 0 4.267 0 6.827.853 39.253 3.413 163.84 5.12 168.96 5.12.853 0 104.96 0 174.08-7.68h2.56c11.947-.853 33.28-3.413 52.053-24.747 17.067-17.92 22.187-56.32 22.187-58.027 0 0 5.12-43.52 5.12-87.04V234.24c0-42.667-5.12-86.187-5.12-87.04zM494.08 276.053c0 42.667-5.12 85.333-5.12 85.333-1.707 9.387-6.827 36.693-17.92 48.64-14.507 17.067-31.573 18.773-40.96 19.627h-2.56c-68.267 5.12-171.52 5.12-172.373 5.12s-128.853-1.707-166.4-5.973c-2.56 0-5.12-.853-7.68-.853-11.947-.853-29.013-3.413-42.667-18.773-10.24-11.093-16.213-38.4-17.067-47.787 0-.853-5.12-43.52-5.12-85.333v-40.107c0-42.667 5.12-85.333 5.12-85.333.853-9.387 6.827-36.693 17.067-48.64C53.76 84.907 69.973 83.2 80.213 82.347h2.56c68.267-5.12 171.52-5.973 172.373-5.973s104.107.853 172.373 5.973h3.413c9.387.853 26.453 2.56 40.96 19.627 10.24 11.947 15.36 39.253 17.067 48.64.853 1.707 5.12 44.373 5.12 85.333v40.106z">
        </path>
        <path
            d="M361.813 256.427l-162.133-94.72c-2.56-1.707-5.973-1.707-8.533 0s-4.267 4.267-4.267 7.68V354.56c0 3.413 1.707 5.973 4.267 7.68 1.707.853 2.56.853 4.267.853s2.56 0 4.267-.853l162.133-90.453c2.56-1.707 4.267-4.267 4.267-7.68s-1.708-5.974-4.268-7.68zm-157.866 83.626v-156.16l136.533 80.213-136.533 75.947z">
        </path>
    </symbol>

    <symbol xmlns="http://www.w3.org/2000/svg" xmlns:xlink="http://www.w3.org/1999/xlink" viewBox="0 0 400 300"
        id="Startup">
        <defs>
            <linearGradient id="a" x1="288.7" y1="224.08" x2="312.29" y2="196.71" gradientUnits="userSpaceOnUse">
                <stop offset="0" stop-color="#297600"></stop>
                <stop offset=".99" stop-color="#294900"></stop>
            </linearGradient>
            <linearGradient id="b" x1="84.34" y1="236.42" x2="107.93" y2="209.05" xlink:href="#a"></linearGradient>
            <linearGradient id="c" x1="133.31" y1="241.81" x2="182.57" y2="184.65" xlink:href="#a"></linearGradient>
            <linearGradient id="d" x1="21.14" y1="207.45" x2="44.73" y2="180.08" xlink:href="#a"></linearGradient>
        </defs>

        <path
            d="M21.33 166.12l156.22-88.91a25.05 25.05 0 0125 .13l161 93.75a13.92 13.92 0 01-.07 24.11l-150.25 86.27a33.57 33.57 0 01-33.46 0L21.28 190.29a13.92 13.92 0 01.05-24.17z"
            fill="#297600"></path>
        <path
            d="M295.68 203.64c1.3-.22 2.35-.19 2.86.4-.91 9 5.56 4.6 8.4 6.87l2.44-1q7.4-7.41 14.88-14.72c-1.71-1.23-3.36-2.54-5-3.84a157.58 157.58 0 00-23.58 12.29z"
            opacity=".48" fill="url(#a)"></path>
        <path
            d="M101.51 222.34c10.41-4.36 25-10.37 26.27-11.11l-.37-.64a4.67 4.67 0 01-3-.5c-4-2.08-7.54-5-11.09-7.73a3.37 3.37 0 01-1-1.29l-7.81.12-24.57 15.11c1.47 2.67 11.26-3.08 13.17-.84-.91 9.01 5.56 4.61 8.4 6.88z"
            opacity=".48" fill="url(#b)"></path>
        <path d="M154.84 240.39l-55-24.7L172 174.1l58.56 6.34-5.4 19.82c-5.32 3.2-65.16 36.74-70.32 40.13z"
            opacity=".48" fill="url(#c)"></path>
        <path
            d="M182.13 189.38l-34.81-20.46s8.8-6.73 13.74-4.38 5.66 3.25 5.66 3.25 3.58-7.4 9.81-5.83 7.73 5.83 7.73 5.83 2.7-7 8.8-3.25a14.44 14.44 0 016.62 10.46l-.68 24.13zm44.17 4.06L261.11 173s-8.8-6.73-13.74-4.38-5.66 3.25-5.66 3.25-3.58-7.4-9.81-5.83-7.73 5.83-7.73 5.83-2.7-7-8.8-3.25a14.44 14.44 0 00-6.61 10.45l.67 24.13z"
            fill="#fff"></path>
        <path d="M220.56 136.54s12.83 13.25 12.81 20.78 0 32 0 32H228s-11-25.21-18-33.49 10.56-19.29 10.56-19.29z"
            fill="#68e1fd"></path>
        <path d="M220.56 136.54s12.83 13.25 12.81 20.78 0 32 0 32H228s-11-25.21-18-33.49 10.56-19.29 10.56-19.29z"
            fill="#363636" opacity=".61"></path>
        <path d="M188.39 136.54s-12.83 13.25-12.81 20.78 0 32 0 32h5.37s11-25.21 18-33.49-10.56-19.29-10.56-19.29z"
            fill="#68e1fd"></path>
        <path d="M188.39 136.54s-12.83 13.25-12.81 20.78 0 32 0 32h5.37s11-25.21 18-33.49-10.56-19.29-10.56-19.29z"
            fill="#363636" opacity=".61"></path>
        <path d="M217.07 48a111.41 111.41 0 00-12.24-23.88s-6.32 8.55-12.16 24.07c7.24 3.9 16.33 2.65 24.4-.19z"
            fill="#68e1fd"></path>
        <ellipse cx="204.48" cy="101.83" rx="13.04" ry="11.48" fill="#68e1fd"></ellipse>
        <path
            d="M204.82 24.12s-38.66 52.23-12.94 133.07c0 0 2.91 17.26 12.08 16.9S220.22 155 220.22 155s21.03-77.43-15.4-130.88z"
            fill="#68e1fd"></path>
        <path d="M217.07 48a111.41 111.41 0 00-12.24-23.88s-6.32 8.55-12.16 24.07c7.24 3.9 16.33 2.65 24.4-.19z"
            fill="#363636" opacity=".61"></path>
        <ellipse cx="204.48" cy="101.83" rx="13.04" ry="11.48" fill="#363636" opacity=".61"></ellipse>
        <path
            d="M191.89 157.19s-8.84 9.13-8.83 14.32 0 22.06 0 22.06h3.7s7.57-17.37 12.4-23.08-7.27-13.3-7.27-13.3zm25.18 0s8.84 9.13 8.83 14.32 0 22.06 0 22.06h-3.7s-7.57-17.37-12.4-23.08 7.27-13.3 7.27-13.3z"
            fill="#68e1fd"></path>
        <path
            d="M191.89 157.19s-8.84 9.13-8.83 14.32 0 22.06 0 22.06h3.7s7.57-17.37 12.4-23.08-7.27-13.3-7.27-13.3zm25.18 0s8.84 9.13 8.83 14.32 0 22.06 0 22.06h-3.7s-7.57-17.37-12.4-23.08 7.27-13.3 7.27-13.3z"
            fill="#363636" opacity=".29"></path>
        <path
            d="M200.55 172.35s-15 2.61-17.52 8.83-.65 10.4-.65 10.4-9.49.28-11.19 6.86 0 8.63 0 8.63-21.18.84-20.58 22.24v6.86l49.94-28.83zm7.16-1.96s15 2.61 17.52 8.83.65 10.4.65 10.4 9.49.28 11.19 6.86 0 8.63 0 8.63 21.18.84 20.58 22.24v6.86l-49.94-28.83z"
            fill="#fff"></path>
        <path fill="#d1d1d1" d="M155.79 132.87v66.38l-15.74 9.04-.43-66.03 16.17-9.39z"></path>
        <path fill="#bcbcbc" d="M126.53 134.05l-.54 66.74 14.06 7.5-.43-66.03-13.09-8.21z"></path>
        <path fill="#efefef" d="M126.53 134.05l13.09 8.21 16.17-9.39-13.29-8.1-15.97 9.28z"></path>
        <path fill="#ba3602" d="M135.71 131.41v4.48l8.97-3.36v-5.42"></path>
        <ellipse cx="140.19" cy="134.11" rx="4.86" ry="2.4" transform="rotate(-25.67 140.201 134.116)" fill="#ba3602">
        </ellipse>
        <ellipse cx="140.18" cy="129.21" rx="4.97" ry="2.45" transform="rotate(-25.67 140.186 129.218)" fill="#dd5112">
        </ellipse>
        <path d="M114.72 99.11s.6-2.25 1.09-2.59 6.19 1.53 6.6 2.59-.41 3.5-.41 3.5" fill="#dd5112"></path>
        <path
            d="M135.06 126.38a22.56 22.56 0 012.76.73c.57.29 5.74-1.29 6.48-.73s-1.2 2.53-1.53 2.92-7.05 1.52-7.05 1.52l-2.69-.63.45-2.68"
            fill="#efae73"></path>
        <path d="M134.85 129.21h3s4.07-1.79 4.73-1.7 2.88.48 2.13 2.18-5.92 3.17-5.92 3.17h-5.3" fill="#fcbf81"></path>
        <path d="M137.82 129.21s2.56-3 3.34-2.35-1.53 2.35-1.53 2.35" fill="#fcbf81"></path>
        <path d="M120.95 116.32c.69.83 13.34 8.07 14.28 8.45s-2.22 5.42-2.22 5.42L120.95 126" fill="#ba3602"></path>
        <path
            d="M112.32 205.12l3.63 1.64a2.07 2.07 0 001.4 1.5.83.83 0 00.5.33 9.83 9.83 0 004.5-.36c1.84-.42 9-2.53 6.7 2.33-1.35.79-2.84 1.45-4.21 2.15-.77.39-1.54.77-2.33 1.13a4.43 4.43 0 01-1.36.5c-1 .07-3.4-.88-3.48-.63s-.46 2.16-.46 2.16-6.56 1.92-6.5-2.37c.02-.5 1.61-8.38 1.61-8.38zM109 199s6.52-2.29 8-2.29 4 .74 1.58 3.34c0 0-7 3.8-7.86 3.87s-3-.77-3-.55-.4 1.88-.4 1.88-5.71 1.67-5.65-2.06c0-.49 1.39-7.29 1.39-7.29"
            fill="#e55600"></path>
        <path
            d="M109.79 166.42c.23-12.65.82-25.34-.84-37.92.14-3.22-2.1-1.34-1.86-2.6 2-10.26 16.05 3.27 16.05 3.27.57.55.39 3.73.45 4.46q.54 6 .79 12.11c.87 20.41-1.67 40.45-4.32 60.64-3.46 3-5.64 3.83-10.63 1.3 0-13.35.12-26.71.34-40.06l.02-1.2z"
            fill="#68e1fd"></path>
        <path
            d="M101.42 188.67c.33-5 .94-10 1.37-15 .66-7.62.47-15.25.57-22.88 1-9.46 1.91-21.48 1.91-21.48l7.83 2.18s5.09 65.94-2.72 68.75-9-2.28-9-2.28-.02-3.9.04-9.29z"
            fill="#68e1fd"></path>
        <path
            d="M109.7 134.78a.57.57 0 011.08.36c-3.72 11.38 2.44 23.14 1.25 34.75-.63 6.11-1.71 12.13-2.07 18.28a146.63 146.63 0 00.2 19.6c.06.73-1.08.67-1.14-.06a146.63 146.63 0 01-.2-19.6c.38-6.48 1.64-12.84 2.16-19.3.95-11.41-4.98-22.81-1.28-34.03z"
            fill="#68e1fd"></path>
        <path
            d="M124.38 145.73q-.26-6.06-.79-12.11c-.07-.73.12-3.91-.45-4.46 0 0-14.09-13.53-16.05-3.27-.24 1.26 2-.62 1.86 2.6.08.63.16 1.26.23 1.9l-3.91-1.09s-1 12-1.91 21.48c-.1 7.63.1 15.27-.57 22.88-.43 5-1 10-1.37 15-.05 5.39-.06 9.27-.06 9.27s1 4.31 7.32 2.79c.07 2.33.18 4.66.35 7 0 .63.91.76 1.1.3 4.5 2.1 6.63 1.23 9.93-1.64 2.65-20.2 5.19-40.24 4.32-60.65z"
            fill="#363636" opacity=".61"></path>
        <path
            d="M123.34 103.05a6.67 6.67 0 00-2.55-2.32c-2.75-1.49-6-4.25-9.59 1.1a14.46 14.46 0 00-2.17 5.41 138.45 138.45 0 00-2.94 14.62q-.28 2-.47 4c-.07.68-.71 3.12-.28 3.68a10.38 10.38 0 004.55 2.7 34.33 34.33 0 009.67 1.68c.32 0 1.76.07 3.27 0 .78 0 1.32-18.5 1.33-20.24.04-3.34 1.09-7.58-.82-10.63z"
            fill="#dd5112"></path>
        <path d="M125 87.89c.29.24.14 7.94-2.75 11.34s-7.67-3.66-8-7.4 5.27-8.44 10.75-3.94z" fill="#fcbf81"></path>
        <path
            d="M124.55 88.75a3.39 3.39 0 01-3.14 2c-2.17-.17-3.92-.41-4.22.49s3.41 1.42 2.52 3.39a16.11 16.11 0 01-2.33 3.67c-.65.87-4.86-4.64-4.38-10.51s5.68-5.1 5.92-5a5.13 5.13 0 013.76-.57c2.48.55 2.71 1.71 2.71 1.71a3 3 0 013.13 1.87c1.32 2.6-.59 5.37-3.5 5.52z"
            fill="#ffba1c"></path>
        <path
            d="M111.21 106.27a5.29 5.29 0 011.08-1.42c1.46-1.37 4.13-2.13 5.9-.92 3.23 2.2 5 15.85 6.71 16.91s10.33 7.07 10.33 7.07-.9 5.15-2 6.09-11.36-3.66-13.72-5.43a21.43 21.43 0 01-7.46-11c-.95-3.17-2.55-8.04-.84-11.3z"
            fill="#dd5112"></path>
        <path
            d="M121.82 129.89A23.27 23.27 0 01113.2 107c.11-.52-.7-.75-.8-.22a24.14 24.14 0 009 23.85c.43.3.85-.42.42-.74z"
            fill="#ba3602"></path>
        <path d="M108.54 146.79a.42.42 0 00-.83 0q0 30.68 1.42 61.34c0 .53.86.54.83 0q-1.42-30.65-1.42-61.34z"
            fill="#363636"></path>
        <path d="M324.95 195.25V150.9h-9.66v44.74c3.34.97 6.85 1.12 9.66-.39z" fill="#a83f1e"></path>
        <path d="M321.1 151v45.43a9.72 9.72 0 003.85-1.07V151z" fill="#7f2b14"></path>
        <path
            d="M333.56 155c6-.29 13.69-2.45 11.44-9.14-1.33-4-5.42-7.44-8-10.58s-2-5.24-5-8.3c2.49.1 6.1-.37 6.71-2.83.54-2.16-11.07-15.4-16.09-20.77a3.21 3.21 0 00-4.36-.32c-6 4.76-21.25 17.44-19.12 21.09 1.29 2.2 3.89 3 6.21 3.17-5.49 5.51-11.76 12.39-12.39 19.73-.55 6.36 6 7.21 12 6.88-4.19 5.09-15.56 19.6-13 24 1.37 2.32 5.78 3.09 8.39 3.61a83.37 83.37 0 0017.2 1.66 53 53 0 0017.1-2.58 24 24 0 008.34-4.59c2.67-2.51 1.18-5.18-.55-7.7-2.97-4.33-5.92-8.82-8.88-13.33z"
            fill="#77c457"></path>
        <path
            d="M332 127s-7.31-.48-12.4-.34l25.79 21.2s.69-2.46-3.87-7.51A103.77 103.77 0 01332 127zm1.56 28h-15l24.5 21a3.73 3.73 0 001.08-4.84c-1.64-2.77-10.58-16.16-10.58-16.16z"
            fill="#0d5b23"></path>
        <path
            d="M28.11 187c1.3-.22 2.35-.19 2.86.4-.91 9 5.56 4.6 8.4 6.87l2.44-1q7.4-7.41 14.88-14.72c-1.71-1.23-3.36-2.54-5-3.84A157.58 157.58 0 0028.11 187z"
            opacity=".48" fill="url(#d)"></path>
        <path d="M56.69 180.91v-26.83h-5.84v27.06a7.81 7.81 0 005.84-.23z" fill="#a83f1e"></path>
        <path d="M54.37 154.15v27.48a5.88 5.88 0 002.33-.65v-26.83z" fill="#7f2b14"></path>
        <path
            d="M61.9 156.59c3.63-.17 8.28-1.48 6.92-5.53-.8-2.39-3.28-4.5-4.86-6.4s-1.23-3.17-3-5c1.51.06 3.69-.22 4.06-1.71.32-1.31-6.69-9.31-9.74-12.56a1.94 1.94 0 00-2.63-.19c-3.65 2.85-12.85 10.52-11.57 12.73a4.6 4.6 0 003.76 1.92c-3.32 3.33-7.11 7.5-7.49 11.93-.33 3.85 3.6 4.36 7.27 4.16-2.53 3.08-9.41 11.86-7.84 14.52.83 1.41 3.5 1.87 5.08 2.18a50.43 50.43 0 0010.4 1 32.05 32.05 0 0010.35-1.56 14.49 14.49 0 005-2.78c1.61-1.52.71-3.13-.33-4.66-1.8-2.64-3.59-5.35-5.38-8.05z"
            fill="#77c457"></path>
        <path
            d="M61 139.64s-4.42-.29-7.5-.21l15.6 12.82s.42-1.49-2.34-4.54a62.77 62.77 0 01-5.76-8.07zm.9 16.95h-9.07l14.82 12.73a2.26 2.26 0 00.65-2.93c-.99-1.73-6.4-9.8-6.4-9.8z"
            fill="#0d5b23"></path>
    </symbol>
    <symbol xmlns="http://www.w3.org/2000/svg" viewBox="0 0 512 512" id="bible">
        <path
            d="M425.39 358.714l2.556-3.803-4.526.712c-6.575 1.034-13.366 1.427-19.727 1.697a1881.989 1881.989 0 01-81.652 1.774c-44.042 0-88.484-1.558-132.092-4.632l-3.137-.225c-9.82-.701-19.974-1.426-30.044-1.426-5.851 0-11.126.241-16.127.736-30.566 3.017-52.135 16.335-61.318 26.822-10.664 12.167-13.673 29.594-7.317 42.379 7.089 14.252 23.801 22.658 51.092 25.698 2.771.306 5.649.585 8.798.855l2.094.179.076-2.1a821.69 821.69 0 012.665-42.897c.09-1.084.124-2.366.146-3.951.067-3.663.143-7.816 1.505-10.743 1.462-3.154 5.343-3.666 8.182-4.04.553-.074 1.074-.15 1.54-.234a129.958 129.958 0 0123.04-2.065c2.028 0 4.08.049 6.094.145 3.682.186 7.729.821 9.824 4.126 1.317 2.068 1.317 4.535 1.317 6.518l.042 56.894 2.014-.015c4.026-.03 8.073-.09 12.081-.161 37.763-.668 76.244-2.453 114.376-5.305 17.107-1.289 34.33-2.887 50.984-4.433l5.618-.52c6.511-.594 13.116-1.607 19.503-2.587l.711-.109c6.031-.934 12.267-1.899 18.502-2.537 4.199-.438 8.043-.796 11.753-1.096l3.413-.275-1.917-2.838c-7.478-11.071-11.426-24.497-11.118-37.805.28-12.387 4.101-24.4 11.049-34.738z"
            fill="#f0f1fa"></path>
        <path
            d="M457.357 232.734l-.399-1.895c-.794-3.767-1.605-7.613-2.357-11.358l-8.53-42.449c-2.822-14.085-5.651-28.162-8.48-42.244l-1.739-8.654s-.856-4.289-1.104-5.551c-3.585-18.107-6.972-35.21-15.37-51.955-2.973-5.938-4.764-12.321-6.343-18.351l-.676-2.582-2.288 1.375a18.915 18.915 0 01-9.74 2.694 17.93 17.93 0 01-5.933-.989c-6.049-2.104-10.758-7.524-11.996-13.813-.25-1.249-.374-2.512-.5-3.922-.259-2.8-.505-5.445-2.044-7.332-1.35-1.65-3.569-2.522-6.417-2.522-1.211 0-2.5.162-3.73.47-1.71.43-3.431 1.07-4.949 1.634-2.306.856-4.691 1.74-7.24 2.139-.94.146-1.906.22-2.871.22-5.288 0-10.596-2.249-14.198-6.017-3.595-3.756-5.551-8.946-5.366-14.238l.073-2.103-135.936 2.163c-20.255.332-41.799.847-62.947 3.132-6.27.689-11.391 1.535-16.116 2.663l-1.536.366v1.626l-20.93 326.67 2.861-1.02c19.709-7.025 41.21-7.972 59.642-7.972 1.924 0 3.833.011 5.719.028 29.904.26 59.931 1.911 88.969 3.507 30.924 1.699 62.901 3.456 94.915 3.456 6.559 0 13.014-.075 19.185-.224l1.821-.074.127-1.815c.027-.391.054-.78.102-1.195.781-7.548 4.245-14.028 9.502-17.778 4.014-2.862 9.001-4.254 15.247-4.254 4.105 0 8.11.619 10.764 1.084 1.015.18 2.04.369 3.095.563 4.814.888 9.361 1.728 13.853 1.728 2.874 0 5.428-.348 7.807-1.064 9.159-2.76 15.884-12.049 15.643-21.603-.076-3.172-.818-6.287-1.617-9.639-1.161-4.92-2.361-10.008-1.119-15.124 1.691-6.998 8.358-12.48 15.854-13.035l2.221-.165-.401-2.19c-1.407-7.705-3.065-15.509-4.528-22.391zm-112.2-84.605c-.29.34-.684.528-1.185.528l-50.978-1.442 5.858 93.166a1.528 1.528 0 01-1.514 1.617h-53.12c-.417 0-.819-.179-1.116-.503a1.502 1.502 0 01-.391-1.143l7.809-94.675h-52.473c-.446 0-.862-.191-1.145-.523a1.534 1.534 0 01-.351-1.227l5.96-36.741a1.508 1.508 0 011.465-1.27l48.743-.966 2.395-42.283a1.516 1.516 0 011.465-1.432l31.882-.993c.78 0 1.421.636 1.458 1.446l1.922 41.839 44.809 2.884c.69.048 1.263.553 1.392 1.228l7.451 39.222c.087.452-.036.914-.336 1.268zm58.267 304.194c-.548-2.866-.349-6.052.628-10.027l.707-2.879-2.935.423c-2.577.371-5.134.762-7.652 1.153-6.64 1.03-13.506 2.096-20.398 2.725l-6.953.643c-16.284 1.509-33.122 3.069-49.704 4.304a2012.747 2012.747 0 01-114.551 5.315c-4.034.08-8.117.14-12.17.18l-1.99.02.009 1.99c.01 2.217.01 4.423.01 6.641v1.932l1.93.067c15.546.542 31.163.872 46.414.981 8.952.072 16.473.106 23.669.106 35.159 0 63.385-.894 88.832-2.812l8.97-.69c13.822-1.064 29.488-2.27 45.061-2.916l3.249-.134-1.586-2.84a14.306 14.306 0 01-1.54-4.182z"
            fill="#c67045"></path>
        <path
            d="M321.938 356.06c16.214 0 32.627-.213 48.783-.632l2.496-.065-.607-2.421c-.765-3.049-1.269-5.807-1.541-8.429l-.19-1.838-1.848.044c-6.181.149-12.643.225-19.208.225h-.005c-31.932 0-64.043-1.765-95.1-3.473l-.371-.02c-28.929-1.585-58.842-3.224-88.451-3.483a621.925 621.925 0 00-5.661-.027c-22.904 0-49.279 1.584-71.25 13.334-10.728 5.736-20.584 14.339-27.753 24.224-7.861 10.839-11.766 22.137-11.293 32.67l.005.105.016.104c.156 1.035.293 2.08.412 3.127.108.908.245 1.848.443 3.049l.08.393c.027.134.054.267.102.469a.967.967 0 01.031.252v.183l.033.18c1.572 8.512 4.684 15.901 9.251 21.962 14.594 19.339 41.57 23.747 68.554 25.631l4.778.319.044-2.092.04-1.447c.01-.783.029-1.547.06-2.37.01-.537.02-1.074.039-1.602l.07-1.901-1.897-.165a395.93 395.93 0 01-9.232-.915c-28.404-3.158-45.895-12.105-53.471-27.353-6.889-13.846-3.705-32.647 7.745-45.723 15.265-17.45 43.635-25.902 63.293-27.837 5.116-.506 10.493-.753 16.439-.753 10.223 0 20.445.736 30.337 1.448l3.046.21c43.5 3.064 87.837 4.617 131.781 4.617z"
            fill="#c67045"></path>
        <path
            d="M87.56 346.601a86.94 86.94 0 015.903-2.873l1.111-.49 21.079-328.847-2.829.959c-9.853 3.34-17.451 8.202-23.23 14.864-8.572 9.894-11.681 23.431-14.354 37.599a1646.412 1646.412 0 00-15.219 96.359 1653.867 1653.867 0 00-12.145 147.28c-.193 5.138-.444 10.419-.686 15.527l-.07 1.506c-.476 10.276-.968 20.902-1.065 31.324-.09 9.428.146 17.695.723 25.272.004.082.012.169.023.265l.485-.031 3.361.659c6.315-15.481 20.459-30.567 36.913-39.373z"
            fill="#c67045"></path>
        <path
            d="M185.387 452.678l-.03-58.43c0-1.677 0-3.578-.852-4.903-1.376-2.165-4.684-2.593-7.414-2.725a126.797 126.797 0 00-28.451 1.88c-.518.094-1.073.168-1.666.244l-.109.015c-3.377.463-5.096.927-5.729 2.299-1.11 2.365-1.176 6.342-1.229 9.53l-.007.355c-.026 1.371-.051 2.665-.156 3.807a808.674 808.674 0 00-2.797 46.424 839.902 839.902 0 00-.301 12.41l-.02 1.172a784.58 784.58 0 00.19 33.957c.04 2.365.313 3.455 1.08 4.203.45.417 1.064.629 1.823.629.774 0 1.567-.222 2.239-.629 1.498-.915 2.598-2.479 3.774-4.272l12.727-19.206a1.52 1.52 0 011.266-.68l.172.007c.562.064 1.05.443 1.247.969a93.757 93.757 0 0012.337 22.685c2.303 3.154 4.21 4.56 6.185 4.56h.029c1.878-.017 3.839-1.593 4.771-3.838.951-2.306.951-4.984.951-7.574l-.02-29.359c0-4.52 0-9.022-.01-13.53z"
            fill="#d34242"></path>
        <path
            d="M462.818 260.418l-1.72.019c-6.374.071-12.498 4.811-13.942 10.789-1.072 4.422 0 8.959 1.138 13.775.782 3.283 1.59 6.679 1.686 10.188.277 10.881-7.378 21.454-17.805 24.594-2.664.799-5.497 1.186-8.662 1.186-4.792 0-9.691-.902-14.434-1.776-1.007-.189-2.014-.37-3.052-.555-2.523-.445-6.326-1.038-10.193-1.038-5.621 0-10.048 1.207-13.536 3.689-4.544 3.241-7.547 8.921-8.244 15.589a5.619 5.619 0 00-.037.415l-.211 2.26 2.27-.077c29.633-1 56.101-3.828 80.915-8.646l.921-.179.451-.823c3.466-6.325 5.8-13.836 6.751-21.72 1.593-13.139.951-27.754-2.021-45.993zm2.133 181.978l-.122-.333c-1.262-3.458-5.496-5.329-12.585-5.563a190.61 190.61 0 00-6.076-.094c-12.024 0-23.76 1.048-33.641 2.073-.777.075-1.555.167-2.332.26l-2.124.248-.366 1.285a2.752 2.752 0 00-.063.278c-1.057 3.679-1.931 7.579-1.247 11.222.589 3.029 2.777 6.563 6.21 7.297l.207.081h.436c4.521-.111 8.279-.163 11.828-.163l2.543.003c1.107.006 2.217.012 3.328.012 10.137 0 20.708-.482 28.757-6.236 3.348-2.395 6.338-6.595 5.247-10.326zm-12.606-103.978l3.905-4.325-5.738 1.016c-22.953 4.062-47.303 6.486-74.44 7.41l-2.162.074.243 2.15c.311 2.749.881 5.614 1.796 9.015l.41 1.526 1.58-.046c8.751-.256 17.375-.573 25.627-.941 16.199-.694 31.71-2.051 43.422-10.913 1.834-1.39 3.636-3.06 5.357-4.966zM382.211 23.8c2.122 2.595 2.419 5.832 2.707 8.964l.012.128c.11 1.222.215 2.375.438 3.49 1.024 5.165 5.051 9.802 10.027 11.541 1.546.536 3.198.807 4.911.807 3.685 0 7.328-1.284 10.017-3.526l.119-.074.992-.992-.302-1.117c-2.547-9.425-5.74-19.257-14.192-26.783-11.085-9.856-26.91-11.215-42.361-11.215-1.93 0-3.86.02-5.813.051l-10.531.17-.104 1.859c-.253 4.571 1.434 9.219 4.511 12.432 3.037 3.18 7.535 5.079 12.034 5.079.808 0 1.612-.062 2.383-.183 2.288-.348 4.507-1.18 6.646-1.982 1.691-.628 3.44-1.278 5.278-1.735a18.364 18.364 0 014.381-.543c2.684 0 6.397.629 8.847 3.629zm-90.792 120.344l50.749 1.43-6.873-36.216-45.002-2.9a1.518 1.518 0 01-1.417-1.446l-1.921-41.699-28.891.898-2.403 42.302a1.52 1.52 0 01-1.483 1.431l-48.878.973-5.473 33.737h52.331a1.515 1.515 0 011.517 1.635l-7.809 94.676h49.862l-5.854-93.213c-.026-.434.122-.84.429-1.155a1.517 1.517 0 011.116-.453z"
            fill="#ffbf48"></path>
        <path
            d="M262.79 63.974c-.767-1.402-3.156-1.531-3.886 0-2.7 5.665-1.544 13.557-1.726 19.725-.221 7.5-.66 14.996-1.222 22.478-.381 5.079 7.568 5.071 7.922 0a351.96 351.96 0 00.856-22.478c.036-6.116 1.06-14.232-1.944-19.725zm32.018 166.908c-4.308-1.306-8.61-2.631-12.903-3.987-4.336-1.37-9.288-2.34-12.295-6.025-3.19-3.909-5.366-9.241-6.823-14.621-.253-20.574-.467-41.153-.987-61.717-.104-4.126-1.069-8.335-5.713-9.336-5.933-1.279-12.728.569-18.84-.158-12.305-1.464-24.704-10.779-22.586-24.525.736-4.778-5.559-7.07-7.558-2.994-.884.286-1.59.98-1.753 2.17a261.288 261.288 0 00-1.006 8.527 135.539 135.539 0 00-2.578 20.432c-.155 3.05 3.489 4.919 5.992 3.439.032-.019.061-.04.093-.059.243.066.484.134.751.187 6.806 1.34 14.62.611 21.553.84l8.037.265c1.985.159 3.978.229 5.969.222.16-.001.321-.007.481-.009l5.881.194c1.985 10.863 1.394 22.36 1.193 33.309a497.215 497.215 0 01-2.204 38.409 513.1 513.1 0 01-.925 8.833c-.165 1.453-.489 3.029-.671 4.597-.234.159-.46.345-.668.58-1.152 1.294-2.156 2.664-3.162 4.074-2.563 3.597 2.332 7.727 5.778 5.778a35.478 35.478 0 002.638-1.678c1.126.37 2.362.579 3.606.721 12.466 1.419 25.078 1.553 37.589.73 4.62-.304 5.762-6.788 1.111-8.198zm40.589-92.626c-3.761-.39-7.656.463-11.464.483-3.843.021-7.681-.202-11.522-.31-6.717-.189-15.141-1.495-21.552.828-1.479.536-2.215 2.921-.487 3.727 6.684 3.118 15.746 2.543 22.994 2.963 7.484.434 16.797 1.989 23.745-1.358 3.353-1.614 1.28-6.022-1.714-6.333zm73.626-97.366c-3.941-.159-8.422.774-11.621-2.142-2.648-2.413-3.54-6.881-4.866-10.061-2.157-5.176-5.453-13.021-10.887-15.532-6.033-2.786-13.735.659-19.711 2.066-8.592 2.023-15.322-.385-18.981-8.765-.924-2.117-3.767-.768-3.931 1.065-.651 7.286 4.094 13.247 11.025 15.36 3.75 1.143 7.679.847 11.484.158 4.607-.835 9.729-3.343 14.444-3.121 7.87.371 10.013 15.843 13.46 21.395 4.392 7.074 12.922 8.497 20.574 6.896 4.253-.889 3.069-7.155-.99-7.319zm50.12 276.728c-8.582 9.415-22.168 10.772-34.096 12.338-14.685 1.927-29.503 3.152-44.313 3.436-3.249.063-5.361 4.619-3.041 6.781-.595.473-1.09 1.162-1.396 2.098a10.553 10.553 0 00-.37 1.554c-1.083.782-1.042 2.354-.26 3.423-.039.052-.089.092-.124.147-.499.646-.926 1.559-.85 2.4.085.951.191 1.6.692 2.432.58.963 1.502 1.714 2.594 2.01.846.23 1.832.216 2.706-.068.587.429 1.28.7 2.048.701 1.246.54 2.582.913 3.958 1.069 4.004.454 8.173-.318 12.157-.724l15.595-1.589c8.439-.86 17.631-.956 25.633-4.074 3.439-1.34 6.394-3.306 9.015-5.665a95.31 95.31 0 003.993-1.592c1.824-.776 2.221-2.863 1.656-4.613a81.029 81.029 0 003.019-4.204 3.333 3.333 0 00.437-2.932c2.465-2.591 4.733-5.402 6.936-8.309 2.617-3.451-3.099-7.789-5.989-4.619zm-.929 128.387c-8.014 1.61-16.01 3.054-24.171 3.679-3.773.289-7.554.446-11.339.468-2.771.016-7.143.654-10.062.078-.993-.651-2.323-.611-3.401.311l-.344.294c-.759.649-1.122 2.019-.782 2.958 1.055 2.907 3.176 3.38 6.081 3.721 5.313.624 10.736.504 16.07.275 10.086-.434 20.255-1.681 30.041-4.191 4.949-1.268 2.835-8.583-2.093-7.593z"
            fill="#ef9737"></path>
        <path
            d="M67.846 92.376C59.22 147.095 54.16 202.306 49.107 257.47c-4.226 46.133-8.422 92.984.21 138.499 2.965-22.353 20.633-40.682 41.147-50.042s43.613-11.135 66.159-11.512c68.106-1.139 136.023 9.191 204.127 7.953 3.319-.06 6.886-.232 9.515-2.258 5.678-4.375 2.455-14.352-3.948-17.575s-14.031-1.932-21.121-.879c-29.746 4.419-60.592 3.193-89.232-5.979-28.64-9.171-54.97-26.564-72.746-50.821-11.323-15.451-18.981-33.259-25.614-51.229a559.977 559.977 0 01-28.266-109.658c-4.636-30.492-6.644-62.293 2.874-91.63.001-.002-26.325 8.065-29.193 9.344-5.726 2.553-11.633 4.428-15.957 9.196-13.606 15.001-16.21 42.43-19.216 61.497zM378.017 439.99c9.734-.832 19.591-1.66 29.227-.046l-.614 16.172c-.187 4.921-82.859 10.452-91.027 10.948a778.072 778.072 0 01-94.051.021c-9.802-.592-31.389 2.595-33.238-10.822 62.887-7.52 126.586-10.879 189.703-16.273z"
            fill="#b25932"></path>
        <path
            d="M384.584 379.4c-18.002-1.198-36.288-.107-54.341-.111-17.809-.004-35.62-.214-53.428-.414-35.932-.402-71.881-1.2-107.809-.145-9.873.29-19.752.671-29.61 1.299-9.622.612-20.99.715-30.005 4.365-1.36.55-1.788 2.845 0 3.209 8.386 1.708 17.551.453 26.06.156 8.882-.309 17.756-.788 26.642-1.021 18.114-.475 36.241-.516 54.36-.37 36.279.291 72.563 1.593 108.845.966 19.813-.342 40.317-.237 59.822-3.975 2.346-.449 1.613-3.816-.536-3.959zm-48.128 26.307c-24.77-3.127-50.444-2.647-75.372-2.215-12.232.212-24.452.696-36.668 1.357-11.993.649-25.787.312-37.262 4.154-2.054.688-2.527 4.225 0 4.656 11.66 1.986 24.512.021 36.271-.552a3218.17 3218.17 0 0137.659-1.61c25.063-.928 50.378-.451 75.372-2.416 2.207-.173 2.127-3.105 0-3.374zm38.35 12.202c-10.45-1.217-21.224-.227-31.704.176-10.241.394-20.484.858-30.714 1.48-20.808 1.264-41.604 3.77-62.417 4.668-1.17.051-1.182 1.857 0 1.828 21.098-.514 42.291.587 63.408.447 10.568-.07 21.14-.338 31.704-.645 10.135-.294 20.526-.154 30.526-2.015 3.635-.676 2.294-5.578-.803-5.939zm-237.367-4.894c-3.662-2.219-8.664-1.762-12.854-1.877-4.624-.128-9.268.063-13.892.129-4.637.066-9.262.117-13.892.396-5.394.325-10.528 1.508-15.876 2.094-.965.105-.963 1.39 0 1.5 5.35.61 10.479 1.827 15.876 2.167 4.628.291 9.256.372 13.892.46 4.62.088 9.271.316 13.892.193 4.199-.112 9.173.385 12.854-1.822 1.218-.733 1.209-2.507 0-3.24zm-12.627 14.847c-9.378-1.799-18.818.552-28.237.446-.786-.009-.783 1.195 0 1.219 9.439.283 18.769 2.998 28.237 1.59 1.643-.245 1.578-2.953 0-3.255zm95.946-60.859c-12.794-3.059-27.204-1.339-40.229-.799-13.918.577-27.747 2.479-41.691 2.588-.965.008-.967 1.508 0 1.5 13.931-.11 27.778 1.574 41.691 1.931 13.03.335 27.485 1.837 40.229-1.424 1.855-.474 1.896-3.343 0-3.796zm79.709 24.402c-13.255-.465-26.275-.711-39.532.021-13.249.731-26.316 3.406-39.532 3.977-.48.021-.484.767 0 .75 13.162-.458 26.325 1.195 39.532.893 13.312-.304 26.315-1.568 39.532-3.064 1.614-.181 1.698-2.517 0-2.577zm-71.619 31.325c-13.805.185-29.04-.233-42.26 4.134-1.54.508-1.116 2.479.361 2.67 13.657 1.769 28.264-.921 41.899-2.351 2.785-.292 2.927-4.492 0-4.453zm81.393 9.647c-14.223-.983-28.463-.07-42.655 1.149-14.211 1.221-28.41 3.81-42.655 4.391-.361.015-.363.577 0 .563 14.501-.591 29.127.854 43.647.918 14.151.062 28.285-.3 42.286-2.416 2.753-.418 1.85-4.434-.623-4.605zm97.797-69.445c-20.678-.037-41.347 1.095-61.971 2.521-10.18.704-20.352 1.474-30.519 2.339-10.496.894-20.998 2.701-31.516 3.113-.48.019-.485.757 0 .75 10.491-.146 21.012 1.001 31.516 1.114 10.501.113 21.006.039 31.503-.278 20.614-.623 41.199-1.952 61.629-4.817 2.741-.384 2.006-4.737-.642-4.742z"
            fill="#c0c5d7"></path>
        <path
            d="M452.414 431.5c-6.987-.225-13.967-.043-20.688.344a3.493 3.493 0 00-.582-1.231c-7.904-10.638-12.091-23.793-11.79-37.042s5.082-26.2 13.462-36.468a3.466 3.466 0 00.732-1.671c5.905-1.728 11.453-4.255 16.469-8.05 10.945-8.286 18.079-22.022 20.089-38.678 1.975-16.368.4-32.993-2.395-49.484a3.432 3.432 0 00-.187-1.08c-1.533-8.878-3.398-17.716-5.25-26.45-.923-4.353-1.877-8.854-2.75-13.196l-8.395-41.8c-3.451-17.186-6.901-34.371-10.355-51.551-.371-1.852-.735-3.689-1.096-5.513-3.653-18.458-7.104-35.892-15.807-53.256-3.07-6.132-4.791-12.78-6.612-19.819-3.134-12.107-6.374-24.626-16.977-34.068C386.766.455 367.389-.253 348.691.05L199.147 2.434c-20.295.324-41.907.835-63.408 3.158C104.62 8.97 92.331 19.384 85.794 26.924c-9.388 10.833-12.681 25.08-15.484 39.951a1643.673 1643.673 0 00-15.272 96.663A1659.658 1659.658 0 0042.854 311.27c-.198 5.28-.454 10.719-.701 15.979-.5 10.648-1.018 21.659-1.124 32.517-.088 9.641.154 18.061.742 25.739.361 4.754 1.189 9.507 1.99 14.104.399 2.292.802 4.634 1.148 6.964.123 2.318.449 4.637.968 6.948 1.605 9.858 5.093 18.43 10.424 25.497 15.806 20.955 44.045 25.655 72.209 27.613 1.024.071 2.049.137 3.073.206a808.171 808.171 0 00.214 32.03c.044 1.832.127 5.244 2.55 7.604 2.531 2.496 6.829 2.803 10.207.738 2.559-1.548 4.178-4 5.357-5.786l9.105-13.738a98.746 98.746 0 0010.427 17.721c2.078 2.834 5.394 6.593 10.206 6.593h.066c3.918-.016 7.691-2.811 9.38-6.936 1.337-3.214 1.337-6.547 1.337-9.487v-.004l-.02-25.746c15.501.535 31.063.872 46.317.985 7.815.063 15.748.106 23.774.106 29.026 0 59.23-.568 89.15-2.827 2.991-.227 5.983-.458 8.975-.688 22.276-1.719 45.285-3.521 67.969-3.396l1.01.005c11.634.057 24.824.131 35.016-7.156 5.127-3.654 9.255-10.173 6.924-16.504-2.035-5.565-7.798-8.544-17.133-8.851zm-40.058-38.088c-.315 13.823 3.747 27.553 11.478 38.987-4.107.332-8.084.71-11.831 1.098-6.254.646-12.526 1.614-18.593 2.551-6.59 1.018-13.404 2.07-20.095 2.686l-5.714.529c-16.666 1.545-33.9 3.143-50.857 4.415a2009.195 2009.195 0 01-114.27 5.299c-4.017.078-8.06.13-12.079.168l-.032-54.896c0-2.123 0-5.031-1.632-7.584-2.594-4.103-7.45-4.851-11.395-5.045a130.894 130.894 0 00-29.589 1.951 33.17 33.17 0 01-1.451.212c-3.108.414-7.804 1.039-9.721 5.176-1.537 3.304-1.617 7.684-1.687 11.548-.025 1.409-.05 2.74-.145 3.813a822.787 822.787 0 00-2.67 43.015 385.763 385.763 0 01-8.764-.857c-26.575-2.961-42.776-11.009-49.532-24.602-6.012-12.081-3.124-28.608 7.025-40.191 8.942-10.217 30.027-23.197 60.021-26.153 15.157-1.502 30.799-.382 45.928.702l3.047.217h.002c70.954 4.998 142.949 5.962 213.984 2.862 6.831-.293 13.549-.715 19.982-1.732-7.101 10.559-11.12 23.069-11.41 35.831zm33.437-51.611c-11.262 8.52-26.439 9.837-42.31 10.519-8.522.372-17.059.682-25.606.936-.718-2.65-1.396-5.635-1.751-8.75 24.966-.846 49.949-3.052 74.778-7.448a36.224 36.224 0 01-5.111 4.743zm17.364-33.934c-.941 7.794-3.207 14.954-6.527 21.013-26.689 5.187-53.649 7.702-80.627 8.621.011-.124.01-.248.023-.372.639-6.121 3.348-11.302 7.433-14.215 6.208-4.426 15.142-3.563 22.233-2.316 1.004.176 2.014.363 3.026.55 7.865 1.452 15.997 2.953 24.038.538 11.255-3.382 19.515-14.792 19.215-26.541-.094-3.678-.929-7.201-1.736-10.608-1.081-4.565-2.103-8.875-1.144-12.844 1.274-5.272 6.664-9.221 12.053-9.267 2.486 15.285 3.805 30.586 2.013 45.441zM348.805 7.049c1.939-.032 3.867-.053 5.78-.053 15.875 0 30.651 1.468 41.043 10.718 7.767 6.917 10.946 16.014 13.599 25.823-.026.021-.055.034-.081.056-3.498 2.972-8.757 3.954-13.09 2.443s-7.843-5.551-8.733-10.053c-.207-1.044-.312-2.193-.424-3.41-.301-3.267-.641-6.969-3.148-10.042-3.78-4.631-10.352-4.975-15.245-3.753-1.928.482-3.735 1.153-5.484 1.802-2.167.804-4.215 1.564-6.256 1.88-4.535.704-9.511-.987-12.682-4.302-2.732-2.857-4.188-7.001-3.963-10.97zm-212.313 5.503c21.204-2.291 42.634-2.797 62.766-3.118L333.104 7.3c-.196 5.74 1.932 11.526 5.92 15.696 4.776 4.994 11.985 7.439 18.812 6.382 2.741-.425 5.221-1.345 7.62-2.235 1.643-.609 3.194-1.185 4.747-1.573 2.679-.669 6.414-.708 8.123 1.387 1.156 1.417 1.363 3.66 1.602 6.257.123 1.34.251 2.727.527 4.126 1.377 6.961 6.596 12.969 13.296 15.305 2.12.74 4.352 1.099 6.585 1.099 3.776 0 7.546-1.041 10.781-2.995 1.653 6.311 3.483 12.742 6.496 18.761 8.278 16.518 11.64 33.5 15.198 51.479.362 1.83.727 3.673 1.1 5.533 3.454 17.181 6.904 34.365 10.355 51.551l8.395 41.802c.88 4.378 1.838 8.898 2.765 13.269 1.568 7.394 3.147 14.864 4.518 22.353-8.097.597-15.718 6.523-17.658 14.552-1.353 5.597-.088 10.938 1.136 16.103.758 3.2 1.474 6.222 1.549 9.173.223 8.701-5.895 17.152-14.231 19.657-6.418 1.93-13.381.645-20.753-.717-1.032-.19-2.061-.38-3.085-.561-8.435-1.482-19.185-2.424-27.51 3.511-5.718 4.077-9.483 11.07-10.33 19.187-.046.436-.081.872-.11 1.306-38.23.92-76.454-1.177-113.958-3.236-29.111-1.598-59.213-3.25-89.068-3.51-20.983-.179-44.542.391-66.065 8.066L120.61 15.3c.003-.044-.006-.085-.005-.129 5.453-1.304 10.881-2.076 15.887-2.619zM48.029 359.833c.104-10.725.619-21.67 1.116-32.255.248-5.276.504-10.732.704-16.046a1652.764 1652.764 0 0112.133-147.107 1636.645 1636.645 0 0115.207-96.252c2.618-13.893 5.65-27.152 13.894-36.664 6.149-7.092 14.094-11.481 22.39-14.294L92.664 341.907a93.5 93.5 0 00-6.052 2.95c-15.936 8.524-30.951 23.511-37.832 40.427-.008-.104-.023-.207-.031-.31-.571-7.48-.807-15.704-.72-25.141zm13.86 74.97c-4.408-5.845-7.377-12.942-8.882-21.125a3.487 3.487 0 00-.101-.766c-.056-.223-.094-.447-.146-.671a66.824 66.824 0 01-.424-2.963 111.243 111.243 0 00-.423-3.195c-.957-21.376 17.406-44.038 38-55.053 23.306-12.466 51.424-13.284 75.954-13.068 29.693.258 59.713 1.906 88.745 3.5 37.654 2.068 76.029 4.174 114.489 3.25.315 3.102.916 6.055 1.59 8.736-60.071 1.557-120.605.233-180.398-3.979l-3.041-.217c-15.42-1.103-31.364-2.245-47.116-.685-20.017 1.972-48.946 10.622-64.6 28.507-11.968 13.661-15.268 33.367-8.026 47.92 7.898 15.893 25.896 25.197 55.027 28.443 3.072.34 6.186.648 9.293.917-.016.556-.027 1.115-.041 1.673-.02.778-.04 1.548-.057 2.325-.011.494-.026.988-.037 1.482l-2.703-.186c-26.509-1.843-52.986-6.128-67.103-24.845zm120.735 67.59c-.607 1.482-1.871 2.602-2.949 2.607h-.014c-1.236 0-2.732-1.221-4.581-3.743A91.843 91.843 0 01163 479.046a3.501 3.501 0 00-6.193-.701l-12.736 19.216c-1.095 1.658-2.021 2.98-3.156 3.667-.751.459-1.542.369-1.67.244-.394-.383-.437-2.183-.452-2.784a801.44 801.44 0 01-.191-33.891l.023-1.174c.067-4.114.169-8.276.303-12.376a813.443 813.443 0 012.788-46.309c.117-1.318.143-2.768.171-4.303.055-3.013.123-6.763 1.037-8.728.303-.653 3.204-1.04 4.296-1.185a40.1 40.1 0 001.769-.262 123.884 123.884 0 0128.008-1.849c2.075.102 4.935.398 5.827 1.809.54.844.54 2.499.54 3.83l.034 58.437c.011 4.507.011 9.014.011 13.526l.022 29.367c.001 2.396.001 4.872-.807 6.813zm175.465-41.969c-2.989.23-5.977.461-8.965.687-37.935 2.865-76.41 2.991-112.341 2.701a1716.854 1716.854 0 01-46.374-.979c-.001-2.227-.001-4.454-.004-6.681 4.058-.038 8.148-.097 12.2-.175 37.973-.671 76.551-2.46 114.664-5.318 17.018-1.277 34.283-2.877 50.979-4.425l5.711-.529c6.904-.635 13.826-1.705 20.52-2.739a901.62 901.62 0 017.652-1.154c-.857 3.505-1.36 7.178-.65 10.898.305 1.6.902 3.254 1.768 4.794-15.192.632-30.345 1.778-45.16 2.92zm100.467-9.265c-8.354 5.973-19.825 5.915-30.912 5.854l-1.015-.005c-4.463-.015-8.936.058-13.411.168-.018-.003-.034-.012-.052-.015-2.521-.45-4.327-3.24-4.809-5.764-.621-3.252.224-6.907 1.229-10.373.02-.07.023-.139.038-.209 1.034-.123 2.069-.25 3.098-.356 11.774-1.219 25.671-2.403 39.464-1.963 4.261.14 9.591.993 10.785 4.26l.004.011c1.007 2.725-1.459 6.282-4.419 8.392z">
        </path>
        <path
            d="M198.046 147.66h50.315l-7.632 92.529a3.502 3.502 0 003.489 3.788h53.123a3.497 3.497 0 003.493-3.719l-5.717-91.001 48.794 1.381a3.48 3.48 0 002.763-1.229 3.497 3.497 0 00.774-2.923l-7.447-39.222a3.5 3.5 0 00-3.213-2.84l-43.046-2.777-1.842-40.063c-.087-1.911-1.675-3.419-3.605-3.338l-31.774.993a3.5 3.5 0 00-3.385 3.3l-2.299 40.454-46.903.928a3.502 3.502 0 00-3.386 2.939l-5.958 36.739a3.5 3.5 0 003.456 4.061zm8.946-36.797l47.226-.935a3.5 3.5 0 003.425-3.301l2.301-40.491 25.124-.785 1.828 39.748a3.5 3.5 0 003.271 3.332l43.465 2.804 6.13 32.282-48.277-1.366a3.48 3.48 0 00-2.616 1.067 3.495 3.495 0 00-.976 2.651l5.724 91.108h-45.596l7.631-92.529a3.502 3.502 0 00-3.489-3.788H202.16z">
        </path>
    </symbol>




    <symbol xmlns="http://www.w3.org/2000/svg" viewBox="0 0 299.063 299.063" id="calendar">
        <path
            d="M258.343 26.972H40.72c-19.202 0-34.769 15.567-34.769 34.769v202.553c0 19.202 15.567 34.769 34.769 34.769h217.623c19.202 0 34.769-15.567 34.769-34.769V61.741c0-19.203-15.567-34.769-34.769-34.769z"
            fill="#ebf0f3"></path>
        <path
            d="M293.112 92.299V50.171c0-19.202-15.567-34.769-34.769-34.769H40.72c-19.202 0-34.769 15.567-34.769 34.769v42.128z"
            fill="#ce412d"></path>
        <path
            d="M293.112 100.159V61.741c0-19.202-15.567-34.769-34.769-34.769H40.72c-19.202 0-34.769 15.567-34.769 34.769v38.418z"
            fill="#e56353"></path>
        <path
            d="M62.902 45.645c-6.702 0-12.135 5.433-12.135 12.135S56.2 69.914 62.902 69.914s12.134-5.433 12.134-12.134c.001-6.702-5.432-12.135-12.134-12.135z"
            fill="#d15241"></path>
        <path d="M62.902 0a6.493 6.493 0 00-6.492 6.492v50.581a6.492 6.492 0 1012.984 0V6.492A6.492 6.492 0 0062.902 0z"
            fill="#4d5c7d"></path>
        <path
            d="M120.655 45.645c-6.702 0-12.135 5.433-12.135 12.135s5.433 12.134 12.135 12.134 12.134-5.433 12.134-12.134c.001-6.702-5.432-12.135-12.134-12.135z"
            fill="#d15241"></path>
        <path
            d="M120.655 0a6.493 6.493 0 00-6.492 6.492v50.581a6.492 6.492 0 1012.984 0V6.492A6.493 6.493 0 00120.655 0z"
            fill="#4d5c7d"></path>
        <path
            d="M178.408 45.645c-6.702 0-12.135 5.433-12.135 12.135s5.433 12.134 12.135 12.134 12.134-5.433 12.134-12.134c0-6.702-5.432-12.135-12.134-12.135z"
            fill="#d15241"></path>
        <path
            d="M178.408 0a6.493 6.493 0 00-6.492 6.492v50.581a6.492 6.492 0 1012.984 0V6.492A6.493 6.493 0 00178.408 0z"
            fill="#4d5c7d"></path>
        <path
            d="M236.161 45.645c-6.702 0-12.135 5.433-12.135 12.135s5.433 12.134 12.135 12.134 12.134-5.433 12.134-12.134c0-6.702-5.433-12.135-12.134-12.135z"
            fill="#d15241"></path>
        <path d="M236.16 0a6.493 6.493 0 00-6.492 6.492v50.581a6.492 6.492 0 1012.984 0V6.492A6.492 6.492 0 00236.16 0z"
            fill="#4d5c7d"></path>
        <path
            d="M111.907 148.197h26.245v26.245h-26.245zm49.004 0h26.245v26.245h-26.245zm49.005 0h26.245v26.245h-26.245zM62.902 189.34h26.245v26.245H62.902zm49.005 0h26.245v26.245h-26.245zm49.004 0h26.245v26.245h-26.245zm49.005 0h26.245v26.245h-26.245zM62.902 230.483h26.245v26.245H62.902zm49.005 0h26.245v26.245h-26.245zm49.004 0h26.245v26.245h-26.245z"
            fill="#e56353"></path>
    </symbol>





    <symbol version="1.1" id="ytube" xmlns="http://www.w3.org/2000/svg" xmlns:xlink="http://www.w3.org/1999/xlink"
        x="0px" y="0px" xml:space="preserve" viewBox="0 0 461.001 461.001">
        <g>
            <path d="M365.257,67.393H95.744C42.866,67.393,0,110.259,0,163.137v134.728
		c0,52.878,42.866,95.744,95.744,95.744h269.513c52.878,0,95.744-42.866,95.744-95.744V163.137
		C461.001,110.259,418.135,67.393,365.257,67.393z M300.506,237.056l-126.06,60.123c-3.359,1.602-7.239-0.847-7.239-4.568V168.607
		c0-3.774,3.982-6.22,7.348-4.514l126.06,63.881C304.363,229.873,304.298,235.248,300.506,237.056z"></path>
        </g>
        <g></g>
        <g></g>
        <g></g>
        <g></g>
        <g></g>
        <g></g>
        <g></g>
        <g></g>
        <g></g>
        <g></g>
        <g></g>
        <g></g>
        <g></g>
        <g></g>
        <g></g>
    </symbol>

    <symbol xmlns="http://www.w3.org/2000/svg" viewBox="0 0 24 24" id="twitter">
        <path
            d="M24 4.557a9.83 9.83 0 0 1-2.828.775 4.932 4.932 0 0 0 2.165-2.724 9.864 9.864 0 0 1-3.127 1.195 4.916 4.916 0 0 0-3.594-1.555c-3.179 0-5.515 2.966-4.797 6.045A13.978 13.978 0 0 1 1.671 3.149a4.93 4.93 0 0 0 1.523 6.574 4.903 4.903 0 0 1-2.229-.616c-.054 2.281 1.581 4.415 3.949 4.89a4.935 4.935 0 0 1-2.224.084 4.928 4.928 0 0 0 4.6 3.419A9.9 9.9 0 0 1 0 19.54a13.94 13.94 0 0 0 7.548 2.212c9.142 0 14.307-7.721 13.995-14.646A10.025 10.025 0 0 0 24 4.557z">
        </path>
    </symbol>
    <symbol xmlns="http://www.w3.org/2000/svg" viewBox="0 0 24 24" id="facebook">
        <path
            d="M9 8H6v4h3v12h5V12h3.642L18 8h-4V6.333C14 5.378 14.192 5 15.115 5H18V0h-3.808C10.596 0 9 1.583 9 4.615V8z">
        </path>
    </symbol>
    <symbol xmlns="http://www.w3.org/2000/svg" viewBox="0 0 24 24" id="whatsapp">
        <path
            d="M.057 24l1.687-6.163a11.867 11.867 0 0 1-1.587-5.946C.16 5.335 5.495 0 12.05 0a11.817 11.817 0 0 1 8.413 3.488 11.824 11.824 0 0 1 3.48 8.414c-.003 6.557-5.338 11.892-11.893 11.892a11.9 11.9 0 0 1-5.688-1.448L.057 24zm6.597-3.807c1.676.995 3.276 1.591 5.392 1.592 5.448 0 9.886-4.434 9.889-9.885.002-5.462-4.415-9.89-9.881-9.892-5.452 0-9.887 4.434-9.889 9.884-.001 2.225.651 3.891 1.746 5.634l-.999 3.648 3.742-.981zm11.387-5.464c-.074-.124-.272-.198-.57-.347-.297-.149-1.758-.868-2.031-.967-.272-.099-.47-.149-.669.149-.198.297-.768.967-.941 1.165-.173.198-.347.223-.644.074-.297-.149-1.255-.462-2.39-1.475-.883-.788-1.48-1.761-1.653-2.059-.173-.297-.018-.458.13-.606.134-.133.297-.347.446-.521.151-.172.2-.296.3-.495.099-.198.05-.372-.025-.521-.075-.148-.669-1.611-.916-2.206-.242-.579-.487-.501-.669-.51l-.57-.01c-.198 0-.52.074-.792.372s-1.04 1.016-1.04 2.479 1.065 2.876 1.213 3.074c.149.198 2.095 3.2 5.076 4.487.709.306 1.263.489 1.694.626.712.226 1.36.194 1.872.118.571-.085 1.758-.719 2.006-1.413.248-.695.248-1.29.173-1.414z">
        </path>
    </symbol>
    <symbol xmlns="http://www.w3.org/2000/svg" viewBox="0 0 24 24" id="instagram">
        <path
            d="M12 2.163c3.204 0 3.584.012 4.85.07 3.252.148 4.771 1.691 4.919 4.919.058 1.265.069 1.645.069 4.849 0 3.205-.012 3.584-.069 4.849-.149 3.225-1.664 4.771-4.919 4.919-1.266.058-1.644.07-4.85.07-3.204 0-3.584-.012-4.849-.07-3.26-.149-4.771-1.699-4.919-4.92-.058-1.265-.07-1.644-.07-4.849 0-3.204.013-3.583.07-4.849.149-3.227 1.664-4.771 4.919-4.919 1.266-.057 1.645-.069 4.849-.069zM12 0C8.741 0 8.333.014 7.053.072 2.695.272.273 2.69.073 7.052.014 8.333 0 8.741 0 12c0 3.259.014 3.668.072 4.948.2 4.358 2.618 6.78 6.98 6.98C8.333 23.986 8.741 24 12 24c3.259 0 3.668-.014 4.948-.072 4.354-.2 6.782-2.618 6.979-6.98.059-1.28.073-1.689.073-4.948 0-3.259-.014-3.667-.072-4.947-.196-4.354-2.617-6.78-6.979-6.98C15.668.014 15.259 0 12 0zm0 5.838a6.162 6.162 0 1 0 0 12.324 6.162 6.162 0 0 0 0-12.324zM12 16a4 4 0 1 1 0-8 4 4 0 0 1 0 8zm6.406-11.845a1.44 1.44 0 1 0 0 2.881 1.44 1.44 0 0 0 0-2.881z">
        </path>
    </symbol>
</svg>