<svg id="Capa_1" enable-background="new 0 0 512 512" height="512" viewBox="0 0 512 512" width="512" xmlns="http://www.w3.org/2000/svg"><g><g><path clip-rule="evenodd" d="m194.408 62.286c-94.359 26.899-163.462 113.777-163.462 216.784 0 124.492 100.906 225.43 225.395 225.43 102.324 0 188.718-68.17 216.24-161.568 3.061-10.374-2.919-21.344-13.294-24.405-10.374-3.061-21.343 2.891-24.376 13.237-22.704 77.127-94.047 133.449-178.57 133.449-102.777 0-186.11-83.335-186.11-186.143s83.333-186.115 186.11-186.115c9.127 0 16.837-6.009 19.048-14.853 2.239-8.844-1.701-17.772-9.722-22.109l-85.714-46.146c-9.524-5.13-21.485-1.531-26.615 7.993s-1.531 21.486 7.993 26.616z" fill="#95d6a4" fill-rule="evenodd"/></g><g><path clip-rule="evenodd" d="m329.64 107.95c7.313 3.146 14.541 6.803 21.598 10.97 9.297 5.527 21.4 2.409 26.899-6.888 5.527-9.297 2.409-21.401-6.888-26.928-8.532-5.045-17.29-9.467-26.162-13.294-9.949-4.252-21.542.397-25.793 10.346s.397 21.542 10.346 25.794z" fill="#95d6a4" fill-rule="evenodd"/></g><g><path clip-rule="evenodd" d="m402.939 133.291c-8.362 6.86-9.552 19.303-2.693 27.665 5.045 6.179 9.779 12.727 14.116 19.7 5.697 9.184 17.857 11.99 27.041 6.264s12.018-17.858 6.292-27.041c-5.244-8.447-10.969-16.412-17.092-23.867-6.859-8.362-19.303-9.581-27.664-2.721z" fill="#95d6a4" fill-rule="evenodd"/></g><g><path clip-rule="evenodd" d="m453.534 217.306c-10.572 2.239-17.375 12.699-15.136 23.3 1.616 7.795 2.778 15.817 3.43 23.98.822 10.8 10.317 18.906 21.088 18.056 10.799-.85 18.906-10.318 18.084-21.117-.794-9.893-2.182-19.587-4.167-29.054-2.239-10.602-12.698-17.404-23.299-15.165z" fill="#95d6a4" fill-rule="evenodd"/></g><g><path clip-rule="evenodd" d="m256.341 134.566c-79.79 0-144.5 64.684-144.5 144.504s64.71 144.504 144.5 144.504c79.818 0 144.5-64.684 144.5-144.504s-64.682-144.504-144.5-144.504z" fill="#eff6ff" fill-rule="evenodd"/></g><g><path clip-rule="evenodd" d="m256.341 141.879c56.15 19.813 96.4 73.358 96.4 136.312 0 62.926-40.249 116.471-96.4 136.284-8.56 3.033-17.489 5.272-26.701 6.633 8.645 1.644 17.574 2.466 26.701 2.466 79.818 0 144.5-64.684 144.5-144.504s-64.682-144.504-144.5-144.504c-7.256 0-14.399.539-21.4 1.559 7.341 1.389 14.512 3.316 21.4 5.754z" fill="#d9eeff" fill-rule="evenodd"/></g><g><path clip-rule="evenodd" d="m280.207 278.815c0-13.181-10.686-23.867-23.866-23.867s-23.866 10.686-23.866 23.867 10.686 23.867 23.866 23.867 23.866-10.686 23.866-23.867z" fill="#ffd772" fill-rule="evenodd"/></g><g><path d="m109.198 118.355c24.875-22.796 55.05-39.69 87.263-48.856 2.936-.836 5.072-3.367 5.403-6.401.33-3.034-1.211-5.967-3.897-7.415l-33.079-17.829c-5.903-3.181-8.123-10.562-4.948-16.457 1.533-2.846 4.096-4.929 7.217-5.867 3.12-.937 6.4-.611 9.241.92l85.702 46.141c4.988 2.696 7.407 8.19 6.014 13.692-1.371 5.486-6.101 9.173-11.771 9.173-106.757 0-193.61 86.855-193.61 193.615 0 106.775 86.853 193.643 193.61 193.643 30.552 0 60.991-7.312 88.025-21.147 3.687-1.888 5.146-6.406 3.26-10.094-1.887-3.688-6.409-5.144-10.094-3.26-25.284 12.94-52.601 19.501-81.191 19.501-98.486 0-178.61-80.139-178.61-178.643 0-98.489 80.125-178.615 178.61-178.615 12.476 0 23.301-8.444 26.318-20.512 3.102-12.252-2.293-24.528-13.437-30.553l-85.715-46.147c-6.369-3.433-13.713-4.168-20.671-2.079-6.954 2.091-12.674 6.749-16.104 13.119-7.098 13.175-2.145 29.672 11.037 36.775l17.701 9.54c-28.07 10.415-54.216 26.36-76.409 46.697-3.054 2.799-3.261 7.543-.462 10.596 2.8 3.055 7.544 3.26 10.597.463z"/><path d="m461.411 311.334c-6.956-2.053-14.303-1.264-20.689 2.219-6.36 3.469-10.98 9.187-13.005 16.092-10.487 35.589-31.513 66.623-60.803 89.745-3.251 2.566-3.806 7.282-1.239 10.534 2.567 3.251 7.281 3.805 10.534 1.239 31.74-25.056 54.525-58.694 65.899-97.287.898-3.064 2.957-5.605 5.796-7.154 2.865-1.562 6.155-1.918 9.261-1 3.099.914 5.663 2.994 7.223 5.855 1.559 2.86 1.914 6.14 1 9.236-27.1 91.96-113.063 156.187-209.047 156.187-120.148 0-217.896-97.763-217.896-217.93 0-49.859 17.253-98.584 48.579-137.201 2.609-3.217 2.117-7.939-1.1-10.549-3.218-2.611-7.939-2.118-10.549 1.1-33.488 41.28-51.931 93.361-51.931 146.65 0 62.215 24.224 120.707 68.211 164.702 43.99 43.998 102.476 68.228 164.686 68.228 51.3 0 99.954-16.351 140.706-47.286 39.43-29.933 68.81-72.429 82.728-119.659 4.236-14.356-4.002-29.483-18.364-33.721z"/><path d="m394.442 165.706c4.984 6.104 9.543 12.466 13.547 18.902 3.806 6.136 9.79 10.421 16.851 12.067 2.071.482 4.16.722 6.233.722 5.017 0 9.941-1.397 14.297-4.113 12.702-7.919 16.599-24.684 8.697-37.362-5.33-8.585-11.274-16.885-17.666-24.668-4.589-5.594-11.099-9.065-18.335-9.776-7.232-.711-14.293 1.426-19.884 6.014-5.595 4.59-9.061 11.104-9.763 18.344-.699 7.223 1.44 14.28 6.023 19.87zm13.254-26.617c2.182-1.789 4.87-2.742 7.679-2.742.407 0 .816.02 1.227.061 3.244.318 6.157 1.867 8.206 4.364 5.976 7.277 11.534 15.037 16.524 23.075 3.534 5.67 1.787 13.166-3.896 16.71-2.751 1.714-6.015 2.252-9.189 1.512-3.153-.735-5.82-2.641-7.516-5.373-4.347-6.989-9.284-13.881-14.675-20.482-.004-.005-.007-.009-.011-.014-4.26-5.195-3.52-12.869 1.651-17.111z"/><path d="m326.686 114.843c7.083 3.048 14.061 6.592 20.72 10.522 4.227 2.514 8.953 3.8 13.76 3.8 2.259 0 4.535-.284 6.784-.858 7.047-1.801 12.958-6.224 16.634-12.442 3.698-6.221 4.74-13.527 2.934-20.573-1.803-7.031-6.219-12.939-12.451-16.644-8.602-5.087-17.689-9.704-27.032-13.734-13.766-5.881-29.754.529-35.637 14.296-5.883 13.763.526 29.747 14.288 35.633zm-.496-29.74c1.27-2.97 3.633-5.272 6.656-6.485 1.478-.593 3.022-.889 4.559-.889 1.606 0 3.205.323 4.711.967 8.739 3.769 17.257 8.098 25.3 12.854 2.782 1.653 4.761 4.306 5.57 7.466.81 3.155.349 6.416-1.305 9.197-1.644 2.779-4.288 4.754-7.446 5.56-3.147.805-6.403.342-9.185-1.313-7.228-4.266-14.781-8.101-22.448-11.4-.005-.002-.011-.005-.017-.007-6.158-2.633-9.028-9.788-6.395-15.95z"/><path d="m451.98 209.969c-14.625 3.097-24.008 17.525-20.924 32.169 1.571 7.581 2.68 15.334 3.293 23.016.55 7.22 3.892 13.797 9.41 18.52 4.965 4.251 11.138 6.529 17.58 6.529.719 0 1.441-.028 2.166-.086 14.905-1.174 26.108-14.256 24.97-29.193-.814-10.167-2.262-20.258-4.304-30.004-1.497-7.088-5.674-13.173-11.762-17.134-6.084-3.958-13.339-5.313-20.429-3.817zm12.249 16.391c2.728 1.774 4.598 4.496 5.264 7.649 1.91 9.117 3.267 18.576 4.028 28.085.509 6.682-4.513 12.545-11.196 13.071-3.216.25-6.343-.771-8.812-2.885-2.468-2.113-3.962-5.048-4.209-8.292-.665-8.333-1.863-16.713-3.562-24.906-.002-.009-.004-.019-.006-.027-1.386-6.561 2.81-13.027 9.348-14.412.84-.177 1.684-.265 2.523-.265 2.329.001 4.615.676 6.622 1.982z"/><path d="m256.341 127.066c-83.813 0-152 68.189-152 152.004s68.187 152.004 152 152.004 152-68.189 152-152.004-68.187-152.004-152-152.004zm119.586 159.249h17.223c-1.684 32.168-14.519 61.427-34.697 83.989l-12.262-12.242c-2.93-2.926-7.679-2.923-10.606.009-2.927 2.931-2.923 7.68.009 10.606l12.27 12.25c-22.54 20.275-51.818 33.195-84.022 34.941v-17.492c0-4.142-3.357-7.5-7.5-7.5s-7.5 3.357-7.5 7.5v17.492c-32.199-1.746-61.472-14.662-84.011-34.931l12.263-12.263c2.929-2.93 2.929-7.678 0-10.607-2.93-2.928-7.678-2.928-10.607 0l-12.248 12.248c-20.183-22.563-33.022-51.827-34.706-83.999h17.251c4.143 0 7.5-3.357 7.5-7.5 0-4.142-3.357-7.5-7.5-7.5h-17.219c1.801-32.104 14.703-61.287 34.923-83.769l11.994 12.014c1.465 1.468 3.386 2.201 5.308 2.201 1.917 0 3.835-.73 5.299-2.192 2.932-2.927 2.935-7.675.009-10.606l-11.987-12.006c22.501-20.125 51.665-32.944 83.731-34.682v16.953c0 4.143 3.357 7.5 7.5 7.5 4.142 0 7.5-3.357 7.5-7.5v-16.953c32.071 1.739 61.238 14.561 83.741 34.691l-11.993 11.993c-2.929 2.93-2.929 7.678 0 10.607 1.465 1.464 3.385 2.196 5.304 2.196s3.839-.732 5.304-2.196l12.008-12.008c20.215 22.48 33.113 51.659 34.914 83.758h-17.191c-4.143 0-7.5 3.357-7.5 7.5-.002 4.14 3.355 7.498 7.498 7.498z"/><path d="m315.893 271.315h-29.099c-3.371-13.684-15.743-23.866-30.453-23.866-1.843 0-3.647.169-5.404.476l-24.521-58.816c-1.594-3.823-5.989-5.628-9.808-4.037-3.823 1.595-5.631 5.985-4.037 9.808l24.641 59.104c-7.434 5.741-12.236 14.733-12.236 24.831 0 17.296 14.071 31.367 31.366 31.367 14.71 0 27.082-10.182 30.453-23.867h29.099c4.142 0 7.5-3.357 7.5-7.5-.001-4.143-3.359-7.5-7.501-7.5zm-59.552 23.867c-9.024 0-16.366-7.343-16.366-16.367s7.342-16.366 16.366-16.366 16.366 7.342 16.366 16.366-7.342 16.367-16.366 16.367z"/></g></g></svg>