<svg id="Capa_1" enable-background="new 0 0 511.997 511.997" height="512" viewBox="0 0 511.997 511.997" width="512" xmlns="http://www.w3.org/2000/svg"><g><path d="m300.379 316.302c-7.822-68.375-65.659-119.936-134.534-119.936-24.927 0-45.207-20.28-45.207-45.207v-16.164h14.781c.006-.001.013-.001.02 0 8.284 0 15-6.716 15-15 0-4.377-1.874-8.315-4.864-11.058l-59.757-59.757c-2.813-2.813-6.628-4.393-10.606-4.393-3.979 0-7.794 1.58-10.607 4.393l-60.207 60.208c-4.29 4.29-5.573 10.741-3.252 16.347 2.322 5.605 7.792 9.26 13.858 9.26h15.26l.166 16.247c.045 74.63 60.778 135.331 135.423 135.331 24.928 0 45.207 20.279 45.207 45.207v90.009c0 8.284 6.716 15 15 15s15-6.716 15-15c0-37.107 19.939-71.924 52.038-90.862 5.102-3.011 7.954-8.74 7.281-14.625z" fill="#ffda2d"/><path d="m510.85 431.05c-2.322-5.605-7.792-9.26-13.858-9.26h-15.096v-.002c0-74.668-60.749-135.414-135.42-135.414-74.668 0-135.415 60.746-135.415 135.414v75.208c0 8.284 6.716 15 15 15h60.208c8.284 0 15-6.716 15-15v-75.208c0-24.927 20.282-45.207 45.213-45.207 24.927 0 45.207 20.28 45.207 45.207l-15.111.002c-6.067 0-11.537 3.654-13.858 9.26-2.321 5.605-1.038 12.057 3.252 16.347l60.208 60.206c2.929 2.929 6.768 4.393 10.606 4.393 3.839 0 7.678-1.465 10.607-4.393l60.207-60.206c4.288-4.29 5.572-10.741 3.25-16.347z" fill="#5f77af"/><path d="m326.526 64.147-59.755-59.754c-5.857-5.857-15.355-5.857-21.213 0l-60.207 60.207c-4.29 4.29-5.574 10.741-3.252 16.347s7.792 9.26 13.858 9.26h15.102v137.329c0 5.349 2.848 10.293 7.476 12.977 28.623 16.597 48.006 45.908 51.958 78.513.166 2.502.963 4.994 2.434 7.232 2.872 4.369 7.654 6.763 12.547 6.763 2.597 0 5.225-.675 7.614-2.086l.709-.42c4.625-2.684 7.472-7.627 7.472-12.975v-227.333h15.103.02c8.284 0 15-6.716 15-15 0-4.378-1.875-8.318-4.866-11.06z" fill="#c2e541"/><path d="m326.526 64.147-59.755-59.754c-2.971-2.972-6.878-4.429-10.773-4.386v277.301c7.655 12.621 12.689 26.822 14.494 41.717.166 2.502.963 4.994 2.434 7.232 2.872 4.369 7.654 6.763 12.547 6.763 2.597 0 5.225-.675 7.614-2.086l.709-.42c4.625-2.684 7.472-7.627 7.472-12.975v-227.332h15.103.02c8.284 0 15-6.716 15-15 .001-4.378-1.874-8.318-4.865-11.06z" fill="#a6d12d"/><path d="m300.379 316.302c-7.822-68.375-65.659-119.936-134.534-119.936-24.927 0-45.207-20.28-45.207-45.207v-16.164h14.781c.006-.001.013-.001.02 0 8.284 0 15-6.716 15-15 0-4.377-1.874-8.315-4.864-11.058l-59.757-59.757c-2.813-2.813-6.628-4.393-10.606-4.393-3.979 0-7.794 1.58-10.607 4.393l-60.207 60.208c-4.29 4.29-5.573 10.741-3.252 16.347 2.322 5.605 7.792 9.26 13.858 9.26h15.26l.166 16.247c.045 74.63 60.778 135.331 135.423 135.331 24.928 0 45.207 20.279 45.207 45.207v90.009c0 8.284 6.716 15 15 15s15-6.716 15-15c0-37.107 19.939-71.924 52.038-90.862 5.102-3.011 7.954-8.74 7.281-14.625z" fill="#ffda2d"/><path d="m300.379 316.302c-3.911-34.191-20.33-64.178-44.381-85.617v137.252c8.953-15.017 21.604-27.867 37.101-37.011 5.101-3.01 7.953-8.739 7.28-14.624z" fill="#febf01"/><path d="m510.85 431.05c-2.322-5.605-7.792-9.26-13.858-9.26h-15.096v-.002c0-74.668-60.749-135.414-135.42-135.414-74.668 0-135.415 60.746-135.415 135.414v75.208c0 8.284 6.716 15 15 15h60.208c8.284 0 15-6.716 15-15v-75.208c0-24.927 20.282-45.207 45.213-45.207 24.927 0 45.207 20.28 45.207 45.207l-15.111.002c-6.067 0-11.537 3.654-13.858 9.26-2.321 5.605-1.038 12.057 3.252 16.347l60.208 60.206c2.929 2.929 6.768 4.393 10.606 4.393 3.839 0 7.678-1.465 10.607-4.393l60.207-60.206c4.288-4.29 5.572-10.741 3.25-16.347z" fill="#5f77af"/><path d="m510.85 431.05c-2.322-5.605-7.792-9.26-13.858-9.26h-15.096v-.002c0-74.668-60.749-135.414-135.42-135.414-34.749 0-66.479 13.161-90.478 34.754v190.868h30.271c8.284 0 15-6.716 15-15v-75.208c0-24.927 20.282-45.207 45.213-45.207 24.927 0 45.207 20.28 45.207 45.207l-15.111.002c-6.067 0-11.537 3.654-13.858 9.26-2.321 5.605-1.038 12.057 3.252 16.347l60.208 60.206c2.929 2.929 6.768 4.393 10.606 4.393 3.839 0 7.678-1.465 10.607-4.393l60.207-60.206c4.288-4.29 5.572-10.741 3.25-16.347z" fill="#455da0"/></g></svg>