<?xml version="1.0" encoding="utf-8"?><svg xmlns="http://www.w3.org/2000/svg" xmlns:xlink="http://www.w3.org/1999/xlink" width="1366" height="657" preserveAspectRatio="xMidYMid" viewBox="0 0 1366 657" style="z-index:1;margin-right:-2px;display:block;animation-play-state:paused" ><g transform="translate(683,328.5) scale(1,1) translate(-683,-328.5)" style="transform:matrix(1, 0, 0, 1, 0, 0);animation-play-state:paused" ><defs style="animation-play-state:paused" ><linearGradient id="lg-0.962247516592901" x1="0" x2="0" y1="0" y2="1" style="animation-play-state:paused" ><stop stop-color="rgba(NaN, NaN, NaN, 0)" offset="0" style="animation-play-state:paused" ></stop>

  
<stop stop-color="#0b1d27" offset="1" style="animation-play-state:paused" ></stop></linearGradient></defs>


<rect x="0" y="0" width="1366" height="657" fill="url(#lg-0.962247516592901)" style="animation-play-state:paused" ></rect>
<g transform="translate(443.9521882785753 610.5420227163947) rotate(87.90957218058944) scale(0.4653116567325718)" style="transform:matrix(0.0169731, 0.465002, -0.465002, 0.0169731, 443.952, 610.542);animation-play-state:paused" ><path fill="#72cbfd" d="M6.38-8.33C5.84-10.74,5-13.08,3.83-15.26c-0.85-1.58-1.98-4.16-4.16-3.86c-1.93,0.26-3.02,2.91-3.79,4.44 c-0.51,1-0.95,2.03-1.32,3.09c-0.37,1.06-0.47,2.86-1.16,3.72c-0.67,0.83-2.16,0.35-3.08,0.33c-1.36-0.03-2.71,0.04-4.06,0.21 c-1.72,0.22-4.81,0.42-5.85,2.03c-1.25,1.94,0.7,3.8,1.93,5.13c1.68,1.82,3.6,3.27,5.67,4.62c1.14,0.74,1.08,1.25,0.59,2.47 c-0.51,1.28-0.93,2.59-1.25,3.92c-0.44,1.86-1.34,5.14-0.4,6.93c1.16,2.23,3.65,1.11,5.37,0.35c2.37-1.05,4.49-2.47,6.49-4.1 c1.2-0.97,1.67-0.56,2.78,0.35c1.06,0.86,2.17,1.65,3.35,2.35c1.59,0.95,4.49,2.84,6.43,2.36c2.4-0.58,2-3.33,1.8-5.2 c-0.29-2.64-1.16-4.97-1.98-7.47c-0.5-1.54,0.7-1.87,1.83-2.64c1.09-0.73,2.12-1.54,3.09-2.42c1.41-1.28,4.24-3.58,3.84-5.73 c-0.45-2.42-4.05-2.66-6-2.93c-1.34-0.19-2.68-0.26-4.03-0.24C8.93-7.54,6.7-6.89,6.38-8.33z" style="animation-play-state:paused" ></path></g>
<g transform="translate(860.6687213659098 393.20819793057274) rotate(228.2418938690545) scale(0.4634272430114465)" style="transform:matrix(-0.308637, -0.3457, 0.3457, -0.308637, 860.669, 393.208);animation-play-state:paused" ><path fill="#72cbfd" d="M6.38-8.33C5.84-10.74,5-13.08,3.83-15.26c-0.85-1.58-1.98-4.16-4.16-3.86c-1.93,0.26-3.02,2.91-3.79,4.44 c-0.51,1-0.95,2.03-1.32,3.09c-0.37,1.06-0.47,2.86-1.16,3.72c-0.67,0.83-2.16,0.35-3.08,0.33c-1.36-0.03-2.71,0.04-4.06,0.21 c-1.72,0.22-4.81,0.42-5.85,2.03c-1.25,1.94,0.7,3.8,1.93,5.13c1.68,1.82,3.6,3.27,5.67,4.62c1.14,0.74,1.08,1.25,0.59,2.47 c-0.51,1.28-0.93,2.59-1.25,3.92c-0.44,1.86-1.34,5.14-0.4,6.93c1.16,2.23,3.65,1.11,5.37,0.35c2.37-1.05,4.49-2.47,6.49-4.1 c1.2-0.97,1.67-0.56,2.78,0.35c1.06,0.86,2.17,1.65,3.35,2.35c1.59,0.95,4.49,2.84,6.43,2.36c2.4-0.58,2-3.33,1.8-5.2 c-0.29-2.64-1.16-4.97-1.98-7.47c-0.5-1.54,0.7-1.87,1.83-2.64c1.09-0.73,2.12-1.54,3.09-2.42c1.41-1.28,4.24-3.58,3.84-5.73 c-0.45-2.42-4.05-2.66-6-2.93c-1.34-0.19-2.68-0.26-4.03-0.24C8.93-7.54,6.7-6.89,6.38-8.33z" style="animation-play-state:paused" ></path></g>
<g transform="translate(300.8752357642546 260.982964986136) rotate(95.83039718996002) scale(0.6500149751751702)" style="transform:matrix(-0.0660312, 0.646652, -0.646652, -0.0660312, 300.875, 260.983);animation-play-state:paused" ><path fill="#72cbfd" d="M6.38-8.33C5.84-10.74,5-13.08,3.83-15.26c-0.85-1.58-1.98-4.16-4.16-3.86c-1.93,0.26-3.02,2.91-3.79,4.44 c-0.51,1-0.95,2.03-1.32,3.09c-0.37,1.06-0.47,2.86-1.16,3.72c-0.67,0.83-2.16,0.35-3.08,0.33c-1.36-0.03-2.71,0.04-4.06,0.21 c-1.72,0.22-4.81,0.42-5.85,2.03c-1.25,1.94,0.7,3.8,1.93,5.13c1.68,1.82,3.6,3.27,5.67,4.62c1.14,0.74,1.08,1.25,0.59,2.47 c-0.51,1.28-0.93,2.59-1.25,3.92c-0.44,1.86-1.34,5.14-0.4,6.93c1.16,2.23,3.65,1.11,5.37,0.35c2.37-1.05,4.49-2.47,6.49-4.1 c1.2-0.97,1.67-0.56,2.78,0.35c1.06,0.86,2.17,1.65,3.35,2.35c1.59,0.95,4.49,2.84,6.43,2.36c2.4-0.58,2-3.33,1.8-5.2 c-0.29-2.64-1.16-4.97-1.98-7.47c-0.5-1.54,0.7-1.87,1.83-2.64c1.09-0.73,2.12-1.54,3.09-2.42c1.41-1.28,4.24-3.58,3.84-5.73 c-0.45-2.42-4.05-2.66-6-2.93c-1.34-0.19-2.68-0.26-4.03-0.24C8.93-7.54,6.7-6.89,6.38-8.33z" style="animation-play-state:paused" ></path></g>
<g transform="translate(1101.9195133763728 415.7665121469383) rotate(55.42951425834748) scale(0.6668818156687278)" style="transform:matrix(0.378402, 0.54913, -0.54913, 0.378402, 1101.92, 415.767);animation-play-state:paused" ><path fill="#c1d0d8" d="M6.38-8.33C5.84-10.74,5-13.08,3.83-15.26c-0.85-1.58-1.98-4.16-4.16-3.86c-1.93,0.26-3.02,2.91-3.79,4.44 c-0.51,1-0.95,2.03-1.32,3.09c-0.37,1.06-0.47,2.86-1.16,3.72c-0.67,0.83-2.16,0.35-3.08,0.33c-1.36-0.03-2.71,0.04-4.06,0.21 c-1.72,0.22-4.81,0.42-5.85,2.03c-1.25,1.94,0.7,3.8,1.93,5.13c1.68,1.82,3.6,3.27,5.67,4.62c1.14,0.74,1.08,1.25,0.59,2.47 c-0.51,1.28-0.93,2.59-1.25,3.92c-0.44,1.86-1.34,5.14-0.4,6.93c1.16,2.23,3.65,1.11,5.37,0.35c2.37-1.05,4.49-2.47,6.49-4.1 c1.2-0.97,1.67-0.56,2.78,0.35c1.06,0.86,2.17,1.65,3.35,2.35c1.59,0.95,4.49,2.84,6.43,2.36c2.4-0.58,2-3.33,1.8-5.2 c-0.29-2.64-1.16-4.97-1.98-7.47c-0.5-1.54,0.7-1.87,1.83-2.64c1.09-0.73,2.12-1.54,3.09-2.42c1.41-1.28,4.24-3.58,3.84-5.73 c-0.45-2.42-4.05-2.66-6-2.93c-1.34-0.19-2.68-0.26-4.03-0.24C8.93-7.54,6.7-6.89,6.38-8.33z" style="animation-play-state:paused" ></path></g>
<g transform="translate(62.47731643130799 184.4275501983665) rotate(269.38785351382256) scale(0.3031763757391274)" style="transform:matrix(-0.0032391, -0.303159, 0.303159, -0.0032391, 62.4773, 184.428);animation-play-state:paused" ><g transform="matrix(0.9905531063344521,-0.1371296595604596,0.1371296595604596,0.9905531063344521,0,0)" style="transform:matrix(0.990553, -0.13713, 0.13713, 0.990553, 0, 0);animation-play-state:paused" ><path fill="#72cbfd" d="M6.38-8.33C5.84-10.74,5-13.08,3.83-15.26c-0.85-1.58-1.98-4.16-4.16-3.86c-1.93,0.26-3.02,2.91-3.79,4.44 c-0.51,1-0.95,2.03-1.32,3.09c-0.37,1.06-0.47,2.86-1.16,3.72c-0.67,0.83-2.16,0.35-3.08,0.33c-1.36-0.03-2.71,0.04-4.06,0.21 c-1.72,0.22-4.81,0.42-5.85,2.03c-1.25,1.94,0.7,3.8,1.93,5.13c1.68,1.82,3.6,3.27,5.67,4.62c1.14,0.74,1.08,1.25,0.59,2.47 c-0.51,1.28-0.93,2.59-1.25,3.92c-0.44,1.86-1.34,5.14-0.4,6.93c1.16,2.23,3.65,1.11,5.37,0.35c2.37-1.05,4.49-2.47,6.49-4.1 c1.2-0.97,1.67-0.56,2.78,0.35c1.06,0.86,2.17,1.65,3.35,2.35c1.59,0.95,4.49,2.84,6.43,2.36c2.4-0.58,2-3.33,1.8-5.2 c-0.29-2.64-1.16-4.97-1.98-7.47c-0.5-1.54,0.7-1.87,1.83-2.64c1.09-0.73,2.12-1.54,3.09-2.42c1.41-1.28,4.24-3.58,3.84-5.73 c-0.45-2.42-4.05-2.66-6-2.93c-1.34-0.19-2.68-0.26-4.03-0.24C8.93-7.54,6.7-6.89,6.38-8.33z" style="animation-play-state:paused" ></path></g></g>
<g transform="translate(326.0221891265064 380.5697903727776) rotate(120.57031579992744) scale(0.3236604206599221)" style="transform:matrix(-0.164612, 0.278673, -0.278673, -0.164612, 326.022, 380.57);animation-play-state:paused" ><g transform="matrix(0.9940662650957375,-0.10877619499969157,0.10877619499969157,0.9940662650957375,0,0)" style="transform:matrix(0.994066, -0.108776, 0.108776, 0.994066, 0, 0);animation-play-state:paused" ><path fill="#72cbfd" d="M6.38-8.33C5.84-10.74,5-13.08,3.83-15.26c-0.85-1.58-1.98-4.16-4.16-3.86c-1.93,0.26-3.02,2.91-3.79,4.44 c-0.51,1-0.95,2.03-1.32,3.09c-0.37,1.06-0.47,2.86-1.16,3.72c-0.67,0.83-2.16,0.35-3.08,0.33c-1.36-0.03-2.71,0.04-4.06,0.21 c-1.72,0.22-4.81,0.42-5.85,2.03c-1.25,1.94,0.7,3.8,1.93,5.13c1.68,1.82,3.6,3.27,5.67,4.62c1.14,0.74,1.08,1.25,0.59,2.47 c-0.51,1.28-0.93,2.59-1.25,3.92c-0.44,1.86-1.34,5.14-0.4,6.93c1.16,2.23,3.65,1.11,5.37,0.35c2.37-1.05,4.49-2.47,6.49-4.1 c1.2-0.97,1.67-0.56,2.78,0.35c1.06,0.86,2.17,1.65,3.35,2.35c1.59,0.95,4.49,2.84,6.43,2.36c2.4-0.58,2-3.33,1.8-5.2 c-0.29-2.64-1.16-4.97-1.98-7.47c-0.5-1.54,0.7-1.87,1.83-2.64c1.09-0.73,2.12-1.54,3.09-2.42c1.41-1.28,4.24-3.58,3.84-5.73 c-0.45-2.42-4.05-2.66-6-2.93c-1.34-0.19-2.68-0.26-4.03-0.24C8.93-7.54,6.7-6.89,6.38-8.33z" style="animation-play-state:paused" ></path></g></g>
<g transform="translate(956.0854500157532 501.01665101462675) rotate(217.6284706883577) scale(0.24043888148332757)" style="transform:matrix(-0.190424, -0.146797, 0.146797, -0.190424, 956.085, 501.017);animation-play-state:paused" ><g transform="matrix(0.9972930702801961,-0.07352912328526616,0.07352912328526616,0.9972930702801961,0,0)" style="transform:matrix(0.997293, -0.0735291, 0.0735291, 0.997293, 0, 0);animation-play-state:paused" ><path fill="#72cbfd" d="M6.38-8.33C5.84-10.74,5-13.08,3.83-15.26c-0.85-1.58-1.98-4.16-4.16-3.86c-1.93,0.26-3.02,2.91-3.79,4.44 c-0.51,1-0.95,2.03-1.32,3.09c-0.37,1.06-0.47,2.86-1.16,3.72c-0.67,0.83-2.16,0.35-3.08,0.33c-1.36-0.03-2.71,0.04-4.06,0.21 c-1.72,0.22-4.81,0.42-5.85,2.03c-1.25,1.94,0.7,3.8,1.93,5.13c1.68,1.82,3.6,3.27,5.67,4.62c1.14,0.74,1.08,1.25,0.59,2.47 c-0.51,1.28-0.93,2.59-1.25,3.92c-0.44,1.86-1.34,5.14-0.4,6.93c1.16,2.23,3.65,1.11,5.37,0.35c2.37-1.05,4.49-2.47,6.49-4.1 c1.2-0.97,1.67-0.56,2.78,0.35c1.06,0.86,2.17,1.65,3.35,2.35c1.59,0.95,4.49,2.84,6.43,2.36c2.4-0.58,2-3.33,1.8-5.2 c-0.29-2.64-1.16-4.97-1.98-7.47c-0.5-1.54,0.7-1.87,1.83-2.64c1.09-0.73,2.12-1.54,3.09-2.42c1.41-1.28,4.24-3.58,3.84-5.73 c-0.45-2.42-4.05-2.66-6-2.93c-1.34-0.19-2.68-0.26-4.03-0.24C8.93-7.54,6.7-6.89,6.38-8.33z" style="animation-play-state:paused" ></path></g></g>
<g transform="translate(1316.4038242571953 351.5866426170092) rotate(108.35837746789194) scale(0.309732981962157)" style="transform:matrix(-0.0975534, 0.293969, -0.293969, -0.0975534, 1316.4, 351.587);animation-play-state:paused" ><g transform="matrix(0.999446585575087,-0.03326443419479958,0.03326443419479958,0.999446585575087,0,0)" style="transform:matrix(0.999447, -0.0332644, 0.0332644, 0.999447, 0, 0);animation-play-state:paused" ><path fill="#72cbfd" d="M6.38-8.33C5.84-10.74,5-13.08,3.83-15.26c-0.85-1.58-1.98-4.16-4.16-3.86c-1.93,0.26-3.02,2.91-3.79,4.44 c-0.51,1-0.95,2.03-1.32,3.09c-0.37,1.06-0.47,2.86-1.16,3.72c-0.67,0.83-2.16,0.35-3.08,0.33c-1.36-0.03-2.71,0.04-4.06,0.21 c-1.72,0.22-4.81,0.42-5.85,2.03c-1.25,1.94,0.7,3.8,1.93,5.13c1.68,1.82,3.6,3.27,5.67,4.62c1.14,0.74,1.08,1.25,0.59,2.47 c-0.51,1.28-0.93,2.59-1.25,3.92c-0.44,1.86-1.34,5.14-0.4,6.93c1.16,2.23,3.65,1.11,5.37,0.35c2.37-1.05,4.49-2.47,6.49-4.1 c1.2-0.97,1.67-0.56,2.78,0.35c1.06,0.86,2.17,1.65,3.35,2.35c1.59,0.95,4.49,2.84,6.43,2.36c2.4-0.58,2-3.33,1.8-5.2 c-0.29-2.64-1.16-4.97-1.98-7.47c-0.5-1.54,0.7-1.87,1.83-2.64c1.09-0.73,2.12-1.54,3.09-2.42c1.41-1.28,4.24-3.58,3.84-5.73 c-0.45-2.42-4.05-2.66-6-2.93c-1.34-0.19-2.68-0.26-4.03-0.24C8.93-7.54,6.7-6.89,6.38-8.33z" style="animation-play-state:paused" ></path></g></g>
<g transform="translate(76.39011739449592 543.5779528486008) rotate(308.6249696877586) scale(0.27352774557663334)" style="transform:matrix(0.170742, -0.213693, 0.213693, 0.170742, 76.3901, 543.578);animation-play-state:paused" ><g transform="matrix(0.9999560351009369,0.00937698593439343,-0.00937698593439343,0.9999560351009369,0,0)" style="transform:matrix(0.999956, 0.00937699, -0.00937699, 0.999956, 0, 0);animation-play-state:paused" ><path fill="#72cbfd" d="M6.38-8.33C5.84-10.74,5-13.08,3.83-15.26c-0.85-1.58-1.98-4.16-4.16-3.86c-1.93,0.26-3.02,2.91-3.79,4.44 c-0.51,1-0.95,2.03-1.32,3.09c-0.37,1.06-0.47,2.86-1.16,3.72c-0.67,0.83-2.16,0.35-3.08,0.33c-1.36-0.03-2.71,0.04-4.06,0.21 c-1.72,0.22-4.81,0.42-5.85,2.03c-1.25,1.94,0.7,3.8,1.93,5.13c1.68,1.82,3.6,3.27,5.67,4.62c1.14,0.74,1.08,1.25,0.59,2.47 c-0.51,1.28-0.93,2.59-1.25,3.92c-0.44,1.86-1.34,5.14-0.4,6.93c1.16,2.23,3.65,1.11,5.37,0.35c2.37-1.05,4.49-2.47,6.49-4.1 c1.2-0.97,1.67-0.56,2.78,0.35c1.06,0.86,2.17,1.65,3.35,2.35c1.59,0.95,4.49,2.84,6.43,2.36c2.4-0.58,2-3.33,1.8-5.2 c-0.29-2.64-1.16-4.97-1.98-7.47c-0.5-1.54,0.7-1.87,1.83-2.64c1.09-0.73,2.12-1.54,3.09-2.42c1.41-1.28,4.24-3.58,3.84-5.73 c-0.45-2.42-4.05-2.66-6-2.93c-1.34-0.19-2.68-0.26-4.03-0.24C8.93-7.54,6.7-6.89,6.38-8.33z" style="animation-play-state:paused" ></path></g></g>
<g transform="translate(13.096278138517665 458.5038517081183) rotate(274.4784072764549) scale(0.30389470508564126)" style="transform:matrix(0.0237291, -0.302967, 0.302967, 0.0237291, 13.0963, 458.504);animation-play-state:paused" ><g transform="matrix(0.9986811654632745,0.05134130645898806,-0.05134130645898806,0.9986811654632745,0,0)" style="transform:matrix(0.998681, 0.0513413, -0.0513413, 0.998681, 0, 0);animation-play-state:paused" ><path fill="#72cbfd" d="M6.38-8.33C5.84-10.74,5-13.08,3.83-15.26c-0.85-1.58-1.98-4.16-4.16-3.86c-1.93,0.26-3.02,2.91-3.79,4.44 c-0.51,1-0.95,2.03-1.32,3.09c-0.37,1.06-0.47,2.86-1.16,3.72c-0.67,0.83-2.16,0.35-3.08,0.33c-1.36-0.03-2.71,0.04-4.06,0.21 c-1.72,0.22-4.81,0.42-5.85,2.03c-1.25,1.94,0.7,3.8,1.93,5.13c1.68,1.82,3.6,3.27,5.67,4.62c1.14,0.74,1.08,1.25,0.59,2.47 c-0.51,1.28-0.93,2.59-1.25,3.92c-0.44,1.86-1.34,5.14-0.4,6.93c1.16,2.23,3.65,1.11,5.37,0.35c2.37-1.05,4.49-2.47,6.49-4.1 c1.2-0.97,1.67-0.56,2.78,0.35c1.06,0.86,2.17,1.65,3.35,2.35c1.59,0.95,4.49,2.84,6.43,2.36c2.4-0.58,2-3.33,1.8-5.2 c-0.29-2.64-1.16-4.97-1.98-7.47c-0.5-1.54,0.7-1.87,1.83-2.64c1.09-0.73,2.12-1.54,3.09-2.42c1.41-1.28,4.24-3.58,3.84-5.73 c-0.45-2.42-4.05-2.66-6-2.93c-1.34-0.19-2.68-0.26-4.03-0.24C8.93-7.54,6.7-6.89,6.38-8.33z" style="animation-play-state:paused" ></path></g></g>
<g transform="translate(497.37856786989414 48.89080359998659) rotate(80.98273376104191) scale(0.24858911634199699)" style="transform:matrix(0.0389619, 0.245517, -0.245517, 0.0389619, 497.379, 48.8908);animation-play-state:paused" ><g transform="matrix(0.9959690830164624,0.08969718878173956,-0.08969718878173956,0.9959690830164624,0,0)" style="transform:matrix(0.995969, 0.0896972, -0.0896972, 0.995969, 0, 0);animation-play-state:paused" ><path fill="#c1d0d8" d="M6.38-8.33C5.84-10.74,5-13.08,3.83-15.26c-0.85-1.58-1.98-4.16-4.16-3.86c-1.93,0.26-3.02,2.91-3.79,4.44 c-0.51,1-0.95,2.03-1.32,3.09c-0.37,1.06-0.47,2.86-1.16,3.72c-0.67,0.83-2.16,0.35-3.08,0.33c-1.36-0.03-2.71,0.04-4.06,0.21 c-1.72,0.22-4.81,0.42-5.85,2.03c-1.25,1.94,0.7,3.8,1.93,5.13c1.68,1.82,3.6,3.27,5.67,4.62c1.14,0.74,1.08,1.25,0.59,2.47 c-0.51,1.28-0.93,2.59-1.25,3.92c-0.44,1.86-1.34,5.14-0.4,6.93c1.16,2.23,3.65,1.11,5.37,0.35c2.37-1.05,4.49-2.47,6.49-4.1 c1.2-0.97,1.67-0.56,2.78,0.35c1.06,0.86,2.17,1.65,3.35,2.35c1.59,0.95,4.49,2.84,6.43,2.36c2.4-0.58,2-3.33,1.8-5.2 c-0.29-2.64-1.16-4.97-1.98-7.47c-0.5-1.54,0.7-1.87,1.83-2.64c1.09-0.73,2.12-1.54,3.09-2.42c1.41-1.28,4.24-3.58,3.84-5.73 c-0.45-2.42-4.05-2.66-6-2.93c-1.34-0.19-2.68-0.26-4.03-0.24C8.93-7.54,6.7-6.89,6.38-8.33z" style="animation-play-state:paused" ></path></g></g>
<g transform="translate(331.9430476812692 572.5399796846551) rotate(299.9745742982546) scale(0.2755507143302234)" style="transform:matrix(0.137669, -0.238695, 0.238695, 0.137669, 331.943, 572.54);animation-play-state:paused" ><g transform="matrix(0.9925167503424684,0.12210855944456248,-0.12210855944456248,0.9925167503424684,0,0)" style="transform:matrix(0.992517, 0.122109, -0.122109, 0.992517, 0, 0);animation-play-state:paused" ><path fill="#c1d0d8" d="M6.38-8.33C5.84-10.74,5-13.08,3.83-15.26c-0.85-1.58-1.98-4.16-4.16-3.86c-1.93,0.26-3.02,2.91-3.79,4.44 c-0.51,1-0.95,2.03-1.32,3.09c-0.37,1.06-0.47,2.86-1.16,3.72c-0.67,0.83-2.16,0.35-3.08,0.33c-1.36-0.03-2.71,0.04-4.06,0.21 c-1.72,0.22-4.81,0.42-5.85,2.03c-1.25,1.94,0.7,3.8,1.93,5.13c1.68,1.82,3.6,3.27,5.67,4.62c1.14,0.74,1.08,1.25,0.59,2.47 c-0.51,1.28-0.93,2.59-1.25,3.92c-0.44,1.86-1.34,5.14-0.4,6.93c1.16,2.23,3.65,1.11,5.37,0.35c2.37-1.05,4.49-2.47,6.49-4.1 c1.2-0.97,1.67-0.56,2.78,0.35c1.06,0.86,2.17,1.65,3.35,2.35c1.59,0.95,4.49,2.84,6.43,2.36c2.4-0.58,2-3.33,1.8-5.2 c-0.29-2.64-1.16-4.97-1.98-7.47c-0.5-1.54,0.7-1.87,1.83-2.64c1.09-0.73,2.12-1.54,3.09-2.42c1.41-1.28,4.24-3.58,3.84-5.73 c-0.45-2.42-4.05-2.66-6-2.93c-1.34-0.19-2.68-0.26-4.03-0.24C8.93-7.54,6.7-6.89,6.38-8.33z" style="animation-play-state:paused" ></path></g></g>
<g transform="translate(316.6514153107867 16.151544601432523) rotate(295.868505134383) scale(0.2778499788605134)" style="transform:matrix(0.121228, -0.250009, 0.250009, 0.121228, 316.651, 16.1515);animation-play-state:paused" ><g transform="matrix(0.9891256314037583,0.14707306109589385,-0.14707306109589385,0.9891256314037583,0,0)" style="transform:matrix(0.989126, 0.147073, -0.147073, 0.989126, 0, 0);animation-play-state:paused" ><path fill="#c1d0d8" d="M6.38-8.33C5.84-10.74,5-13.08,3.83-15.26c-0.85-1.58-1.98-4.16-4.16-3.86c-1.93,0.26-3.02,2.91-3.79,4.44 c-0.51,1-0.95,2.03-1.32,3.09c-0.37,1.06-0.47,2.86-1.16,3.72c-0.67,0.83-2.16,0.35-3.08,0.33c-1.36-0.03-2.71,0.04-4.06,0.21 c-1.72,0.22-4.81,0.42-5.85,2.03c-1.25,1.94,0.7,3.8,1.93,5.13c1.68,1.82,3.6,3.27,5.67,4.62c1.14,0.74,1.08,1.25,0.59,2.47 c-0.51,1.28-0.93,2.59-1.25,3.92c-0.44,1.86-1.34,5.14-0.4,6.93c1.16,2.23,3.65,1.11,5.37,0.35c2.37-1.05,4.49-2.47,6.49-4.1 c1.2-0.97,1.67-0.56,2.78,0.35c1.06,0.86,2.17,1.65,3.35,2.35c1.59,0.95,4.49,2.84,6.43,2.36c2.4-0.58,2-3.33,1.8-5.2 c-0.29-2.64-1.16-4.97-1.98-7.47c-0.5-1.54,0.7-1.87,1.83-2.64c1.09-0.73,2.12-1.54,3.09-2.42c1.41-1.28,4.24-3.58,3.84-5.73 c-0.45-2.42-4.05-2.66-6-2.93c-1.34-0.19-2.68-0.26-4.03-0.24C8.93-7.54,6.7-6.89,6.38-8.33z" style="animation-play-state:paused" ></path></g></g>
<g transform="translate(386.3639606444723 115.96203878134065) rotate(159.08340796145043) scale(0.326744784092527)" style="transform:matrix(-0.305213, 0.116651, -0.116651, -0.305213, 386.364, 115.962);animation-play-state:paused" ><g transform="matrix(0.986480835228885,0.16387666620395172,-0.16387666620395172,0.986480835228885,0,0)" style="transform:matrix(0.986481, 0.163877, -0.163877, 0.986481, 0, 0);animation-play-state:paused" ><path fill="#72cbfd" d="M6.38-8.33C5.84-10.74,5-13.08,3.83-15.26c-0.85-1.58-1.98-4.16-4.16-3.86c-1.93,0.26-3.02,2.91-3.79,4.44 c-0.51,1-0.95,2.03-1.32,3.09c-0.37,1.06-0.47,2.86-1.16,3.72c-0.67,0.83-2.16,0.35-3.08,0.33c-1.36-0.03-2.71,0.04-4.06,0.21 c-1.72,0.22-4.81,0.42-5.85,2.03c-1.25,1.94,0.7,3.8,1.93,5.13c1.68,1.82,3.6,3.27,5.67,4.62c1.14,0.74,1.08,1.25,0.59,2.47 c-0.51,1.28-0.93,2.59-1.25,3.92c-0.44,1.86-1.34,5.14-0.4,6.93c1.16,2.23,3.65,1.11,5.37,0.35c2.37-1.05,4.49-2.47,6.49-4.1 c1.2-0.97,1.67-0.56,2.78,0.35c1.06,0.86,2.17,1.65,3.35,2.35c1.59,0.95,4.49,2.84,6.43,2.36c2.4-0.58,2-3.33,1.8-5.2 c-0.29-2.64-1.16-4.97-1.98-7.47c-0.5-1.54,0.7-1.87,1.83-2.64c1.09-0.73,2.12-1.54,3.09-2.42c1.41-1.28,4.24-3.58,3.84-5.73 c-0.45-2.42-4.05-2.66-6-2.93c-1.34-0.19-2.68-0.26-4.03-0.24C8.93-7.54,6.7-6.89,6.38-8.33z" style="animation-play-state:paused" ></path></g></g>
<g transform="translate(1093.6451317688206 122.91232844121697) rotate(243.44635841531252) scale(0.3180187258578325)" style="transform:matrix(-0.142166, -0.284473, 0.284473, -0.142166, 1093.65, 122.912);animation-play-state:paused" ><g transform="matrix(0.9850265785504236,0.17240255087801393,-0.17240255087801393,0.9850265785504236,0,0)" style="transform:matrix(0.985027, 0.172403, -0.172403, 0.985027, 0, 0);animation-play-state:paused" ><path fill="#c1d0d8" d="M6.38-8.33C5.84-10.74,5-13.08,3.83-15.26c-0.85-1.58-1.98-4.16-4.16-3.86c-1.93,0.26-3.02,2.91-3.79,4.44 c-0.51,1-0.95,2.03-1.32,3.09c-0.37,1.06-0.47,2.86-1.16,3.72c-0.67,0.83-2.16,0.35-3.08,0.33c-1.36-0.03-2.71,0.04-4.06,0.21 c-1.72,0.22-4.81,0.42-5.85,2.03c-1.25,1.94,0.7,3.8,1.93,5.13c1.68,1.82,3.6,3.27,5.67,4.62c1.14,0.74,1.08,1.25,0.59,2.47 c-0.51,1.28-0.93,2.59-1.25,3.92c-0.44,1.86-1.34,5.14-0.4,6.93c1.16,2.23,3.65,1.11,5.37,0.35c2.37-1.05,4.49-2.47,6.49-4.1 c1.2-0.97,1.67-0.56,2.78,0.35c1.06,0.86,2.17,1.65,3.35,2.35c1.59,0.95,4.49,2.84,6.43,2.36c2.4-0.58,2-3.33,1.8-5.2 c-0.29-2.64-1.16-4.97-1.98-7.47c-0.5-1.54,0.7-1.87,1.83-2.64c1.09-0.73,2.12-1.54,3.09-2.42c1.41-1.28,4.24-3.58,3.84-5.73 c-0.45-2.42-4.05-2.66-6-2.93c-1.34-0.19-2.68-0.26-4.03-0.24C8.93-7.54,6.7-6.89,6.38-8.33z" style="animation-play-state:paused" ></path></g></g>
<g transform="translate(928.6753896198936 4.615835123421855) rotate(223.11859959558709) scale(0.3258532296446291)" style="transform:matrix(-0.237853, -0.222724, 0.222724, -0.237853, 928.675, 4.61584);animation-play-state:paused" ><g transform="matrix(0.9849400023122801,0.17289647724891832,-0.17289647724891832,0.9849400023122801,0,0)" style="transform:matrix(0.98494, 0.172896, -0.172896, 0.98494, 0, 0);animation-play-state:paused" ><path fill="#72cbfd" d="M6.38-8.33C5.84-10.74,5-13.08,3.83-15.26c-0.85-1.58-1.98-4.16-4.16-3.86c-1.93,0.26-3.02,2.91-3.79,4.44 c-0.51,1-0.95,2.03-1.32,3.09c-0.37,1.06-0.47,2.86-1.16,3.72c-0.67,0.83-2.16,0.35-3.08,0.33c-1.36-0.03-2.71,0.04-4.06,0.21 c-1.72,0.22-4.81,0.42-5.85,2.03c-1.25,1.94,0.7,3.8,1.93,5.13c1.68,1.82,3.6,3.27,5.67,4.62c1.14,0.74,1.08,1.25,0.59,2.47 c-0.51,1.28-0.93,2.59-1.25,3.92c-0.44,1.86-1.34,5.14-0.4,6.93c1.16,2.23,3.65,1.11,5.37,0.35c2.37-1.05,4.49-2.47,6.49-4.1 c1.2-0.97,1.67-0.56,2.78,0.35c1.06,0.86,2.17,1.65,3.35,2.35c1.59,0.95,4.49,2.84,6.43,2.36c2.4-0.58,2-3.33,1.8-5.2 c-0.29-2.64-1.16-4.97-1.98-7.47c-0.5-1.54,0.7-1.87,1.83-2.64c1.09-0.73,2.12-1.54,3.09-2.42c1.41-1.28,4.24-3.58,3.84-5.73 c-0.45-2.42-4.05-2.66-6-2.93c-1.34-0.19-2.68-0.26-4.03-0.24C8.93-7.54,6.7-6.89,6.38-8.33z" style="animation-play-state:paused" ></path></g></g>
<g transform="translate(1206.1682933021013 111.33474955712686) rotate(324.33735694911445) scale(0.2676196293477692)" style="transform:matrix(0.217431, -0.156025, 0.156025, 0.217431, 1206.17, 111.335);animation-play-state:paused" ><g transform="matrix(0.9862277844945876,0.1653927359072863,-0.1653927359072863,0.9862277844945876,0,0)" style="transform:matrix(0.986228, 0.165393, -0.165393, 0.986228, 0, 0);animation-play-state:paused" ><path fill="#72cbfd" d="M6.38-8.33C5.84-10.74,5-13.08,3.83-15.26c-0.85-1.58-1.98-4.16-4.16-3.86c-1.93,0.26-3.02,2.91-3.79,4.44 c-0.51,1-0.95,2.03-1.32,3.09c-0.37,1.06-0.47,2.86-1.16,3.72c-0.67,0.83-2.16,0.35-3.08,0.33c-1.36-0.03-2.71,0.04-4.06,0.21 c-1.72,0.22-4.81,0.42-5.85,2.03c-1.25,1.94,0.7,3.8,1.93,5.13c1.68,1.82,3.6,3.27,5.67,4.62c1.14,0.74,1.08,1.25,0.59,2.47 c-0.51,1.28-0.93,2.59-1.25,3.92c-0.44,1.86-1.34,5.14-0.4,6.93c1.16,2.23,3.65,1.11,5.37,0.35c2.37-1.05,4.49-2.47,6.49-4.1 c1.2-0.97,1.67-0.56,2.78,0.35c1.06,0.86,2.17,1.65,3.35,2.35c1.59,0.95,4.49,2.84,6.43,2.36c2.4-0.58,2-3.33,1.8-5.2 c-0.29-2.64-1.16-4.97-1.98-7.47c-0.5-1.54,0.7-1.87,1.83-2.64c1.09-0.73,2.12-1.54,3.09-2.42c1.41-1.28,4.24-3.58,3.84-5.73 c-0.45-2.42-4.05-2.66-6-2.93c-1.34-0.19-2.68-0.26-4.03-0.24C8.93-7.54,6.7-6.89,6.38-8.33z" style="animation-play-state:paused" ></path></g></g>
<g transform="translate(113.64246471742503 357.35437182268015) rotate(346.3232834980259) scale(0.3215466194617391)" style="transform:matrix(0.312429, -0.0760276, 0.0760276, 0.312429, 113.642, 357.354);animation-play-state:paused" ><g transform="matrix(0.9887424723379267,0.1496272815868959,-0.1496272815868959,0.9887424723379267,0,0)" style="transform:matrix(0.988742, 0.149627, -0.149627, 0.988742, 0, 0);animation-play-state:paused" ><path fill="#72cbfd" d="M6.38-8.33C5.84-10.74,5-13.08,3.83-15.26c-0.85-1.58-1.98-4.16-4.16-3.86c-1.93,0.26-3.02,2.91-3.79,4.44 c-0.51,1-0.95,2.03-1.32,3.09c-0.37,1.06-0.47,2.86-1.16,3.72c-0.67,0.83-2.16,0.35-3.08,0.33c-1.36-0.03-2.71,0.04-4.06,0.21 c-1.72,0.22-4.81,0.42-5.85,2.03c-1.25,1.94,0.7,3.8,1.93,5.13c1.68,1.82,3.6,3.27,5.67,4.62c1.14,0.74,1.08,1.25,0.59,2.47 c-0.51,1.28-0.93,2.59-1.25,3.92c-0.44,1.86-1.34,5.14-0.4,6.93c1.16,2.23,3.65,1.11,5.37,0.35c2.37-1.05,4.49-2.47,6.49-4.1 c1.2-0.97,1.67-0.56,2.78,0.35c1.06,0.86,2.17,1.65,3.35,2.35c1.59,0.95,4.49,2.84,6.43,2.36c2.4-0.58,2-3.33,1.8-5.2 c-0.29-2.64-1.16-4.97-1.98-7.47c-0.5-1.54,0.7-1.87,1.83-2.64c1.09-0.73,2.12-1.54,3.09-2.42c1.41-1.28,4.24-3.58,3.84-5.73 c-0.45-2.42-4.05-2.66-6-2.93c-1.34-0.19-2.68-0.26-4.03-0.24C8.93-7.54,6.7-6.89,6.38-8.33z" style="animation-play-state:paused" ></path></g></g>
<g transform="translate(1224.0011595586213 651.2646785057738) rotate(46.239275825909594) scale(0.24111820402916886)" style="transform:matrix(0.166769, 0.174144, -0.174144, 0.166769, 1224, 651.265);animation-play-state:paused" ><g transform="matrix(0.9920735660570491,0.1256584240345623,-0.1256584240345623,0.9920735660570491,0,0)" style="transform:matrix(0.992074, 0.125658, -0.125658, 0.992074, 0, 0);animation-play-state:paused" ><path fill="#c1d0d8" d="M6.38-8.33C5.84-10.74,5-13.08,3.83-15.26c-0.85-1.58-1.98-4.16-4.16-3.86c-1.93,0.26-3.02,2.91-3.79,4.44 c-0.51,1-0.95,2.03-1.32,3.09c-0.37,1.06-0.47,2.86-1.16,3.72c-0.67,0.83-2.16,0.35-3.08,0.33c-1.36-0.03-2.71,0.04-4.06,0.21 c-1.72,0.22-4.81,0.42-5.85,2.03c-1.25,1.94,0.7,3.8,1.93,5.13c1.68,1.82,3.6,3.27,5.67,4.62c1.14,0.74,1.08,1.25,0.59,2.47 c-0.51,1.28-0.93,2.59-1.25,3.92c-0.44,1.86-1.34,5.14-0.4,6.93c1.16,2.23,3.65,1.11,5.37,0.35c2.37-1.05,4.49-2.47,6.49-4.1 c1.2-0.97,1.67-0.56,2.78,0.35c1.06,0.86,2.17,1.65,3.35,2.35c1.59,0.95,4.49,2.84,6.43,2.36c2.4-0.58,2-3.33,1.8-5.2 c-0.29-2.64-1.16-4.97-1.98-7.47c-0.5-1.54,0.7-1.87,1.83-2.64c1.09-0.73,2.12-1.54,3.09-2.42c1.41-1.28,4.24-3.58,3.84-5.73 c-0.45-2.42-4.05-2.66-6-2.93c-1.34-0.19-2.68-0.26-4.03-0.24C8.93-7.54,6.7-6.89,6.38-8.33z" style="animation-play-state:paused" ></path></g></g>
<g transform="translate(1234.5767110828672 478.87152372711927) rotate(103.65485057952178) scale(0.26865337049296567)" style="transform:matrix(-0.0634217, 0.26106, -0.26106, -0.0634217, 1234.58, 478.872);animation-play-state:paused" ><g transform="matrix(0.9955616292283798,0.09411186114477915,-0.09411186114477915,0.9955616292283798,0,0)" style="transform:matrix(0.995562, 0.0941119, -0.0941119, 0.995562, 0, 0);animation-play-state:paused" ><path fill="#c1d0d8" d="M6.38-8.33C5.84-10.74,5-13.08,3.83-15.26c-0.85-1.58-1.98-4.16-4.16-3.86c-1.93,0.26-3.02,2.91-3.79,4.44 c-0.51,1-0.95,2.03-1.32,3.09c-0.37,1.06-0.47,2.86-1.16,3.72c-0.67,0.83-2.16,0.35-3.08,0.33c-1.36-0.03-2.71,0.04-4.06,0.21 c-1.72,0.22-4.81,0.42-5.85,2.03c-1.25,1.94,0.7,3.8,1.93,5.13c1.68,1.82,3.6,3.27,5.67,4.62c1.14,0.74,1.08,1.25,0.59,2.47 c-0.51,1.28-0.93,2.59-1.25,3.92c-0.44,1.86-1.34,5.14-0.4,6.93c1.16,2.23,3.65,1.11,5.37,0.35c2.37-1.05,4.49-2.47,6.49-4.1 c1.2-0.97,1.67-0.56,2.78,0.35c1.06,0.86,2.17,1.65,3.35,2.35c1.59,0.95,4.49,2.84,6.43,2.36c2.4-0.58,2-3.33,1.8-5.2 c-0.29-2.64-1.16-4.97-1.98-7.47c-0.5-1.54,0.7-1.87,1.83-2.64c1.09-0.73,2.12-1.54,3.09-2.42c1.41-1.28,4.24-3.58,3.84-5.73 c-0.45-2.42-4.05-2.66-6-2.93c-1.34-0.19-2.68-0.26-4.03-0.24C8.93-7.54,6.7-6.89,6.38-8.33z" style="animation-play-state:paused" ></path></g></g>
<g transform="translate(157.1712474993802 465.49125413464236) rotate(325.12301341383505) scale(0.2943459491285686)" style="transform:matrix(0.241476, -0.168312, 0.168312, 0.241476, 157.171, 465.491);animation-play-state:paused" ><g transform="matrix(0.9984088899948893,0.05638872563884679,-0.05638872563884679,0.9984088899948893,0,0)" style="transform:matrix(0.998409, 0.0563887, -0.0563887, 0.998409, 0, 0);animation-play-state:paused" ><path fill="#c1d0d8" d="M6.38-8.33C5.84-10.74,5-13.08,3.83-15.26c-0.85-1.58-1.98-4.16-4.16-3.86c-1.93,0.26-3.02,2.91-3.79,4.44 c-0.51,1-0.95,2.03-1.32,3.09c-0.37,1.06-0.47,2.86-1.16,3.72c-0.67,0.83-2.16,0.35-3.08,0.33c-1.36-0.03-2.71,0.04-4.06,0.21 c-1.72,0.22-4.81,0.42-5.85,2.03c-1.25,1.94,0.7,3.8,1.93,5.13c1.68,1.82,3.6,3.27,5.67,4.62c1.14,0.74,1.08,1.25,0.59,2.47 c-0.51,1.28-0.93,2.59-1.25,3.92c-0.44,1.86-1.34,5.14-0.4,6.93c1.16,2.23,3.65,1.11,5.37,0.35c2.37-1.05,4.49-2.47,6.49-4.1 c1.2-0.97,1.67-0.56,2.78,0.35c1.06,0.86,2.17,1.65,3.35,2.35c1.59,0.95,4.49,2.84,6.43,2.36c2.4-0.58,2-3.33,1.8-5.2 c-0.29-2.64-1.16-4.97-1.98-7.47c-0.5-1.54,0.7-1.87,1.83-2.64c1.09-0.73,2.12-1.54,3.09-2.42c1.41-1.28,4.24-3.58,3.84-5.73 c-0.45-2.42-4.05-2.66-6-2.93c-1.34-0.19-2.68-0.26-4.03-0.24C8.93-7.54,6.7-6.89,6.38-8.33z" style="animation-play-state:paused" ></path></g></g>
<g transform="translate(575.5693276027035 371.81610599866366) rotate(200.70474210475388) scale(0.2975095127754673)" style="transform:matrix(-0.278295, -0.105185, 0.105185, -0.278295, 575.569, 371.816);animation-play-state:paused" ><g transform="matrix(0.9998915986971774,0.014723819300804148,-0.014723819300804148,0.9998915986971774,0,0)" style="transform:matrix(0.999892, 0.0147238, -0.0147238, 0.999892, 0, 0);animation-play-state:paused" ><path fill="#c1d0d8" d="M6.38-8.33C5.84-10.74,5-13.08,3.83-15.26c-0.85-1.58-1.98-4.16-4.16-3.86c-1.93,0.26-3.02,2.91-3.79,4.44 c-0.51,1-0.95,2.03-1.32,3.09c-0.37,1.06-0.47,2.86-1.16,3.72c-0.67,0.83-2.16,0.35-3.08,0.33c-1.36-0.03-2.71,0.04-4.06,0.21 c-1.72,0.22-4.81,0.42-5.85,2.03c-1.25,1.94,0.7,3.8,1.93,5.13c1.68,1.82,3.6,3.27,5.67,4.62c1.14,0.74,1.08,1.25,0.59,2.47 c-0.51,1.28-0.93,2.59-1.25,3.92c-0.44,1.86-1.34,5.14-0.4,6.93c1.16,2.23,3.65,1.11,5.37,0.35c2.37-1.05,4.49-2.47,6.49-4.1 c1.2-0.97,1.67-0.56,2.78,0.35c1.06,0.86,2.17,1.65,3.35,2.35c1.59,0.95,4.49,2.84,6.43,2.36c2.4-0.58,2-3.33,1.8-5.2 c-0.29-2.64-1.16-4.97-1.98-7.47c-0.5-1.54,0.7-1.87,1.83-2.64c1.09-0.73,2.12-1.54,3.09-2.42c1.41-1.28,4.24-3.58,3.84-5.73 c-0.45-2.42-4.05-2.66-6-2.93c-1.34-0.19-2.68-0.26-4.03-0.24C8.93-7.54,6.7-6.89,6.38-8.33z" style="animation-play-state:paused" ></path></g></g>
<g transform="translate(857.4070117424621 652.1509336758103) rotate(131.55655915266038) scale(0.26769635363854266)" style="transform:matrix(-0.177579, 0.200317, -0.200317, -0.177579, 857.407, 652.151);animation-play-state:paused" ><g transform="matrix(0.9996078403190622,-0.02800295649855829,0.02800295649855829,0.9996078403190622,0,0)" style="transform:matrix(0.999608, -0.028003, 0.028003, 0.999608, 0, 0);animation-play-state:paused" ><path fill="#c1d0d8" d="M6.38-8.33C5.84-10.74,5-13.08,3.83-15.26c-0.85-1.58-1.98-4.16-4.16-3.86c-1.93,0.26-3.02,2.91-3.79,4.44 c-0.51,1-0.95,2.03-1.32,3.09c-0.37,1.06-0.47,2.86-1.16,3.72c-0.67,0.83-2.16,0.35-3.08,0.33c-1.36-0.03-2.71,0.04-4.06,0.21 c-1.72,0.22-4.81,0.42-5.85,2.03c-1.25,1.94,0.7,3.8,1.93,5.13c1.68,1.82,3.6,3.27,5.67,4.62c1.14,0.74,1.08,1.25,0.59,2.47 c-0.51,1.28-0.93,2.59-1.25,3.92c-0.44,1.86-1.34,5.14-0.4,6.93c1.16,2.23,3.65,1.11,5.37,0.35c2.37-1.05,4.49-2.47,6.49-4.1 c1.2-0.97,1.67-0.56,2.78,0.35c1.06,0.86,2.17,1.65,3.35,2.35c1.59,0.95,4.49,2.84,6.43,2.36c2.4-0.58,2-3.33,1.8-5.2 c-0.29-2.64-1.16-4.97-1.98-7.47c-0.5-1.54,0.7-1.87,1.83-2.64c1.09-0.73,2.12-1.54,3.09-2.42c1.41-1.28,4.24-3.58,3.84-5.73 c-0.45-2.42-4.05-2.66-6-2.93c-1.34-0.19-2.68-0.26-4.03-0.24C8.93-7.54,6.7-6.89,6.38-8.33z" style="animation-play-state:paused" ></path></g></g>
<g transform="translate(755.0690310202655 354.42682119036806) rotate(120.86884469028034) scale(0.32404500355222937)" style="transform:matrix(-0.166259, 0.278142, -0.278142, -0.166259, 755.069, 354.427);animation-play-state:paused" ><g transform="matrix(0.9976358365778777,-0.06872217673763104,0.06872217673763104,0.9976358365778777,0,0)" style="transform:matrix(0.997636, -0.0687222, 0.0687222, 0.997636, 0, 0);animation-play-state:paused" ><path fill="#72cbfd" d="M6.38-8.33C5.84-10.74,5-13.08,3.83-15.26c-0.85-1.58-1.98-4.16-4.16-3.86c-1.93,0.26-3.02,2.91-3.79,4.44 c-0.51,1-0.95,2.03-1.32,3.09c-0.37,1.06-0.47,2.86-1.16,3.72c-0.67,0.83-2.16,0.35-3.08,0.33c-1.36-0.03-2.71,0.04-4.06,0.21 c-1.72,0.22-4.81,0.42-5.85,2.03c-1.25,1.94,0.7,3.8,1.93,5.13c1.68,1.82,3.6,3.27,5.67,4.62c1.14,0.74,1.08,1.25,0.59,2.47 c-0.51,1.28-0.93,2.59-1.25,3.92c-0.44,1.86-1.34,5.14-0.4,6.93c1.16,2.23,3.65,1.11,5.37,0.35c2.37-1.05,4.49-2.47,6.49-4.1 c1.2-0.97,1.67-0.56,2.78,0.35c1.06,0.86,2.17,1.65,3.35,2.35c1.59,0.95,4.49,2.84,6.43,2.36c2.4-0.58,2-3.33,1.8-5.2 c-0.29-2.64-1.16-4.97-1.98-7.47c-0.5-1.54,0.7-1.87,1.83-2.64c1.09-0.73,2.12-1.54,3.09-2.42c1.41-1.28,4.24-3.58,3.84-5.73 c-0.45-2.42-4.05-2.66-6-2.93c-1.34-0.19-2.68-0.26-4.03-0.24C8.93-7.54,6.7-6.89,6.38-8.33z" style="animation-play-state:paused" ></path></g></g>
<g transform="translate(20.944780918814253 21.631340131022533) rotate(199.81880043245314) scale(0.28529734696164966)" style="transform:matrix(-0.268399, -0.0967291, 0.0967291, -0.268399, 20.9448, 21.6313);animation-play-state:paused" ><g transform="matrix(0.9945021024262992,-0.10471660933047153,0.10471660933047153,0.9945021024262992,0,0)" style="transform:matrix(0.994502, -0.104717, 0.104717, 0.994502, 0, 0);animation-play-state:paused" ><path fill="#c1d0d8" d="M6.38-8.33C5.84-10.74,5-13.08,3.83-15.26c-0.85-1.58-1.98-4.16-4.16-3.86c-1.93,0.26-3.02,2.91-3.79,4.44 c-0.51,1-0.95,2.03-1.32,3.09c-0.37,1.06-0.47,2.86-1.16,3.72c-0.67,0.83-2.16,0.35-3.08,0.33c-1.36-0.03-2.71,0.04-4.06,0.21 c-1.72,0.22-4.81,0.42-5.85,2.03c-1.25,1.94,0.7,3.8,1.93,5.13c1.68,1.82,3.6,3.27,5.67,4.62c1.14,0.74,1.08,1.25,0.59,2.47 c-0.51,1.28-0.93,2.59-1.25,3.92c-0.44,1.86-1.34,5.14-0.4,6.93c1.16,2.23,3.65,1.11,5.37,0.35c2.37-1.05,4.49-2.47,6.49-4.1 c1.2-0.97,1.67-0.56,2.78,0.35c1.06,0.86,2.17,1.65,3.35,2.35c1.59,0.95,4.49,2.84,6.43,2.36c2.4-0.58,2-3.33,1.8-5.2 c-0.29-2.64-1.16-4.97-1.98-7.47c-0.5-1.54,0.7-1.87,1.83-2.64c1.09-0.73,2.12-1.54,3.09-2.42c1.41-1.28,4.24-3.58,3.84-5.73 c-0.45-2.42-4.05-2.66-6-2.93c-1.34-0.19-2.68-0.26-4.03-0.24C8.93-7.54,6.7-6.89,6.38-8.33z" style="animation-play-state:paused" ></path></g></g>
<g transform="translate(1329.3352665907514 553.1952998933286) rotate(205.40475671473015) scale(0.2800135038737711)" style="transform:matrix(-0.252936, -0.120129, 0.120129, -0.252936, 1329.34, 553.195);animation-play-state:paused" ><g transform="matrix(0.9909806241343743,-0.13400523344349627,0.13400523344349627,0.9909806241343743,0,0)" style="transform:matrix(0.990981, -0.134005, 0.134005, 0.990981, 0, 0);animation-play-state:paused" ><path fill="#c1d0d8" d="M6.38-8.33C5.84-10.74,5-13.08,3.83-15.26c-0.85-1.58-1.98-4.16-4.16-3.86c-1.93,0.26-3.02,2.91-3.79,4.44 c-0.51,1-0.95,2.03-1.32,3.09c-0.37,1.06-0.47,2.86-1.16,3.72c-0.67,0.83-2.16,0.35-3.08,0.33c-1.36-0.03-2.71,0.04-4.06,0.21 c-1.72,0.22-4.81,0.42-5.85,2.03c-1.25,1.94,0.7,3.8,1.93,5.13c1.68,1.82,3.6,3.27,5.67,4.62c1.14,0.74,1.08,1.25,0.59,2.47 c-0.51,1.28-0.93,2.59-1.25,3.92c-0.44,1.86-1.34,5.14-0.4,6.93c1.16,2.23,3.65,1.11,5.37,0.35c2.37-1.05,4.49-2.47,6.49-4.1 c1.2-0.97,1.67-0.56,2.78,0.35c1.06,0.86,2.17,1.65,3.35,2.35c1.59,0.95,4.49,2.84,6.43,2.36c2.4-0.58,2-3.33,1.8-5.2 c-0.29-2.64-1.16-4.97-1.98-7.47c-0.5-1.54,0.7-1.87,1.83-2.64c1.09-0.73,2.12-1.54,3.09-2.42c1.41-1.28,4.24-3.58,3.84-5.73 c-0.45-2.42-4.05-2.66-6-2.93c-1.34-0.19-2.68-0.26-4.03-0.24C8.93-7.54,6.7-6.89,6.38-8.33z" style="animation-play-state:paused" ></path></g></g>
<g transform="translate(763.6254464864666 213.6365735863055) rotate(44.452089698837405) scale(0.2646422940954018)" style="transform:matrix(0.188911, 0.185332, -0.185332, 0.188911, 763.625, 213.637);animation-play-state:paused" ><g transform="matrix(0.9878442734814197,-0.15544674763392827,0.15544674763392827,0.9878442734814197,0,0)" style="transform:matrix(0.987844, -0.155447, 0.155447, 0.987844, 0, 0);animation-play-state:paused" ><path fill="#72cbfd" d="M6.38-8.33C5.84-10.74,5-13.08,3.83-15.26c-0.85-1.58-1.98-4.16-4.16-3.86c-1.93,0.26-3.02,2.91-3.79,4.44 c-0.51,1-0.95,2.03-1.32,3.09c-0.37,1.06-0.47,2.86-1.16,3.72c-0.67,0.83-2.16,0.35-3.08,0.33c-1.36-0.03-2.71,0.04-4.06,0.21 c-1.72,0.22-4.81,0.42-5.85,2.03c-1.25,1.94,0.7,3.8,1.93,5.13c1.68,1.82,3.6,3.27,5.67,4.62c1.14,0.74,1.08,1.25,0.59,2.47 c-0.51,1.28-0.93,2.59-1.25,3.92c-0.44,1.86-1.34,5.14-0.4,6.93c1.16,2.23,3.65,1.11,5.37,0.35c2.37-1.05,4.49-2.47,6.49-4.1 c1.2-0.97,1.67-0.56,2.78,0.35c1.06,0.86,2.17,1.65,3.35,2.35c1.59,0.95,4.49,2.84,6.43,2.36c2.4-0.58,2-3.33,1.8-5.2 c-0.29-2.64-1.16-4.97-1.98-7.47c-0.5-1.54,0.7-1.87,1.83-2.64c1.09-0.73,2.12-1.54,3.09-2.42c1.41-1.28,4.24-3.58,3.84-5.73 c-0.45-2.42-4.05-2.66-6-2.93c-1.34-0.19-2.68-0.26-4.03-0.24C8.93-7.54,6.7-6.89,6.38-8.33z" style="animation-play-state:paused" ></path></g></g>
<g transform="translate(590.3804527065364 59.08627545803155) rotate(338.03393289014247) scale(0.24733197450444666)" style="transform:matrix(0.229377, -0.0925163, 0.0925163, 0.229377, 590.38, 59.0863);animation-play-state:paused" ><g transform="matrix(0.9856817633328138,-0.16861631425551593,0.16861631425551593,0.9856817633328138,0,0)" style="transform:matrix(0.985682, -0.168616, 0.168616, 0.985682, 0, 0);animation-play-state:paused" ><path fill="#72cbfd" d="M6.38-8.33C5.84-10.74,5-13.08,3.83-15.26c-0.85-1.58-1.98-4.16-4.16-3.86c-1.93,0.26-3.02,2.91-3.79,4.44 c-0.51,1-0.95,2.03-1.32,3.09c-0.37,1.06-0.47,2.86-1.16,3.72c-0.67,0.83-2.16,0.35-3.08,0.33c-1.36-0.03-2.71,0.04-4.06,0.21 c-1.72,0.22-4.81,0.42-5.85,2.03c-1.25,1.94,0.7,3.8,1.93,5.13c1.68,1.82,3.6,3.27,5.67,4.62c1.14,0.74,1.08,1.25,0.59,2.47 c-0.51,1.28-0.93,2.59-1.25,3.92c-0.44,1.86-1.34,5.14-0.4,6.93c1.16,2.23,3.65,1.11,5.37,0.35c2.37-1.05,4.49-2.47,6.49-4.1 c1.2-0.97,1.67-0.56,2.78,0.35c1.06,0.86,2.17,1.65,3.35,2.35c1.59,0.95,4.49,2.84,6.43,2.36c2.4-0.58,2-3.33,1.8-5.2 c-0.29-2.64-1.16-4.97-1.98-7.47c-0.5-1.54,0.7-1.87,1.83-2.64c1.09-0.73,2.12-1.54,3.09-2.42c1.41-1.28,4.24-3.58,3.84-5.73 c-0.45-2.42-4.05-2.66-6-2.93c-1.34-0.19-2.68-0.26-4.03-0.24C8.93-7.54,6.7-6.89,6.38-8.33z" style="animation-play-state:paused" ></path></g></g>
<g transform="translate(1106.6860582604072 204.4471210648073) rotate(257.5437877931649) scale(0.2781228769508182)" style="transform:matrix(-0.0599892, -0.271576, 0.271576, -0.0599892, 1106.69, 204.447);animation-play-state:paused" ><g transform="matrix(0.9848184973796204,-0.17358723230395337,0.17358723230395337,0.9848184973796204,0,0)" style="transform:matrix(0.984818, -0.173587, 0.173587, 0.984818, 0, 0);animation-play-state:paused" ><path fill="#c1d0d8" d="M6.38-8.33C5.84-10.74,5-13.08,3.83-15.26c-0.85-1.58-1.98-4.16-4.16-3.86c-1.93,0.26-3.02,2.91-3.79,4.44 c-0.51,1-0.95,2.03-1.32,3.09c-0.37,1.06-0.47,2.86-1.16,3.72c-0.67,0.83-2.16,0.35-3.08,0.33c-1.36-0.03-2.71,0.04-4.06,0.21 c-1.72,0.22-4.81,0.42-5.85,2.03c-1.25,1.94,0.7,3.8,1.93,5.13c1.68,1.82,3.6,3.27,5.67,4.62c1.14,0.74,1.08,1.25,0.59,2.47 c-0.51,1.28-0.93,2.59-1.25,3.92c-0.44,1.86-1.34,5.14-0.4,6.93c1.16,2.23,3.65,1.11,5.37,0.35c2.37-1.05,4.49-2.47,6.49-4.1 c1.2-0.97,1.67-0.56,2.78,0.35c1.06,0.86,2.17,1.65,3.35,2.35c1.59,0.95,4.49,2.84,6.43,2.36c2.4-0.58,2-3.33,1.8-5.2 c-0.29-2.64-1.16-4.97-1.98-7.47c-0.5-1.54,0.7-1.87,1.83-2.64c1.09-0.73,2.12-1.54,3.09-2.42c1.41-1.28,4.24-3.58,3.84-5.73 c-0.45-2.42-4.05-2.66-6-2.93c-1.34-0.19-2.68-0.26-4.03-0.24C8.93-7.54,6.7-6.89,6.38-8.33z" style="animation-play-state:paused" ></path></g></g>
<g transform="translate(369.27962007931364 198.03319687686576) rotate(233.44070492395534) scale(0.3111698957452204)" style="transform:matrix(-0.18535, -0.249944, 0.249944, -0.18535, 369.28, 198.033);animation-play-state:paused" ><g transform="matrix(0.9853374282346999,-0.17061697605990864,0.17061697605990864,0.9853374282346999,0,0)" style="transform:matrix(0.985337, -0.170617, 0.170617, 0.985337, 0, 0);animation-play-state:paused" ><path fill="#c1d0d8" d="M6.38-8.33C5.84-10.74,5-13.08,3.83-15.26c-0.85-1.58-1.98-4.16-4.16-3.86c-1.93,0.26-3.02,2.91-3.79,4.44 c-0.51,1-0.95,2.03-1.32,3.09c-0.37,1.06-0.47,2.86-1.16,3.72c-0.67,0.83-2.16,0.35-3.08,0.33c-1.36-0.03-2.71,0.04-4.06,0.21 c-1.72,0.22-4.81,0.42-5.85,2.03c-1.25,1.94,0.7,3.8,1.93,5.13c1.68,1.82,3.6,3.27,5.67,4.62c1.14,0.74,1.08,1.25,0.59,2.47 c-0.51,1.28-0.93,2.59-1.25,3.92c-0.44,1.86-1.34,5.14-0.4,6.93c1.16,2.23,3.65,1.11,5.37,0.35c2.37-1.05,4.49-2.47,6.49-4.1 c1.2-0.97,1.67-0.56,2.78,0.35c1.06,0.86,2.17,1.65,3.35,2.35c1.59,0.95,4.49,2.84,6.43,2.36c2.4-0.58,2-3.33,1.8-5.2 c-0.29-2.64-1.16-4.97-1.98-7.47c-0.5-1.54,0.7-1.87,1.83-2.64c1.09-0.73,2.12-1.54,3.09-2.42c1.41-1.28,4.24-3.58,3.84-5.73 c-0.45-2.42-4.05-2.66-6-2.93c-1.34-0.19-2.68-0.26-4.03-0.24C8.93-7.54,6.7-6.89,6.38-8.33z" style="animation-play-state:paused" ></path></g></g>
<g transform="translate(287.8910314207081 577.3486037711571) rotate(5.2283694663410785) scale(0.32974609028060364)" opacity="0.72841" style="transform:matrix(0.328374, 0.0300483, -0.0300483, 0.328374, 287.891, 577.349);opacity:0.72841;animation-play-state:paused" ><circle cx="0" cy="0" r="5" fill="#72cbfd" style="animation-play-state:paused" ></circle></g>
<g transform="translate(1313.802329843517 465.795080665895) rotate(250.98056068142915) scale(0.28355324469454934)" opacity="0.716921" style="transform:matrix(-0.0924069, -0.268074, 0.268074, -0.0924069, 1313.8, 465.795);opacity:0.716921;animation-play-state:paused" ><circle cx="0" cy="0" r="5" fill="#c1d0d8" style="animation-play-state:paused" ></circle></g>
<g transform="translate(550.903053667758 128.8012633627778) rotate(234.35605796834028) scale(0.23932132860682154)" opacity="0.705464" style="transform:matrix(-0.139464, -0.194485, 0.194485, -0.139464, 550.903, 128.801);opacity:0.705464;animation-play-state:paused" ><circle cx="0" cy="0" r="5" fill="#c1d0d8" style="animation-play-state:paused" ></circle></g>
<g transform="translate(1002.3943390627035 485.0502729595972) rotate(47.91936544640883) scale(0.28232305358593146)" opacity="0.69405" style="transform:matrix(0.189206, 0.209541, -0.209541, 0.189206, 1002.39, 485.05);opacity:0.69405;animation-play-state:paused" ><circle cx="0" cy="0" r="5" fill="#c1d0d8" style="animation-play-state:paused" ></circle></g>
<g transform="translate(1022.762617004215 443.7854755188088) rotate(317.15782421273445) scale(0.3089774020668711)" opacity="0.682689" style="transform:matrix(0.226551, -0.210099, 0.210099, 0.226551, 1022.76, 443.785);opacity:0.682689;animation-play-state:paused" ><circle cx="0" cy="0" r="5" fill="#72cbfd" style="animation-play-state:paused" ></circle></g>
<g transform="translate(996.0599161630275 603.2930685711218) rotate(31.64634467983424) scale(0.29354138341519204)" opacity="0.671398" style="transform:matrix(0.249893, 0.154014, -0.154014, 0.249893, 996.06, 603.293);opacity:0.671398;animation-play-state:paused" ><circle cx="0" cy="0" r="5" fill="#c1d0d8" style="animation-play-state:paused" ></circle></g>
<g transform="translate(85.36279868023722 575.1504569568772) rotate(68.44004326342164) scale(0.26369708175387)" opacity="0.660187" style="transform:matrix(0.096902, 0.245247, -0.245247, 0.096902, 85.3628, 575.15);opacity:0.660187;animation-play-state:paused" ><circle cx="0" cy="0" r="5" fill="#72cbfd" style="animation-play-state:paused" ></circle></g>
<g transform="translate(249.83798254048148 237.11331968444188) rotate(117.22846122915635) scale(0.29544021934895165)" opacity="0.64907" style="transform:matrix(-0.135176, 0.262702, -0.262702, -0.135176, 249.838, 237.113);opacity:0.64907;animation-play-state:paused" ><circle cx="0" cy="0" r="5" fill="#c1d0d8" style="animation-play-state:paused" ></circle></g>
<g transform="translate(246.58617841940858 606.5675766545579) rotate(148.04590710365147) scale(0.3229924952870153)" opacity="0.638064" style="transform:matrix(-0.27405, 0.17094, -0.17094, -0.27405, 246.586, 606.568);opacity:0.638064;animation-play-state:paused" ><circle cx="0" cy="0" r="5" fill="#72cbfd" style="animation-play-state:paused" ></circle></g>
<g transform="translate(1223.6433109888703 203.21350761042905) rotate(270.5783020474746) scale(0.300862638659164)" opacity="0.627184" style="transform:matrix(0.00303667, -0.300847, 0.300847, 0.00303667, 1223.64, 203.214);opacity:0.627184;animation-play-state:paused" ><circle cx="0" cy="0" r="5" fill="#c1d0d8" style="animation-play-state:paused" ></circle></g>
<g transform="translate(374.2414419659603 431.6272022578048) rotate(283.7897367369629) scale(0.24889583832020726)" opacity="0.616449" style="transform:matrix(0.0593267, -0.241722, 0.241722, 0.0593267, 374.241, 431.627);opacity:0.616449;animation-play-state:paused" ><circle cx="0" cy="0" r="5" fill="#c1d0d8" style="animation-play-state:paused" ></circle></g>
<g transform="translate(143.2935493201603 61.75068702879247) rotate(108.28375247312329) scale(0.2735309207411109)" opacity="0.605877" style="transform:matrix(-0.085813, 0.259722, -0.259722, -0.085813, 143.294, 61.7507);opacity:0.605877;animation-play-state:paused" ><circle cx="0" cy="0" r="5" fill="#72cbfd" style="animation-play-state:paused" ></circle></g>
<g transform="translate(432.19156924277246 309.67136091870015) rotate(283.18058448543604) scale(0.29421953858571304)" opacity="0.595493" style="transform:matrix(0.0670882, -0.286469, 0.286469, 0.0670882, 432.192, 309.671);opacity:0.595493;animation-play-state:paused" ><circle cx="0" cy="0" r="5" fill="#c1d0d8" style="animation-play-state:paused" ></circle></g>
<g transform="translate(1081.423771314991 598.3636117917131) rotate(250.05928108907327) scale(0.28468205891726944)" opacity="0.585321" style="transform:matrix(-0.0970902, -0.267614, 0.267614, -0.0970902, 1081.42, 598.364);opacity:0.585321;animation-play-state:paused" ><circle cx="0" cy="0" r="5" fill="#72cbfd" style="animation-play-state:paused" ></circle></g>
<g transform="translate(1000.4782170463615 424.8440954994385) rotate(101.52123952127707) scale(0.24876429722066457)" opacity="0.57539" style="transform:matrix(-0.049686, 0.243752, -0.243752, -0.049686, 1000.48, 424.844);opacity:0.57539;animation-play-state:paused" ><circle cx="0" cy="0" r="5" fill="#c1d0d8" style="animation-play-state:paused" ></circle></g>
<g transform="translate(43.17042352243988 372.1603158204217) rotate(0.08388224894788188) scale(0.3313654145009758)" opacity="0.565732" style="transform:matrix(0.331365, 0.000485126, -0.000485126, 0.331365, 43.1704, 372.16);opacity:0.565732;animation-play-state:paused" ><circle cx="0" cy="0" r="5" fill="#72cbfd" style="animation-play-state:paused" ></circle></g>
<g transform="translate(352.7888111025788 280.776502270398) rotate(33.3658313518773) scale(0.3120087050120983)" opacity="0.556389" style="transform:matrix(0.260582, 0.171599, -0.171599, 0.260582, 352.789, 280.776);opacity:0.556389;animation-play-state:paused" ><circle cx="0" cy="0" r="5" fill="#c1d0d8" style="animation-play-state:paused" ></circle></g>
<g transform="translate(726.4935211747264 306.1605235507519) rotate(323.35364787927114) scale(0.32568944738216127)" opacity="0.547406" style="transform:matrix(0.261312, -0.194396, 0.194396, 0.261312, 726.494, 306.161);opacity:0.547406;animation-play-state:paused" ><circle cx="0" cy="0" r="5" fill="#c1d0d8" style="animation-play-state:paused" ></circle></g>
<g transform="translate(1210.271607446586 235.2039135360882) rotate(43.13840341946914) scale(0.24348570686141274)" opacity="0.538839" style="transform:matrix(0.177673, 0.166487, -0.166487, 0.177673, 1210.27, 235.204);opacity:0.538839;animation-play-state:paused" ><circle cx="0" cy="0" r="5" fill="#72cbfd" style="animation-play-state:paused" ></circle></g>
<g transform="translate(613.1916084812067 589.1277181490525) rotate(247.61321729175205) scale(0.30232194953473307)" opacity="0.530759" style="transform:matrix(-0.115141, -0.279537, 0.279537, -0.115141, 613.192, 589.128);opacity:0.530759;animation-play-state:paused" ><circle cx="0" cy="0" r="5" fill="#c1d0d8" style="animation-play-state:paused" ></circle></g>
<g transform="translate(1177.221914708035 480.55013704086997) rotate(84.70237360288189) scale(0.31093499356760984)" opacity="0.523251" style="transform:matrix(0.0287084, 0.309607, -0.309607, 0.0287084, 1177.22, 480.55);opacity:0.523251;animation-play-state:paused" ><circle cx="0" cy="0" r="5" fill="#c1d0d8" style="animation-play-state:paused" ></circle></g>
<g transform="translate(1031.79457009152 183.7255029141017) rotate(170.90284812644958) scale(0.32570734569373455)" opacity="0.516429" style="transform:matrix(-0.32161, 0.0514973, -0.0514973, -0.32161, 1031.79, 183.726);opacity:0.516429;animation-play-state:paused" ><circle cx="0" cy="0" r="5" fill="#72cbfd" style="animation-play-state:paused" ></circle></g>
<g transform="translate(1255.6216265852177 587.2702527130845) rotate(139.25280005816177) scale(0.22456292356923674)" opacity="0.51044" style="transform:matrix(-0.170128, 0.146577, -0.146577, -0.170128, 1255.62, 587.27);opacity:0.51044;animation-play-state:paused" ><circle cx="0" cy="0" r="5" fill="#c1d0d8" style="animation-play-state:paused" ></circle></g>
<g transform="translate(790.4136031447014 393.07772265078125) rotate(258.50468430149016) scale(0.24552993147085186)" opacity="0.505493" style="transform:matrix(-0.0489312, -0.240605, 0.240605, -0.0489312, 790.414, 393.078);opacity:0.505493;animation-play-state:paused" ><circle cx="0" cy="0" r="5" fill="#c1d0d8" style="animation-play-state:paused" ></circle></g>
<g transform="translate(1141.369777141773 301.4623717022837) rotate(254.3788181272539) scale(0.27163027330514417)" opacity="0.501886" style="transform:matrix(-0.0731435, -0.261597, 0.261597, -0.0731435, 1141.37, 301.462);opacity:0.501886;animation-play-state:paused" ><circle cx="0" cy="0" r="5" fill="#72cbfd" style="animation-play-state:paused" ></circle></g>
<g transform="translate(1054.4658809313557 238.59555876934982) rotate(29.748510992673857) scale(0.26814674448950154)" opacity="0.500085" style="transform:matrix(0.232808, 0.133053, -0.133053, 0.232808, 1054.47, 238.596);opacity:0.500085;animation-play-state:paused" ><circle cx="0" cy="0" r="5" fill="#72cbfd" style="animation-play-state:paused" ></circle></g>
<g transform="translate(162.25226706425994 576.2011959633076) rotate(353.34563350188733) scale(0.2793113692010952)" opacity="0.500721" style="transform:matrix(0.27743, -0.0323665, 0.0323665, 0.27743, 162.252, 576.201);opacity:0.500721;animation-play-state:paused" ><circle cx="0" cy="0" r="5" fill="#c1d0d8" style="animation-play-state:paused" ></circle></g>
<g transform="translate(33.56361297954751 504.26581312686494) rotate(137.70815735159655) scale(0.22902746662993992)" opacity="0.503498" style="transform:matrix(-0.169418, 0.154114, -0.154114, -0.169418, 33.5636, 504.266);opacity:0.503498;animation-play-state:paused" ><circle cx="0" cy="0" r="5" fill="#72cbfd" style="animation-play-state:paused" ></circle></g>
<g transform="translate(1249.4487549499993 0.6237981197676581) rotate(2.1608699970274614) scale(0.23594726205380526)" opacity="0.50782" style="transform:matrix(0.235779, 0.00889648, -0.00889648, 0.235779, 1249.45, 0.623798);opacity:0.50782;animation-play-state:paused" ><circle cx="0" cy="0" r="5" fill="#c1d0d8" style="animation-play-state:paused" ></circle></g>
<g transform="translate(1090.052889396293 619.5474142391126) rotate(261.19370776319334) scale(0.24163862612160325)" opacity="0.513319" style="transform:matrix(-0.0369936, -0.23879, 0.23879, -0.0369936, 1090.05, 619.547);opacity:0.513319;animation-play-state:paused" ><circle cx="0" cy="0" r="5" fill="#72cbfd" style="animation-play-state:paused" ></circle></g>
<g transform="translate(277.3052844744736 359.4949127242303) rotate(65.94138193058014) scale(0.2950918519338242)" opacity="0.519746" style="transform:matrix(0.1203, 0.269457, -0.269457, 0.1203, 277.305, 359.495);opacity:0.519746;animation-play-state:paused" ><circle cx="0" cy="0" r="5" fill="#72cbfd" style="animation-play-state:paused" ></circle></g>
<g transform="translate(545.7082562880597 553.5058853773636) rotate(243.19190511921644) scale(0.2736659257061765)" opacity="0.526927" style="transform:matrix(-0.123424, -0.244253, 0.244253, -0.123424, 545.708, 553.506);opacity:0.526927;animation-play-state:paused" ><circle cx="0" cy="0" r="5" fill="#72cbfd" style="animation-play-state:paused" ></circle></g>
<g transform="translate(187.5477662836059 22.391469643152647) rotate(127.24491597870116) scale(0.28435949647680964)" opacity="0.534733" style="transform:matrix(-0.172101, 0.226366, -0.226366, -0.172101, 187.548, 22.3915);opacity:0.534733;animation-play-state:paused" ><circle cx="0" cy="0" r="5" fill="#72cbfd" style="animation-play-state:paused" ></circle></g>
<g transform="translate(879.6802013940513 620.3278422017175) rotate(355.56756003229174) scale(0.23977548533968518)" opacity="0.543067" style="transform:matrix(0.239058, -0.0185307, 0.0185307, 0.239058, 879.68, 620.328);opacity:0.543067;animation-play-state:paused" ><circle cx="0" cy="0" r="5" fill="#72cbfd" style="animation-play-state:paused" ></circle></g>
<g transform="translate(565.0352020339957 258.9912785098884) rotate(92.0549282473128) scale(0.2642172710724087)" opacity="0.551849" style="transform:matrix(-0.00947421, 0.264047, -0.264047, -0.00947421, 565.035, 258.991);opacity:0.551849;animation-play-state:paused" ><circle cx="0" cy="0" r="5" fill="#72cbfd" style="animation-play-state:paused" ></circle></g>
<g transform="translate(533.7805828040462 536.965279620269) rotate(356.19148992441984) scale(0.27905490025509994)" opacity="0.561018" style="transform:matrix(0.278439, -0.0185354, 0.0185354, 0.278439, 533.781, 536.965);opacity:0.561018;animation-play-state:paused" ><circle cx="0" cy="0" r="5" fill="#72cbfd" style="animation-play-state:paused" ></circle></g>
<g transform="translate(398.16368346273464 653.7537515223376) rotate(317.74633892529727) scale(0.2671740043957881)" opacity="0.570524" style="transform:matrix(0.197756, -0.179652, 0.179652, 0.197756, 398.164, 653.754);opacity:0.570524;animation-play-state:paused" ><circle cx="0" cy="0" r="5" fill="#72cbfd" style="animation-play-state:paused" ></circle></g>
<g transform="translate(228.15308955057583 408.5903554223701) rotate(211.24430778937685) scale(0.2254769652048773)" opacity="0.580323" style="transform:matrix(-0.192775, -0.116952, 0.116952, -0.192775, 228.153, 408.59);opacity:0.580323;animation-play-state:paused" ><circle cx="0" cy="0" r="5" fill="#72cbfd" style="animation-play-state:paused" ></circle></g>
<g transform="translate(755.2127423063745 546.406074597503) rotate(30.270136372931653) scale(0.2695827850537367)" opacity="0.590378" style="transform:matrix(0.232827, 0.135891, -0.135891, 0.232827, 755.213, 546.406);opacity:0.590378;animation-play-state:paused" ><circle cx="0" cy="0" r="5" fill="#c1d0d8" style="animation-play-state:paused" ></circle></g>
<g transform="translate(1102.6024458743468 613.6859206032157) rotate(146.7077903712161) scale(0.2496779179966461)" opacity="0.600659" style="transform:matrix(-0.208701, 0.13705, -0.13705, -0.208701, 1102.6, 613.686);opacity:0.600659;animation-play-state:paused" ><circle cx="0" cy="0" r="5" fill="#72cbfd" style="animation-play-state:paused" ></circle></g>
<g transform="translate(452.212574772636 505.4051777800654) rotate(226.83034766484292) scale(0.3202710302289091)" opacity="0.611141" style="transform:matrix(-0.219117, -0.233584, 0.233584, -0.219117, 452.213, 505.405);opacity:0.611141;animation-play-state:paused" ><circle cx="0" cy="0" r="5" fill="#c1d0d8" style="animation-play-state:paused" ></circle></g>
<g transform="translate(459.57702996487666 374.6524300624405) rotate(346.67312019197897) scale(0.24301980756211827)" opacity="0.621796" style="transform:matrix(0.236476, -0.0560176, 0.0560176, 0.236476, 459.577, 374.652);opacity:0.621796;animation-play-state:paused" ><circle cx="0" cy="0" r="5" fill="#72cbfd" style="animation-play-state:paused" ></circle></g>
<g transform="translate(1134.2096085078235 119.0322506354661) rotate(253.31096539813336) scale(0.2314970546539467)" opacity="0.632606" style="transform:matrix(-0.0664807, -0.221746, 0.221746, -0.0664807, 1134.21, 119.032);opacity:0.632606;animation-play-state:paused" ><circle cx="0" cy="0" r="5" fill="#c1d0d8" style="animation-play-state:paused" ></circle></g>
<g transform="translate(888.5354906678346 222.2947057752574) rotate(189.12017422832747) scale(0.23559140901232845)" opacity="0.643553" style="transform:matrix(-0.232613, -0.0373426, 0.0373426, -0.232613, 888.535, 222.295);opacity:0.643553;animation-play-state:paused" ><circle cx="0" cy="0" r="5" fill="#72cbfd" style="animation-play-state:paused" ></circle></g>
<g transform="translate(431.0054893973373 547.6880437831896) rotate(71.61119195303083) scale(0.28586064632347746)" opacity="0.654616" style="transform:matrix(0.0901787, 0.271264, -0.271264, 0.0901787, 431.005, 547.688);opacity:0.654616;animation-play-state:paused" ><circle cx="0" cy="0" r="5" fill="#c1d0d8" style="animation-play-state:paused" ></circle></g>
<g transform="translate(525.3278773614976 84.47077150580432) rotate(7.489082926858561) scale(0.31892634320314384)" opacity="0.665781" style="transform:matrix(0.316206, 0.041568, -0.041568, 0.316206, 525.328, 84.4708);opacity:0.665781;animation-play-state:paused" ><circle cx="0" cy="0" r="5" fill="#c1d0d8" style="animation-play-state:paused" ></circle></g>
<g transform="translate(621.1648896530437 41.88249269494098) rotate(109.52121005641817) scale(0.24312481608789782)" opacity="0.677033" style="transform:matrix(-0.0812416, 0.229149, -0.229149, -0.0812416, 621.165, 41.8825);opacity:0.677033;animation-play-state:paused" ><circle cx="0" cy="0" r="5" fill="#72cbfd" style="animation-play-state:paused" ></circle></g>
<g transform="translate(971.6750850082801 542.7225450160523) rotate(259.1227997506902) scale(0.28360305833730887)" opacity="0.688362" style="transform:matrix(-0.0535172, -0.278508, 0.278508, -0.0535172, 971.675, 542.723);opacity:0.688362;animation-play-state:paused" ><circle cx="0" cy="0" r="5" fill="#c1d0d8" style="animation-play-state:paused" ></circle></g>
<g transform="translate(28.597030005788078 514.3826828069707) rotate(197.60122446852333) scale(0.2248135232335736)" opacity="0.69975" style="transform:matrix(-0.214289, -0.0679814, 0.0679814, -0.214289, 28.597, 514.383);opacity:0.69975;animation-play-state:paused" ><circle cx="0" cy="0" r="5" fill="#c1d0d8" style="animation-play-state:paused" ></circle></g>
<g transform="translate(520.620261176869 454.3541944224569) rotate(148.33357112296025) scale(0.23628876501541954)" opacity="0.711187" style="transform:matrix(-0.20111, 0.124045, -0.124045, -0.20111, 520.62, 454.354);opacity:0.711187;animation-play-state:paused" ><circle cx="0" cy="0" r="5" fill="#c1d0d8" style="animation-play-state:paused" ></circle></g>
<g transform="translate(155.79702376083665 549.5004126328058) rotate(219.41106350022986) scale(0.30131039965671885)" opacity="0.722662" style="transform:matrix(-0.232796, -0.191296, 0.191296, -0.232796, 155.797, 549.5);opacity:0.722662;animation-play-state:paused" ><circle cx="0" cy="0" r="5" fill="#72cbfd" style="animation-play-state:paused" ></circle></g>
<g transform="translate(391.71551423222303 82.37798282448854) rotate(305.6406650209432) scale(0.2804036591280323)" opacity="0.734164" style="transform:matrix(0.163391, -0.227881, 0.227881, 0.163391, 391.716, 82.378);opacity:0.734164;animation-play-state:paused" ><circle cx="0" cy="0" r="5" fill="#c1d0d8" style="animation-play-state:paused" ></circle></g>
<g transform="translate(389.1675045607242 313.63522313210865) rotate(251.67821648049468) scale(0.22827918491253707)" opacity="0.74568" style="transform:matrix(-0.0717603, -0.216707, 0.216707, -0.0717603, 389.168, 313.635);opacity:0.74568;animation-play-state:paused" ><circle cx="0" cy="0" r="5" fill="#c1d0d8" style="animation-play-state:paused" ></circle></g>
<g transform="translate(958.6479025386908 533.9122778372032) rotate(82.45412411378706) scale(0.26166361783067105)" opacity="0.7572" style="transform:matrix(0.0343617, 0.259398, -0.259398, 0.0343617, 958.648, 533.912);opacity:0.7572;animation-play-state:paused" ><circle cx="0" cy="0" r="5" fill="#72cbfd" style="animation-play-state:paused" ></circle></g>
<g transform="translate(752.8818551580392 585.004124870194) rotate(312.9774723119425) scale(0.33405833901078213)" opacity="0.768714" style="transform:matrix(0.227731, -0.244404, 0.244404, 0.227731, 752.882, 585.004);opacity:0.768714;animation-play-state:paused" ><circle cx="0" cy="0" r="5" fill="#c1d0d8" style="animation-play-state:paused" ></circle></g>
<g transform="translate(671.1790024500623 501.2553140294878) rotate(271.64183373114815) scale(0.28004177063025165)" opacity="0.780209" style="transform:matrix(0.00802367, -0.279927, 0.279927, 0.00802367, 671.179, 501.255);opacity:0.780209;animation-play-state:paused" ><circle cx="0" cy="0" r="5" fill="#c1d0d8" style="animation-play-state:paused" ></circle></g>
<g transform="translate(1229.53327676638 344.4773542903173) rotate(273.97145611741314) scale(0.26812213197373586)" opacity="0.791676" style="transform:matrix(0.01857, -0.267478, 0.267478, 0.01857, 1229.53, 344.477);opacity:0.791676;animation-play-state:paused" ><circle cx="0" cy="0" r="5" fill="#72cbfd" style="animation-play-state:paused" ></circle></g>
<g transform="translate(1004.2164857804233 266.2583755700698) rotate(27.62695806905314) scale(0.27394920217957064)" opacity="0.803102" style="transform:matrix(0.242715, 0.127034, -0.127034, 0.242715, 1004.22, 266.258);opacity:0.803102;animation-play-state:paused" ><circle cx="0" cy="0" r="5" fill="#c1d0d8" style="animation-play-state:paused" ></circle></g>
<g transform="translate(537.4201192948165 372.28980355078994) rotate(177.65491447487972) scale(0.30400303162866954)" opacity="0.814477" style="transform:matrix(-0.303748, 0.0124392, -0.0124392, -0.303748, 537.42, 372.29);opacity:0.814477;animation-play-state:paused" ><circle cx="0" cy="0" r="5" fill="#72cbfd" style="animation-play-state:paused" ></circle></g>
<g transform="translate(1142.279028646337 522.3782049502423) rotate(140.85556162885047) scale(0.3314603758266218)" opacity="0.825787" style="transform:matrix(-0.257066, 0.209243, -0.209243, -0.257066, 1142.28, 522.378);opacity:0.825787;animation-play-state:paused" ><circle cx="0" cy="0" r="5" fill="#c1d0d8" style="animation-play-state:paused" ></circle></g>
<g transform="translate(525.6838050973724 268.68746036924153) rotate(200.58908777496197) scale(0.26268408300718715)" opacity="0.837019" style="transform:matrix(-0.245906, -0.0923763, 0.0923763, -0.245906, 525.684, 268.687);opacity:0.837019;animation-play-state:paused" ><circle cx="0" cy="0" r="5" fill="#c1d0d8" style="animation-play-state:paused" ></circle></g>
<g transform="translate(1273.9207970087173 503.0367630758045) rotate(238.5550909512403) scale(0.3099394649860347)" opacity="0.848162" style="transform:matrix(-0.161689, -0.264422, 0.264422, -0.161689, 1273.92, 503.037);opacity:0.848162;animation-play-state:paused" ><circle cx="0" cy="0" r="5" fill="#72cbfd" style="animation-play-state:paused" ></circle></g>
<g transform="translate(419.2615622191307 629.3553630527257) rotate(22.135593085415586) scale(0.296534635027838)" opacity="1" style="transform:matrix(0.274678, 0.111734, -0.111734, 0.274678, 419.262, 629.355);animation-play-state:paused" ><circle cx="0" cy="0" r="5" fill="#72cbfd" style="animation-play-state:paused" ></circle></g>
<g transform="translate(685.824180471597 655.3607605925207) rotate(337.1473888223787) scale(0.27157096263970326)" opacity="0.870109" style="transform:matrix(0.250255, -0.105468, 0.105468, 0.250255, 685.824, 655.361);opacity:0.870109;animation-play-state:paused" ><circle cx="0" cy="0" r="5" fill="#72cbfd" style="animation-play-state:paused" ></circle></g>
<g transform="translate(415.3818034110469 34.8003940168186) rotate(291.5532685658006) scale(0.3141011382099702)" opacity="0.880882" style="transform:matrix(0.11539, -0.292138, 0.292138, 0.11539, 415.382, 34.8004);opacity:0.880882;animation-play-state:paused" ><circle cx="0" cy="0" r="5" fill="#c1d0d8" style="animation-play-state:paused" ></circle></g>
<g transform="translate(197.41895377802027 511.30608590259436) rotate(48.71396922399533) scale(0.253505061459019)" opacity="0.891498" style="transform:matrix(0.167267, 0.19049, -0.19049, 0.167267, 197.419, 511.306);opacity:0.891498;animation-play-state:paused" ><circle cx="0" cy="0" r="5" fill="#72cbfd" style="animation-play-state:paused" ></circle></g>
<g transform="translate(1170.2903127310383 444.2940000507537) rotate(28.862817159320244) scale(0.2842245076141317)" opacity="0.901931" style="transform:matrix(0.248918, 0.137199, -0.137199, 0.248918, 1170.29, 444.294);opacity:0.901931;animation-play-state:paused" ><circle cx="0" cy="0" r="5" fill="#72cbfd" style="animation-play-state:paused" ></circle></g>
<g transform="translate(306.2146465033797 148.99999159115427) rotate(101.58569644849324) scale(0.2587282428965601)" opacity="0.912158" style="transform:matrix(-0.0519612, 0.253457, -0.253457, -0.0519612, 306.215, 149);opacity:0.912158;animation-play-state:paused" ><circle cx="0" cy="0" r="5" fill="#72cbfd" style="animation-play-state:paused" ></circle></g>
<g transform="translate(754.348976661367 86.29068355506762) rotate(103.54927093641733) scale(0.2964074576138468)" opacity="0.922154" style="transform:matrix(-0.0694428, 0.288158, -0.288158, -0.0694428, 754.349, 86.2907);opacity:0.922154;animation-play-state:paused" ><circle cx="0" cy="0" r="5" fill="#72cbfd" style="animation-play-state:paused" ></circle></g>
<g transform="translate(819.4289351668414 451.33946397881516) rotate(200.25512921670887) scale(0.2695538045289603)" opacity="0.931882" style="transform:matrix(-0.252885, -0.0933198, 0.0933198, -0.252885, 819.429, 451.339);opacity:0.931882;animation-play-state:paused" ><circle cx="0" cy="0" r="5" fill="#72cbfd" style="animation-play-state:paused" ></circle></g>
<g transform="translate(953.4359618631472 283.16704741062335) rotate(192.96727187491138) scale(0.2898896636505618)" opacity="0.941307" style="transform:matrix(-0.282497, -0.0650496, 0.0650496, -0.282497, 953.436, 283.167);opacity:0.941307;animation-play-state:paused" ><circle cx="0" cy="0" r="5" fill="#c1d0d8" style="animation-play-state:paused" ></circle></g>
<g transform="translate(901.3202060144631 526.0925166551713) rotate(160.16920934475664) scale(0.2660901924398856)" opacity="0.950385" style="transform:matrix(-0.250311, 0.0902694, -0.0902694, -0.250311, 901.32, 526.093);opacity:0.950385;animation-play-state:paused" ><circle cx="0" cy="0" r="5" fill="#c1d0d8" style="animation-play-state:paused" ></circle></g>
<g transform="translate(911.8210624675012 348.95806907358764) rotate(87.18282506001096) scale(0.27549389874705615)" opacity="0.959062" style="transform:matrix(0.0135403, 0.275161, -0.275161, 0.0135403, 911.821, 348.958);opacity:0.959062;animation-play-state:paused" ><circle cx="0" cy="0" r="5" fill="#72cbfd" style="animation-play-state:paused" ></circle></g>
<g transform="translate(923.8766348084273 609.3947124995584) rotate(342.03227666892195) scale(0.22742389078767872)" opacity="0.967271" style="transform:matrix(0.216333, -0.0701559, 0.0701559, 0.216333, 923.877, 609.395);opacity:0.967271;animation-play-state:paused" ><circle cx="0" cy="0" r="5" fill="#72cbfd" style="animation-play-state:paused" ></circle></g>
<g transform="translate(1091.5754736061122 297.6313781200287) rotate(151.79289567224725) scale(0.26462695753286614)" opacity="0.974931" style="transform:matrix(-0.233201, 0.125079, -0.125079, -0.233201, 1091.58, 297.631);opacity:0.974931;animation-play-state:paused" ><circle cx="0" cy="0" r="5" fill="#c1d0d8" style="animation-play-state:paused" ></circle></g>
<g transform="translate(693.9663060172899 638.2603114271989) rotate(150.85181537562343) scale(0.24566623525203726)" opacity="0.981937" style="transform:matrix(-0.214556, 0.119657, -0.119657, -0.214556, 693.966, 638.26);opacity:0.981937;animation-play-state:paused" ><circle cx="0" cy="0" r="5" fill="#72cbfd" style="animation-play-state:paused" ></circle></g>
<g transform="translate(531.1652301005691 568.021220018728) rotate(78.52862271123344) scale(0.2977560919480027)" opacity="0.988151" style="transform:matrix(0.0592172, 0.291808, -0.291808, 0.0592172, 531.165, 568.021);opacity:0.988151;animation-play-state:paused" ><circle cx="0" cy="0" r="5" fill="#72cbfd" style="animation-play-state:paused" ></circle></g>
<g transform="translate(1040.596730585158 89.67114200819368) rotate(119.32378468368165) scale(0.29574002146790285)" opacity="0.993382" style="transform:matrix(-0.144837, 0.257846, -0.257846, -0.144837, 1040.6, 89.6711);opacity:0.993382;animation-play-state:paused" ><circle cx="0" cy="0" r="5" fill="#72cbfd" style="animation-play-state:paused" ></circle></g>
<g transform="translate(230.49215965227262 63.95018328528378) rotate(324.4828248142264) scale(0.33195265053640466)" opacity="0.99736" style="transform:matrix(0.27019, -0.192847, 0.192847, 0.27019, 230.492, 63.9502);opacity:0.99736;animation-play-state:paused" ><circle cx="0" cy="0" r="5" fill="#c1d0d8" style="animation-play-state:paused" ></circle></g>
<g transform="translate(228.32077629281298 183.45579502006478) rotate(347.07551225012946) scale(0.2921022604950428)" opacity="0.99967" style="transform:matrix(0.284702, -0.0653336, 0.0653336, 0.284702, 228.321, 183.456);opacity:0.99967;animation-play-state:paused" ><circle cx="0" cy="0" r="5" fill="#c1d0d8" style="animation-play-state:paused" ></circle></g>
<g transform="translate(16.94291382505674 483.25812991175934) rotate(355.95262211657257) scale(0.23671066548367586)" opacity="0.999669" style="transform:matrix(0.23612, -0.0167073, 0.0167073, 0.23612, 16.9429, 483.258);opacity:0.999669;animation-play-state:paused" ><circle cx="0" cy="0" r="5" fill="#72cbfd" style="animation-play-state:paused" ></circle></g>
<g transform="translate(1331.7537413127925 575.6759306827071) rotate(334.6913610160592) scale(0.288319036871404)" opacity="0.99736" style="transform:matrix(0.260646, -0.123255, 0.123255, 0.260646, 1331.75, 575.676);opacity:0.99736;animation-play-state:paused" ><circle cx="0" cy="0" r="5" fill="#c1d0d8" style="animation-play-state:paused" ></circle></g>
<g transform="translate(1346.3192947282917 296.4076367333593) rotate(81.44962038234215) scale(0.22693317060253684)" opacity="0.993382" style="transform:matrix(0.0337402, 0.224411, -0.224411, 0.0337402, 1346.32, 296.408);opacity:0.993382;animation-play-state:paused" ><circle cx="0" cy="0" r="5" fill="#c1d0d8" style="animation-play-state:paused" ></circle></g>
<g transform="translate(903.090213587252 150.609025898708) rotate(254.08184709369243) scale(0.29036182169293906)" opacity="0.98815" style="transform:matrix(-0.0796358, -0.279228, 0.279228, -0.0796358, 903.09, 150.609);opacity:0.98815;animation-play-state:paused" ><circle cx="0" cy="0" r="5" fill="#c1d0d8" style="animation-play-state:paused" ></circle></g>
<g transform="translate(1302.801659682582 452.31702441566205) rotate(9.115788144235477) scale(0.23084964222254375)" opacity="0.981937" style="transform:matrix(0.227934, 0.0365735, -0.0365735, 0.227934, 1302.8, 452.317);opacity:0.981937;animation-play-state:paused" ><circle cx="0" cy="0" r="5" fill="#c1d0d8" style="animation-play-state:paused" ></circle></g>
<g transform="translate(1146.8662468779262 202.34783958630322) rotate(22.46054333182495) scale(0.304430915644466)" opacity="0.974931" style="transform:matrix(0.281338, 0.116307, -0.116307, 0.281338, 1146.87, 202.348);opacity:0.974931;animation-play-state:paused" ><circle cx="0" cy="0" r="5" fill="#c1d0d8" style="animation-play-state:paused" ></circle></g>
<g transform="translate(1254.2999272580444 59.64836148190719) rotate(15.64174027789953) scale(0.2587083293564122)" opacity="0.96727" style="transform:matrix(0.249127, 0.0697533, -0.0697533, 0.249127, 1254.3, 59.6484);opacity:0.96727;animation-play-state:paused" ><circle cx="0" cy="0" r="5" fill="#c1d0d8" style="animation-play-state:paused" ></circle></g>
<g transform="translate(587.613564515276 311.7955615680052) rotate(341.11917535708176) scale(0.23725065184911953)" opacity="0.959061" style="transform:matrix(0.224485, -0.0767745, 0.0767745, 0.224485, 587.614, 311.796);opacity:0.959061;animation-play-state:paused" ><circle cx="0" cy="0" r="5" fill="#c1d0d8" style="animation-play-state:paused" ></circle></g>
<g transform="translate(195.06782340136064 210.96706167964115) rotate(201.41046415293974) scale(0.3055552879667648)" opacity="0.950385" style="transform:matrix(-0.284469, -0.111542, 0.111542, -0.284469, 195.068, 210.967);opacity:0.950385;animation-play-state:paused" ><circle cx="0" cy="0" r="5" fill="#c1d0d8" style="animation-play-state:paused" ></circle></g>
<g transform="translate(292.0950415986315 382.0161831974215) rotate(61.951241525575) scale(0.24714094243131338)" opacity="0.941307" style="transform:matrix(0.116211, 0.218114, -0.218114, 0.116211, 292.095, 382.016);opacity:0.941307;animation-play-state:paused" ><circle cx="0" cy="0" r="5" fill="#72cbfd" style="animation-play-state:paused" ></circle></g>
<g transform="translate(549.6550238151103 59.273225966486756) rotate(284.5821072983753) scale(0.32200468957975165)" opacity="0.931881" style="transform:matrix(0.0810701, -0.311632, 0.311632, 0.0810701, 549.655, 59.2732);opacity:0.931881;animation-play-state:paused" ><circle cx="0" cy="0" r="5" fill="#72cbfd" style="animation-play-state:paused" ></circle></g>
<g transform="translate(213.99258689228864 596.5266838055144) rotate(9.52131741118488) scale(0.2648408342411961)" opacity="0.922152" style="transform:matrix(0.261192, 0.0438085, -0.0438085, 0.261192, 213.993, 596.527);opacity:0.922152;animation-play-state:paused" ><circle cx="0" cy="0" r="5" fill="#72cbfd" style="animation-play-state:paused" ></circle></g>
<g transform="translate(439.8891643431022 207.1947814478856) rotate(242.71647037755818) scale(0.25911901720789454)" opacity="0.912158" style="transform:matrix(-0.118779, -0.230292, 0.230292, -0.118779, 439.889, 207.195);opacity:0.912158;animation-play-state:paused" ><circle cx="0" cy="0" r="5" fill="#c1d0d8" style="animation-play-state:paused" ></circle></g>
<g transform="translate(1.63879289378905 61.39572206555119) rotate(326.7923640786164) scale(0.33214346628122754)" opacity="0.901931" style="transform:matrix(0.277902, -0.181907, 0.181907, 0.277902, 1.63879, 61.3957);opacity:0.901931;animation-play-state:paused" ><circle cx="0" cy="0" r="5" fill="#72cbfd" style="animation-play-state:paused" ></circle></g>
<g transform="translate(322.23046647237135 201.87982599546842) rotate(9.943118777160418) scale(0.3104424645544767)" opacity="0.891496" style="transform:matrix(0.305779, 0.0536042, -0.0536042, 0.305779, 322.23, 201.88);opacity:0.891496;animation-play-state:paused" ><circle cx="0" cy="0" r="5" fill="#72cbfd" style="animation-play-state:paused" ></circle></g>
<g transform="translate(991.9984693149261 148.85743632733468) rotate(35.56058138041192) scale(0.28779618739456286)" opacity="0.880882" style="transform:matrix(0.234122, 0.167372, -0.167372, 0.234122, 991.998, 148.857);opacity:0.880882;animation-play-state:paused" ><circle cx="0" cy="0" r="5" fill="#72cbfd" style="animation-play-state:paused" ></circle></g>
<g transform="translate(340.26516123731585 221.59980423456886) rotate(297.6888825665007) scale(0.31899157651932547)" opacity="0.870109" style="transform:matrix(0.148226, -0.282462, 0.282462, 0.148226, 340.265, 221.6);opacity:0.870109;animation-play-state:paused" ><circle cx="0" cy="0" r="5" fill="#c1d0d8" style="animation-play-state:paused" ></circle></g>
<g transform="translate(1144.87417490561 584.6917517081795) rotate(290.2384034726542) scale(0.2884425371485151)" opacity="0.859195" style="transform:matrix(0.0997801, -0.270634, 0.270634, 0.0997801, 1144.87, 584.692);opacity:0.859195;animation-play-state:paused" ><circle cx="0" cy="0" r="5" fill="#c1d0d8" style="animation-play-state:paused" ></circle></g>
<g transform="translate(708.3590063565459 550.7913628845864) rotate(176.72385066139833) scale(0.29705785429780196)" opacity="0.84816" style="transform:matrix(-0.296572, 0.0169764, -0.0169764, -0.296572, 708.359, 550.791);opacity:0.84816;animation-play-state:paused" ><circle cx="0" cy="0" r="5" fill="#c1d0d8" style="animation-play-state:paused" ></circle></g>
<g transform="translate(165.65507331238885 190.75999705568114) rotate(343.31587160766674) scale(0.23320798590917358)" opacity="0.837019" style="transform:matrix(0.22339, -0.0669529, 0.0669529, 0.22339, 165.655, 190.76);opacity:0.837019;animation-play-state:paused" ><circle cx="0" cy="0" r="5" fill="#c1d0d8" style="animation-play-state:paused" ></circle></g>
<g transform="translate(868.8311425854641 246.68570951796076) rotate(14.667382496065784) scale(0.3158258993678355)" opacity="0.825787" style="transform:matrix(0.305534, 0.0799694, -0.0799694, 0.305534, 868.831, 246.686);opacity:0.825787;animation-play-state:paused" ><circle cx="0" cy="0" r="5" fill="#c1d0d8" style="animation-play-state:paused" ></circle></g>
<g transform="translate(769.5276811010696 90.90844215729214) rotate(124.8391451041392) scale(0.2463995340671598)" opacity="0.814476" style="transform:matrix(-0.140762, 0.202235, -0.202235, -0.140762, 769.528, 90.9084);opacity:0.814476;animation-play-state:paused" ><circle cx="0" cy="0" r="5" fill="#c1d0d8" style="animation-play-state:paused" ></circle></g>
<g transform="translate(990.6014589942955 4.504228781865402) rotate(160.06800218412707) scale(0.3119343907582867)" opacity="0.803102" style="transform:matrix(-0.293249, 0.10634, -0.10634, -0.293249, 990.601, 4.50423);opacity:0.803102;animation-play-state:paused" ><circle cx="0" cy="0" r="5" fill="#c1d0d8" style="animation-play-state:paused" ></circle></g>
<g transform="translate(46.163863515871036 532.9581305006836) rotate(356.46292712453146) scale(0.2546327125468569)" opacity="0.791676" style="transform:matrix(0.254148, -0.0157094, 0.0157094, 0.254148, 46.1639, 532.958);opacity:0.791676;animation-play-state:paused" ><circle cx="0" cy="0" r="5" fill="#72cbfd" style="animation-play-state:paused" ></circle></g></g></svg>